{
.appVersion = "1286";
classes = (
{
automatic = 1;
code = "A AE B C D E F G H I J K L M N O P Thorn R S T U W X Y a ae b c d e f g h i j k l m n o p thorn r s t u w x y A_two.liga E_A.liga J_two.liga K_two.liga L_two.liga a_two.liga e_a.liga j_two.liga k_two.liga l_two.liga space uni16A0 uni16A2 uni16A4 uni16A6 uni16A9 uni16AA uni16AB uni16B1 uni16B3 uni16B7 uni16B9 uni16BB uni16BC uni16BE uni16C1 uni16C4 uni16C7 uni16C8 uni16C9 uni16CB uni16CF uni16D2 uni16D6 uni16D7 uni16DA uni16DE uni16E0 uni16E3 uni16E6";
name = All;
}
);
copyright = "Copyright © 2021 by Ruby Ku. All rights reserved.";
date = "2021-12-30 12:17:50 +0000";
designer = "Ruby Ku";
familyName = "EBH Runes";
featurePrefixes = (
{
automatic = 1;
code = "languagesystem DFLT dflt;\012";
name = Languagesystems;
}
);
features = (
{
automatic = 1;
code = "lookupflag IgnoreMarks;\012sub A two by A_two.liga;\012sub E A by E_A.liga;\012sub J two by J_two.liga;\012sub K two by K_two.liga;\012sub L two by L_two.liga;\012sub a two by a_two.liga;\012sub e a by e_a.liga;\012sub j two by j_two.liga;\012sub k two by k_two.liga;\012sub l two by l_two.liga;\012";
name = liga;
}
);
fontMaster = (
{
alignmentZones = (
"{900, 16}",
"{850, 16}",
"{500, 15}",
"{0, -15}",
"{-350, -16}"
);
ascender = 900;
capHeight = 850;
descender = -350;
id = "A3F1973E-A54C-4051-9E3B-DFD359A8ED51";
weightValue = 400;
xHeight = 500;
}
);
glyphs = (
{
glyphname = A;
lastChange = "2021-12-30 14:01:37 +0000";
layers = (
{
hints = (
{
horizontal = 1;
place = "{562, 155}";
type = Stem;
},
{
place = "{110, 110}";
type = Stem;
}
);
layerId = "A3F1973E-A54C-4051-9E3B-DFD359A8ED51";
paths = (
{
closed = 1;
nodes = (
"71 -70 OFFCURVE",
"146 -44 OFFCURVE",
"171 -26 CURVE SMOOTH",
"209 -2 OFFCURVE",
"188 -1 OFFCURVE",
"171 30 CURVE SMOOTH",
"153 65 OFFCURVE",
"170 122 OFFCURVE",
"170 159 CURVE SMOOTH",
"170 207 OFFCURVE",
"168 262 OFFCURVE",
"175 311 CURVE SMOOTH",
"185 372 OFFCURVE",
"212 311 OFFCURVE",
"242 279 CURVE",
"261 253 OFFCURVE",
"305 187 OFFCURVE",
"337 177 CURVE SMOOTH",
"379 166 OFFCURVE",
"412 256 OFFCURVE",
"398 242 CURVE SMOOTH",
"358 200 OFFCURVE",
"269 388 OFFCURVE",
"233 420 CURVE SMOOTH",
"199 447 OFFCURVE",
"190 460 OFFCURVE",
"192 508 CURVE SMOOTH",
"192 585 OFFCURVE",
"186 660 OFFCURVE",
"189 736 CURVE",
"221 742 OFFCURVE",
"244 729 OFFCURVE",
"302 653 CURVE",
"316 637 OFFCURVE",
"337 589 OFFCURVE",
"357 583 CURVE SMOOTH",
"415 564 OFFCURVE",
"585 933 OFFCURVE",
"441 720 CURVE",
"415 694 OFFCURVE",
"385 668 OFFCURVE",
"351 698 CURVE SMOOTH",
"331 716 OFFCURVE",
"317 736 OFFCURVE",
"298 757 CURVE SMOOTH",
"256 806 OFFCURVE",
"244 887 OFFCURVE",
"157 855 CURVE SMOOTH",
"55 818 LINE",
"27 812 OFFCURVE",
"85 799 OFFCURVE",
"97 783 CURVE SMOOTH",
"111 767 OFFCURVE",
"111 746 OFFCURVE",
"111 721 CURVE SMOOTH",
"111 573 OFFCURVE",
"112 61 OFFCURVE",
"105 7 CURVE SMOOTH",
"103 -14 OFFCURVE",
"87 -33 OFFCURVE",
"85 -54 CURVE"
);
}
);
width = 545;
}
);
note = A;
unicode = 0041;
},
{
glyphname = AE;
lastChange = "2021-12-30 14:01:37 +0000";
layers = (
{
hints = (
{
horizontal = 1;
place = "{80, 76}";
type = Stem;
},
{
horizontal = 1;
place = "{562, 157}";
type = Stem;
},
{
place = "{113, 105}";
type = Stem;
},
{
place = "{86, 110}";
type = Stem;
}
);
layerId = "A3F1973E-A54C-4051-9E3B-DFD359A8ED51";
paths = (
{
closed = 1;
nodes = (
"73 -70 OFFCURVE",
"150 -46 OFFCURVE",
"173 -26 CURVE SMOOTH",
"200 -2 OFFCURVE",
"190 0 OFFCURVE",
"173 31 CURVE SMOOTH",
"155 66 OFFCURVE",
"171 122 OFFCURVE",
"171 159 CURVE SMOOTH",
"171 207 OFFCURVE",
"179 242 OFFCURVE",
"177 311 CURVE SMOOTH",
"174 405 OFFCURVE",
"171 384 OFFCURVE",
"223 343 CURVE",
"300 290 OFFCURVE",
"297 282 OFFCURVE",
"337 258 CURVE SMOOTH",
"376 234 OFFCURVE",
"441 294 OFFCURVE",
"402 297 CURVE",
"318 339 OFFCURVE",
"284 384 OFFCURVE",
"235 427 CURVE SMOOTH",
"201 457 OFFCURVE",
"183 476 OFFCURVE",
"186 548 CURVE SMOOTH",
"188 625 OFFCURVE",
"187 660 OFFCURVE",
"191 736 CURVE",
"223 742 OFFCURVE",
"246 729 OFFCURVE",
"304 653 CURVE",
"318 637 OFFCURVE",
"342 596 OFFCURVE",
"361 602 CURVE SMOOTH",
"436 622 OFFCURVE",
"432 626 OFFCURVE",
"395 651 CURVE",
"368 660 OFFCURVE",
"318 738 OFFCURVE",
"300 757 CURVE SMOOTH",
"258 806 OFFCURVE",
"246 887 OFFCURVE",
"159 855 CURVE SMOOTH",
"57 818 LINE",
"29 812 OFFCURVE",
"87 799 OFFCURVE",
"99 783 CURVE SMOOTH",
"113 767 OFFCURVE",
"113 746 OFFCURVE",
"113 721 CURVE SMOOTH",
"113 573 OFFCURVE",
"114 61 OFFCURVE",
"107 7 CURVE SMOOTH",
"105 -13 OFFCURVE",
"89 -33 OFFCURVE",
"87 -54 CURVE"
);
}
);
width = 537;
}
);
note = AE;
unicode = 00C6;
},
{
glyphname = B;
lastChange = "2021-12-30 14:01:40 +0000";
layers = (
{
hints = (
{
horizontal = 1;
place = "{-300, 1002}";
type = Stem;
},
{
place = "{62, 92}";
type = Stem;
},
{
place = "{308, 88}";
type = Stem;
}
);
layerId = "A3F1973E-A54C-4051-9E3B-DFD359A8ED51";
paths = (
{
closed = 1;
nodes = (
"54 -116 OFFCURVE",
"84 -98 OFFCURVE",
"143 -54 CURVE SMOOTH",
"176 -30 OFFCURVE",
"400 118 OFFCURVE",
"371 149 CURVE SMOOTH",
"199 327 OFFCURVE",
"126 340 OFFCURVE",
"126 376 CURVE SMOOTH",
"125 419 OFFCURVE",
"190 460 OFFCURVE",
"236 503 CURVE SMOOTH",
"290 548 OFFCURVE",
"314 574 OFFCURVE",
"358 619 CURVE SMOOTH",
"379 639 OFFCURVE",
"389 640 OFFCURVE",
"369 663 CURVE SMOOTH",
"335 700 OFFCURVE",
"311 741 OFFCURVE",
"278 771 CURVE SMOOTH",
"196 846 OFFCURVE",
"177 886 OFFCURVE",
"143 853 CURVE SMOOTH",
"41 750 OFFCURVE",
"64 742 OFFCURVE",
"62 647 CURVE SMOOTH",
"62 368 LINE SMOOTH",
"60 299 OFFCURVE",
"58 181 OFFCURVE",
"62 129 CURVE SMOOTH",
"63 87 OFFCURVE",
"60 1 OFFCURVE",
"60 -41 CURVE SMOOTH",
"60 -83 OFFCURVE",
"60 -106 OFFCURVE",
"57 -111 CURVE SMOOTH"
);
},
{
closed = 1;
nodes = (
"148 -28 OFFCURVE",
"125 -62 OFFCURVE",
"133 7 CURVE",
"133 7 OFFCURVE",
"133 46 OFFCURVE",
"130 196 CURVE SMOOTH",
"129 254 OFFCURVE",
"129 281 OFFCURVE",
"179 231 CURVE SMOOTH",
"177 233 OFFCURVE",
"222 196 OFFCURVE",
"260 158 CURVE SMOOTH",
"317 102 OFFCURVE",
"317 102 OFFCURVE",
"294 80 CURVE SMOOTH",
"257 44 OFFCURVE",
"236 34 OFFCURVE",
"181 -5 CURVE SMOOTH"
);
},
{
closed = 1;
nodes = (
"126 438 OFFCURVE",
"130 470 OFFCURVE",
"133 527 CURVE SMOOTH",
"135 606 OFFCURVE",
"137 644 OFFCURVE",
"136 678 CURVE SMOOTH",
"136 705 OFFCURVE",
"129 782 OFFCURVE",
"154 767 CURVE",
"153 767 OFFCURVE",
"187 740 OFFCURVE",
"226 708 CURVE SMOOTH",
"264 678 OFFCURVE",
"316 629 OFFCURVE",
"317 627 CURVE SMOOTH",
"326 606 OFFCURVE",
"283 576 OFFCURVE",
"212 511 CURVE SMOOTH",
"145 450 OFFCURVE",
"114 423 OFFCURVE",
"120 431 CURVE SMOOTH"
);
}
);
width = 439;
}
);
note = B;
unicode = 0042;
},
{
glyphname = C;
lastChange = "2021-12-30 14:01:37 +0000";
layers = (
{
hints = (
{
horizontal = 1;
place = "{-233, 942}";
type = Stem;
},
{
place = "{175, 95}";
type = Stem;
},
{
horizontal = 1;
place = "{-233, 113}";
type = Stem;
},
{
place = "{422, 189}";
type = Stem;
},
{
horizontal = 1;
place = "{-212, 99}";
type = Stem;
},
{
place = "{178, 100}";
type = Stem;
}
);
layerId = "A3F1973E-A54C-4051-9E3B-DFD359A8ED51";
paths = (
{
closed = 1;
nodes = (
"228 -50 OFFCURVE",
"228 -44 OFFCURVE",
"276 -28 CURVE SMOOTH",
"315 -15 OFFCURVE",
"343 16 OFFCURVE",
"310 16 CURVE SMOOTH",
"229 16 OFFCURVE",
"243 -14 OFFCURVE",
"236 308 CURVE SMOOTH",
"235 348 OFFCURVE",
"235 401 OFFCURVE",
"329 389 CURVE SMOOTH",
"376 383 OFFCURVE",
"419 340 OFFCURVE",
"420 261 CURVE SMOOTH",
"422 150 LINE SMOOTH",
"423 88 OFFCURVE",
"424 20 OFFCURVE",
"420 -4 CURVE SMOOTH",
"416 -35 OFFCURVE",
"408 -43 OFFCURVE",
"426 -43 CURVE SMOOTH",
"450 -43 OFFCURVE",
"466 -32 OFFCURVE",
"517 -19 CURVE SMOOTH",
"554 -10 OFFCURVE",
"607 50 OFFCURVE",
"557 27 CURVE",
"501 6 OFFCURVE",
"493 61 OFFCURVE",
"491 114 CURVE SMOOTH",
"482 291 OFFCURVE",
"503 328 OFFCURVE",
"458 404 CURVE SMOOTH",
"407 489 OFFCURVE",
"244 477 OFFCURVE",
"244 494 CURVE SMOOTH",
"245 623 LINE SMOOTH",
"247 729 OFFCURVE",
"245 740 OFFCURVE",
"249 779 CURVE SMOOTH",
"253 835 OFFCURVE",
"279 845 OFFCURVE",
"256 845 CURVE",
"206 822 OFFCURVE",
"184 819 OFFCURVE",
"142 795 CURVE SMOOTH",
"123 785 OFFCURVE",
"105 779 OFFCURVE",
"83 762 CURVE SMOOTH",
"56 740 LINE",
"32 714 OFFCURVE",
"107 731 OFFCURVE",
"145 693 CURVE SMOOTH",
"179 659 OFFCURVE",
"178 610 OFFCURVE",
"178 573 CURVE SMOOTH",
"178 431 OFFCURVE",
"177 431 OFFCURVE",
"176 362 CURVE SMOOTH",
"174 162 LINE SMOOTH",
"173 110 OFFCURVE",
"177 -11 OFFCURVE",
"150 -28 CURVE SMOOTH",
"84 -69 OFFCURVE",
"153 -64 OFFCURVE",
"189 -57 CURVE SMOOTH"
);
}
);
width = 629;
}
);
note = C;
unicode = 0043;
},
{
glyphname = D;
lastChange = "2021-12-30 14:01:40 +0000";
layers = (
{
hints = (
{
horizontal = 1;
place = "{-218, 112}";
type = Stem;
},
{
place = "{108, 125}";
type = Stem;
},
{
place = "{644, 125}";
type = Stem;
}
);
layerId = "A3F1973E-A54C-4051-9E3B-DFD359A8ED51";
paths = (
{
closed = 1;
nodes = (
"208 -7 OFFCURVE",
"181 -17 OFFCURVE",
"185 56 CURVE SMOOTH",
"189 110 OFFCURVE",
"188 147 OFFCURVE",
"188 199 CURVE",
"252 249 LINE SMOOTH",
"293 280 OFFCURVE",
"337 304 OFFCURVE",
"382 330 CURVE",
"484 273 LINE SMOOTH",
"533 246 OFFCURVE",
"563 237 OFFCURVE",
"600 220 CURVE SMOOTH",
"613 214 OFFCURVE",
"629 202 OFFCURVE",
"644 196 CURVE",
"644 116 LINE SMOOTH",
"644 56 OFFCURVE",
"664 -4 OFFCURVE",
"622 -42 CURVE SMOOTH",
"584 -81 OFFCURVE",
"707 -46 OFFCURVE",
"762 -2 CURVE SMOOTH",
"791 24 OFFCURVE",
"711 -13 OFFCURVE",
"719 35 CURVE",
"723 288 LINE SMOOTH",
"725 366 OFFCURVE",
"724 441 OFFCURVE",
"726 518 CURVE SMOOTH",
"728 629 LINE SMOOTH",
"732 847 OFFCURVE",
"768 853 OFFCURVE",
"751 854 CURVE SMOOTH",
"716 858 OFFCURVE",
"563 787 OFFCURVE",
"609 780 CURVE",
"639 767 OFFCURVE",
"649 777 OFFCURVE",
"647 690 CURVE SMOOTH",
"646 645 OFFCURVE",
"644 595 OFFCURVE",
"644 549 CURVE SMOOTH",
"644 527 LINE",
"617 507 OFFCURVE",
"588 487 OFFCURVE",
"559 467 CURVE SMOOTH",
"452 398 LINE",
"367 445 OFFCURVE",
"280 492 OFFCURVE",
"190 533 CURVE",
"190 697 OFFCURVE",
"197 676 OFFCURVE",
"193 746 CURVE SMOOTH",
"192 766 OFFCURVE",
"192 784 OFFCURVE",
"198 805 CURVE SMOOTH",
"204 820 OFFCURVE",
"218 834 OFFCURVE",
"216 850 CURVE SMOOTH",
"214 862 OFFCURVE",
"157 812 OFFCURVE",
"153 808 CURVE SMOOTH",
"136 791 OFFCURVE",
"82 771 OFFCURVE",
"77 750 CURVE",
"75 732 OFFCURVE",
"91 743 OFFCURVE",
"101 730 CURVE SMOOTH",
"115 712 OFFCURVE",
"108 665 OFFCURVE",
"108 645 CURVE SMOOTH",
"107 599 OFFCURVE",
"108 589 OFFCURVE",
"108 558 CURVE SMOOTH",
"108 484 OFFCURVE",
"107 410 OFFCURVE",
"108 336 CURVE SMOOTH",
"109 195 OFFCURVE",
"111 145 OFFCURVE",
"109 70 CURVE SMOOTH",
"108 26 OFFCURVE",
"54 16 OFFCURVE",
"64 0 CURVE SMOOTH",
"99 -54 OFFCURVE",
"121 -63 OFFCURVE",
"136 -53 CURVE SMOOTH"
);
},
{
closed = 1;
nodes = (
"188 297 LINE",
"190 428 LINE",
"249 401 OFFCURVE",
"305 372 OFFCURVE",
"360 342 CURVE",
"333 326 LINE SMOOTH",
"284 295 OFFCURVE",
"258 283 OFFCURVE",
"231 264 CURVE SMOOTH",
"188 234 LINE"
);
},
{
closed = 1;
nodes = (
"642 302 OFFCURVE",
"638 303 OFFCURVE",
"633 306 CURVE SMOOTH",
"478 387 LINE",
"516 418 OFFCURVE",
"545 433 OFFCURVE",
"594 466 CURVE SMOOTH",
"601 471 OFFCURVE",
"622 484 OFFCURVE",
"646 494 CURVE",
"646 437 OFFCURVE",
"644 384 OFFCURVE",
"644 328 CURVE SMOOTH",
"644 302 LINE"
);
}
);
width = 831;
}
);
note = D;
unicode = 0044;
},
{
glyphname = E;
lastChange = "2021-12-30 14:01:41 +0000";
layers = (
{
hints = (
{
horizontal = 1;
place = "{-164, 79}";
type = Stem;
},
{
place = "{138, 120}";
type = Stem;
},
{
place = "{605, 135}";
type = Stem;
},
{
horizontal = 1;
place = "{-163, 111}";
type = Stem;
}
);
layerId = "A3F1973E-A54C-4051-9E3B-DFD359A8ED51";
paths = (
{
closed = 1;
nodes = (
"594 -24 OFFCURVE",
"645 10 OFFCURVE",
"673 15 CURVE SMOOTH",
"721 23 OFFCURVE",
"785 58 OFFCURVE",
"744 56 CURVE",
"700 44 OFFCURVE",
"698 133 OFFCURVE",
"698 163 CURVE SMOOTH",
"698 255 OFFCURVE",
"695 338 OFFCURVE",
"695 441 CURVE SMOOTH",
"693 682 LINE SMOOTH",
"693 704 OFFCURVE",
"691 740 OFFCURVE",
"695 761 CURVE SMOOTH",
"700 789 OFFCURVE",
"775 830 OFFCURVE",
"736 830 CURVE",
"709 834 OFFCURVE",
"624 838 OFFCURVE",
"611 815 CURVE SMOOTH",
"598 790 OFFCURVE",
"579 765 OFFCURVE",
"566 740 CURVE SMOOTH",
"478 586 LINE SMOOTH",
"462 561 OFFCURVE",
"437 534 OFFCURVE",
"421 504 CURVE",
"379 593 OFFCURVE",
"292 679 OFFCURVE",
"248 774 CURVE SMOOTH",
"230 809 LINE",
"225 815 OFFCURVE",
"223 824 OFFCURVE",
"214 834 CURVE",
"201 838 OFFCURVE",
"187 827 OFFCURVE",
"178 822 CURVE",
"151 811 LINE SMOOTH",
"123 799 OFFCURVE",
"98 789 OFFCURVE",
"76 773 CURVE",
"76 759 OFFCURVE",
"92 759 OFFCURVE",
"102 748 CURVE",
"162 695 OFFCURVE",
"137 566 OFFCURVE",
"137 495 CURVE SMOOTH",
"137 407 OFFCURVE",
"139 319 OFFCURVE",
"133 239 CURVE SMOOTH",
"126 182 OFFCURVE",
"164 58 OFFCURVE",
"94 23 CURVE",
"87 21 OFFCURVE",
"64 18 OFFCURVE",
"62 7 CURVE SMOOTH",
"55 -18 OFFCURVE",
"228 -13 OFFCURVE",
"248 1 CURVE",
"266 17 OFFCURVE",
"253 18 OFFCURVE",
"239 26 CURVE",
"205 61 OFFCURVE",
"208 100 OFFCURVE",
"208 141 CURVE SMOOTH",
"208 353 OFFCURVE",
"214 241 OFFCURVE",
"214 459 CURVE SMOOTH",
"214 493 OFFCURVE",
"214 639 OFFCURVE",
"212 657 CURVE",
"212 686 LINE",
"250 648 OFFCURVE",
"389 403 OFFCURVE",
"398 411 CURVE",
"418 444 LINE",
"504 582 LINE SMOOTH",
"521 607 OFFCURVE",
"578 686 OFFCURVE",
"604 745 CURVE",
"604 516 LINE SMOOTH",
"603 420 OFFCURVE",
"603 323 OFFCURVE",
"604 235 CURVE SMOOTH",
"603 97 LINE SMOOTH",
"603 67 OFFCURVE",
"603 54 OFFCURVE",
"584 30 CURVE",
"575 21 OFFCURVE",
"550 9 OFFCURVE",
"566 -3 CURVE SMOOTH"
);
}
);
width = 820;
}
);
note = E;
unicode = 0045;
},
{
glyphname = F;
lastChange = "2021-12-30 14:01:37 +0000";
layers = (
{
hints = (
{
horizontal = 1;
place = "{491, 198}";
type = Stem;
},
{
place = "{184, 107}";
type = Stem;
},
{
place = "{502, 117}";
type = Stem;
},
{
place = "{189, 118}";
type = Stem;
},
{
place = "{458, 106}";
type = Stem;
}
);
layerId = "A3F1973E-A54C-4051-9E3B-DFD359A8ED51";
paths = (
{
closed = 1;
nodes = (
"209 -40 OFFCURVE",
"237 -34 OFFCURVE",
"262 -26 CURVE SMOOTH",
"327 -8 OFFCURVE",
"290 4 OFFCURVE",
"273 28 CURVE SMOOTH",
"249 57 OFFCURVE",
"252 274 OFFCURVE",
"273 391 CURVE SMOOTH",
"280 439 OFFCURVE",
"322 466 OFFCURVE",
"358 487 CURVE SMOOTH",
"384 503 OFFCURVE",
"440 532 OFFCURVE",
"469 524 CURVE SMOOTH",
"551 503 OFFCURVE",
"461 402 OFFCURVE",
"531 451 CURVE SMOOTH",
"604 503 OFFCURVE",
"600 584 OFFCURVE",
"531 597 CURVE SMOOTH",
"485 604 OFFCURVE",
"417 576 OFFCURVE",
"346 517 CURVE SMOOTH",
"266 451 LINE",
"277 517 OFFCURVE",
"259 581 OFFCURVE",
"290 639 CURVE SMOOTH",
"310 682 OFFCURVE",
"340 744 OFFCURVE",
"396 733 CURVE",
"438 730 OFFCURVE",
"468 701 OFFCURVE",
"455 671 CURVE SMOOTH",
"445 645 OFFCURVE",
"486 671 OFFCURVE",
"507 694 CURVE SMOOTH",
"528 718 OFFCURVE",
"535 742 OFFCURVE",
"526 781 CURVE SMOOTH",
"507 862 OFFCURVE",
"416 809 OFFCURVE",
"353 755 CURVE",
"319 733 OFFCURVE",
"298 696 OFFCURVE",
"269 665 CURVE",
"277 698 OFFCURVE",
"269 744 OFFCURVE",
"273 776 CURVE",
"273 796 OFFCURVE",
"280 831 OFFCURVE",
"269 850 CURVE SMOOTH",
"259 868 OFFCURVE",
"253 860 OFFCURVE",
"233 852 CURVE SMOOTH",
"206 843 OFFCURVE",
"180 831 OFFCURVE",
"157 820 CURVE SMOOTH",
"117 804 OFFCURVE",
"80 811 OFFCURVE",
"60 792 CURVE SMOOTH",
"36 770 OFFCURVE",
"77 770 OFFCURVE",
"93 770 CURVE SMOOTH",
"127 772 OFFCURVE",
"167 776 OFFCURVE",
"183 736 CURVE SMOOTH",
"196 700 OFFCURVE",
"183 645 OFFCURVE",
"186 608 CURVE",
"189 479 LINE SMOOTH",
"191 357 OFFCURVE",
"178 244 OFFCURVE",
"183 116 CURVE SMOOTH",
"186 48 LINE",
"183 16 OFFCURVE",
"175 -1 OFFCURVE",
"151 -15 CURVE SMOOTH",
"83 -58 OFFCURVE",
"162 -47 OFFCURVE",
"183 -44 CURVE SMOOTH"
);
}
);
width = 637;
}
);
note = F;
unicode = 0046;
},
{
glyphname = G;
lastChange = "2021-12-30 14:01:40 +0000";
layers = (
{
hints = (
{
horizontal = 1;
place = "{-193, 114}";
type = Stem;
},
{
horizontal = 1;
place = "{555, 101}";
type = Stem;
},
{
place = "{213, 121}";
type = Stem;
},
{
place = "{223, 113}";
type = Stem;
},
{
horizontal = 1;
place = "{567, 154}";
type = Stem;
}
);
layerId = "A3F1973E-A54C-4051-9E3B-DFD359A8ED51";
paths = (
{
closed = 1;
nodes = (
"-111 -50 OFFCURVE",
"-62 -39 OFFCURVE",
"-48 -33 CURVE",
"-17 -16 LINE SMOOTH",
"-14 -14 OFFCURVE",
"-1 3 OFFCURVE",
"-6 7 CURVE SMOOTH",
"-9 9 OFFCURVE",
"-13 8 OFFCURVE",
"-14 14 CURVE",
"41 78 LINE SMOOTH",
"102 150 OFFCURVE",
"159 229 OFFCURVE",
"221 300 CURVE",
"224 276 LINE SMOOTH",
"231 218 OFFCURVE",
"220 162 OFFCURVE",
"229 104 CURVE SMOOTH",
"232 85 OFFCURVE",
"224 56 OFFCURVE",
"221 32 CURVE SMOOTH",
"219 18 OFFCURVE",
"221 3 OFFCURVE",
"229 -9 CURVE SMOOTH",
"243 -33 OFFCURVE",
"274 -34 OFFCURVE",
"298 -28 CURVE SMOOTH",
"329 -19 OFFCURVE",
"353 -10 OFFCURVE",
"380 11 CURVE SMOOTH",
"391 20 OFFCURVE",
"418 41 OFFCURVE",
"387 44 CURVE SMOOTH",
"363 46 OFFCURVE",
"346 44 OFFCURVE",
"331 63 CURVE SMOOTH",
"316 84 OFFCURVE",
"316 106 OFFCURVE",
"315 131 CURVE SMOOTH",
"312 218 LINE SMOOTH",
"312 230 OFFCURVE",
"282 375 OFFCURVE",
"305 405 CURVE SMOOTH",
"351 467 LINE SMOOTH",
"393 524 OFFCURVE",
"434 583 OFFCURVE",
"482 637 CURVE SMOOTH",
"504 662 OFFCURVE",
"519 692 OFFCURVE",
"535 718 CURVE SMOOTH",
"537 722 OFFCURVE",
"577 780 OFFCURVE",
"566 780 CURVE SMOOTH",
"553 780 LINE SMOOTH",
"535 780 OFFCURVE",
"515 768 OFFCURVE",
"502 758 CURVE SMOOTH",
"487 748 OFFCURVE",
"458 737 OFFCURVE",
"455 718 CURVE",
"484 718 LINE",
"487 698 OFFCURVE",
"478 685 OFFCURVE",
"465 665 CURVE SMOOTH",
"439 623 OFFCURVE",
"401 591 OFFCURVE",
"372 550 CURVE SMOOTH",
"300 452 LINE",
"298 522 OFFCURVE",
"302 589 OFFCURVE",
"298 658 CURVE SMOOTH",
"296 706 OFFCURVE",
"295 751 OFFCURVE",
"298 798 CURVE SMOOTH",
"299 811 OFFCURVE",
"312 828 OFFCURVE",
"305 840 CURVE SMOOTH",
"299 849 OFFCURVE",
"282 838 OFFCURVE",
"272 835 CURVE SMOOTH",
"205 813 LINE SMOOTH",
"183 806 OFFCURVE",
"165 789 OFFCURVE",
"145 775 CURVE SMOOTH",
"109 747 LINE SMOOTH",
"73 717 OFFCURVE",
"179 734 OFFCURVE",
"185 732 CURVE SMOOTH",
"228 721 OFFCURVE",
"209 617 OFFCURVE",
"209 586 CURVE SMOOTH",
"209 508 OFFCURVE",
"219 431 OFFCURVE",
"221 352 CURVE",
"159 273 LINE SMOOTH",
"125 229 OFFCURVE",
"85 193 OFFCURVE",
"52 149 CURVE SMOOTH",
"22 110 OFFCURVE",
"-15 64 OFFCURVE",
"-50 32 CURVE SMOOTH",
"-61 23 OFFCURVE",
"-129 -13 OFFCURVE",
"-121 -33 CURVE"
);
}
);
width = 613;
}
);
note = G;
unicode = 0047;
},
{
glyphname = H;
lastChange = "2021-12-30 14:01:40 +0000";
layers = (
{
hints = (
{
horizontal = 1;
place = "{-204, 119}";
type = Stem;
},
{
place = "{137, 128}";
type = Stem;
},
{
place = "{649, 130}";
type = Stem;
},
{
place = "{648, 127}";
type = Stem;
}
);
layerId = "A3F1973E-A54C-4051-9E3B-DFD359A8ED51";
paths = (
{
closed = 1;
nodes = (
"167 -43 OFFCURVE",
"189 -20 OFFCURVE",
"222 11 CURVE SMOOTH",
"240 28 OFFCURVE",
"308 74 OFFCURVE",
"262 74 CURVE SMOOTH",
"224 74 OFFCURVE",
"226 177 OFFCURVE",
"219 339 CURVE",
"221 381 OFFCURVE",
"308 322 OFFCURVE",
"344 303 CURVE SMOOTH",
"437 256 OFFCURVE",
"502 225 OFFCURVE",
"580 192 CURVE SMOOTH",
"640 166 OFFCURVE",
"650 163 OFFCURVE",
"649 132 CURVE SMOOTH",
"649 97 OFFCURVE",
"656 17 OFFCURVE",
"643 -25 CURVE SMOOTH",
"632 -58 OFFCURVE",
"699 -39 OFFCURVE",
"714 -36 CURVE SMOOTH",
"763 -27 OFFCURVE",
"810 27 OFFCURVE",
"754 29 CURVE",
"735 26 OFFCURVE",
"726 49 OFFCURVE",
"727 85 CURVE SMOOTH",
"729 172 LINE SMOOTH",
"731 293 OFFCURVE",
"732 416 OFFCURVE",
"733 535 CURVE SMOOTH",
"734 647 LINE SMOOTH",
"734 679 OFFCURVE",
"734 708 OFFCURVE",
"736 738 CURVE SMOOTH",
"739 802 LINE SMOOTH",
"740 822 OFFCURVE",
"752 847 OFFCURVE",
"723 855 CURVE SMOOTH",
"704 861 OFFCURVE",
"554 829 OFFCURVE",
"598 803 CURVE",
"610 794 OFFCURVE",
"622 794 OFFCURVE",
"634 762 CURVE SMOOTH",
"645 735 OFFCURVE",
"649 702 OFFCURVE",
"649 672 CURVE SMOOTH",
"649 565 LINE SMOOTH",
"649 532 OFFCURVE",
"655 462 OFFCURVE",
"638 467 CURVE SMOOTH",
"623 473 LINE SMOOTH",
"608 479 OFFCURVE",
"489 544 OFFCURVE",
"418 581 CURVE SMOOTH",
"308 638 LINE SMOOTH",
"284 650 OFFCURVE",
"234 669 OFFCURVE",
"225 695 CURVE SMOOTH",
"222 703 OFFCURVE",
"220 715 OFFCURVE",
"220 724 CURVE SMOOTH",
"219 768 LINE SMOOTH",
"218 793 OFFCURVE",
"230 819 OFFCURVE",
"233 840 CURVE SMOOTH",
"235 856 OFFCURVE",
"231 861 OFFCURVE",
"210 853 CURVE SMOOTH",
"180 843 OFFCURVE",
"156 822 OFFCURVE",
"125 811 CURVE SMOOTH",
"108 804 OFFCURVE",
"52 798 OFFCURVE",
"65 771 CURVE SMOOTH",
"78 745 OFFCURVE",
"118 762 OFFCURVE",
"134 737 CURVE SMOOTH",
"147 716 OFFCURVE",
"137 691 OFFCURVE",
"140 671 CURVE SMOOTH",
"146 639 OFFCURVE",
"137 607 OFFCURVE",
"137 574 CURVE SMOOTH",
"137 350 LINE SMOOTH",
"137 232 OFFCURVE",
"144 115 OFFCURVE",
"140 -1 CURVE SMOOTH",
"138 -56 OFFCURVE",
"144 -75 OFFCURVE",
"155 -59 CURVE SMOOTH"
);
},
{
closed = 1;
nodes = (
"647 229 OFFCURVE",
"536 275 OFFCURVE",
"509 288 CURVE SMOOTH",
"458 314 OFFCURVE",
"415 343 OFFCURVE",
"365 368 CURVE SMOOTH",
"288 409 LINE SMOOTH",
"269 419 OFFCURVE",
"224 423 OFFCURVE",
"220 469 CURVE",
"220 544 LINE SMOOTH",
"220 556 OFFCURVE",
"217 600 OFFCURVE",
"234 587 CURVE",
"344 520 OFFCURVE",
"443 460 OFFCURVE",
"598 385 CURVE SMOOTH",
"643 362 LINE SMOOTH",
"650 359 OFFCURVE",
"650 347 OFFCURVE",
"649 328 CURVE SMOOTH",
"647 277 LINE",
"647 255 LINE SMOOTH"
);
}
);
width = 843;
}
);
note = H;
unicode = 0048;
},
{
glyphname = I;
lastChange = "2021-12-30 14:01:41 +0000";
layers = (
{
hints = (
{
horizontal = 1;
place = "{544, 140}";
type = Stem;
},
{
place = "{133, 106}";
type = Stem;
}
);
layerId = "A3F1973E-A54C-4051-9E3B-DFD359A8ED51";
paths = (
{
closed = 1;
nodes = (
"114 -44 OFFCURVE",
"144 -36 OFFCURVE",
"202 -20 CURVE SMOOTH",
"271 -1 OFFCURVE",
"322 44 OFFCURVE",
"265 44 CURVE SMOOTH",
"205 44 OFFCURVE",
"221 107 OFFCURVE",
"221 179 CURVE SMOOTH",
"221 297 OFFCURVE",
"221 415 OFFCURVE",
"223 531 CURVE SMOOTH",
"227 643 LINE SMOOTH",
"227 684 OFFCURVE",
"221 727 OFFCURVE",
"231 769 CURVE SMOOTH",
"236 788 OFFCURVE",
"274 824 OFFCURVE",
"257 842 CURVE SMOOTH",
"233 866 OFFCURVE",
"152 842 OFFCURVE",
"90 807 CURVE",
"77 798 OFFCURVE",
"48 772 OFFCURVE",
"37 742 CURVE SMOOTH",
"26 704 OFFCURVE",
"67 754 OFFCURVE",
"90 758 CURVE SMOOTH",
"140 765 OFFCURVE",
"134 715 OFFCURVE",
"134 666 CURVE SMOOTH",
"134 117 LINE SMOOTH",
"134 90 OFFCURVE",
"134 61 OFFCURVE",
"125 33 CURVE SMOOTH",
"113 -6 LINE SMOOTH",
"106 -29 OFFCURVE",
"105 -42 OFFCURVE",
"109 -44 CURVE"
);
}
);
width = 325;
}
);
note = I;
unicode = 0049;
},
{
glyphname = J;
lastChange = "2021-12-30 14:01:41 +0000";
layers = (
{
hints = (
{
horizontal = 1;
place = "{-221, 942}";
type = Stem;
},
{
place = "{242, 108}";
type = Stem;
},
{
place = "{460, 84}";
type = Stem;
},
{
place = "{251, 107}";
type = Stem;
}
);
layerId = "A3F1973E-A54C-4051-9E3B-DFD359A8ED51";
paths = (
{
closed = 1;
nodes = (
"177 -58 OFFCURVE",
"223 -38 OFFCURVE",
"290 -38 CURVE SMOOTH",
"394 -38 OFFCURVE",
"319 -28 OFFCURVE",
"319 4 CURVE SMOOTH",
"319 62 OFFCURVE",
"321 162 OFFCURVE",
"321 189 CURVE",
"351 229 OFFCURVE",
"464 365 OFFCURVE",
"475 377 CURVE",
"512 426 LINE",
"531 441 OFFCURVE",
"448 498 OFFCURVE",
"373 571 CURVE SMOOTH",
"334 609 LINE",
"334 784 LINE SMOOTH",
"334 924 OFFCURVE",
"277 845 OFFCURVE",
"223 811 CURVE SMOOTH",
"167 775 OFFCURVE",
"239 794 OFFCURVE",
"247 737 CURVE SMOOTH",
"253 695 OFFCURVE",
"251 640 OFFCURVE",
"251 600 CURVE",
"163 511 OFFCURVE",
"177 525 OFFCURVE",
"54 413 CURVE",
"19 394 OFFCURVE",
"168 264 OFFCURVE",
"243 188 CURVE",
"243 80 LINE SMOOTH",
"243 33 OFFCURVE",
"230 -10 OFFCURVE",
"197 -40 CURVE SMOOTH"
);
},
{
closed = 1;
nodes = (
"203 331 LINE SMOOTH",
"156 372 OFFCURVE",
"98 418 OFFCURVE",
"111 428 CURVE SMOOTH",
"178 481 OFFCURVE",
"193 508 OFFCURVE",
"251 550 CURVE",
"251 288 LINE"
);
},
{
closed = 1;
nodes = (
"326 444 OFFCURVE",
"326 516 OFFCURVE",
"329 521 CURVE",
"394 460 LINE SMOOTH",
"445 413 OFFCURVE",
"474 404 OFFCURVE",
"456 377 CURVE",
"326 246 LINE"
);
}
);
width = 563;
}
);
note = J;
unicode = 004A;
},
{
glyphname = K;
lastChange = "2021-12-30 14:01:41 +0000";
layers = (
{
hints = (
{
horizontal = 1;
place = "{262, 68}";
type = Stem;
},
{
place = "{71, 98}";
type = Stem;
},
{
place = "{308, 114}";
type = Stem;
},
{
place = "{568, 100}";
type = Stem;
}
);
layerId = "A3F1973E-A54C-4051-9E3B-DFD359A8ED51";
paths = (
{
closed = 1;
nodes = (
"148 -9 OFFCURVE",
"171 31 OFFCURVE",
"143 19 CURVE SMOOTH",
"122 11 OFFCURVE",
"131 125 OFFCURVE",
"131 227 CURVE SMOOTH",
"131 294 OFFCURVE",
"125 297 OFFCURVE",
"176 339 CURVE SMOOTH",
"245 397 OFFCURVE",
"307 446 OFFCURVE",
"307 417 CURVE SMOOTH",
"307 154 LINE SMOOTH",
"307 91 OFFCURVE",
"315 40 OFFCURVE",
"287 -9 CURVE",
"265 -30 OFFCURVE",
"297 -18 OFFCURVE",
"364 -18 CURVE SMOOTH",
"383 -18 OFFCURVE",
"413 -18 OFFCURVE",
"400 -8 CURVE",
"383 17 OFFCURVE",
"387 25 OFFCURVE",
"387 51 CURVE SMOOTH",
"387 262 LINE",
"383 309 OFFCURVE",
"383 337 OFFCURVE",
"383 387 CURVE SMOOTH",
"383 428 OFFCURVE",
"420 409 OFFCURVE",
"465 378 CURVE SMOOTH",
"553 319 OFFCURVE",
"559 311 OFFCURVE",
"563 287 CURVE SMOOTH",
"567 268 OFFCURVE",
"568 152 OFFCURVE",
"568 130 CURVE SMOOTH",
"568 40 OFFCURVE",
"585 40 OFFCURVE",
"545 -2 CURVE SMOOTH",
"512 -36 OFFCURVE",
"593 -18 OFFCURVE",
"622 -2 CURVE SMOOTH",
"639 7 OFFCURVE",
"630 69 OFFCURVE",
"630 107 CURVE SMOOTH",
"630 310 LINE SMOOTH",
"630 351 OFFCURVE",
"413 457 OFFCURVE",
"383 467 CURVE",
"383 754 LINE SMOOTH",
"383 784 OFFCURVE",
"383 822 OFFCURVE",
"374 854 CURVE SMOOTH",
"364 893 OFFCURVE",
"320 846 OFFCURVE",
"298 828 CURVE",
"265 794 OFFCURVE",
"255 784 OFFCURVE",
"267 776 CURVE",
"274 763 OFFCURVE",
"287 773 OFFCURVE",
"299 761 CURVE SMOOTH",
"311 749 OFFCURVE",
"307 743 OFFCURVE",
"311 727 CURVE",
"307 635 OFFCURVE",
"307 536 OFFCURVE",
"307 457 CURVE",
"249 428 OFFCURVE",
"233 409 OFFCURVE",
"176 370 CURVE SMOOTH",
"133 341 OFFCURVE",
"141 346 OFFCURVE",
"91 309 CURVE SMOOTH",
"70 294 OFFCURVE",
"70 288 OFFCURVE",
"70 259 CURVE SMOOTH",
"70 19 LINE SMOOTH",
"70 -9 OFFCURVE",
"21 -34 OFFCURVE",
"101 -18 CURVE SMOOTH"
);
}
);
width = 688;
}
);
note = K;
unicode = 004B;
},
{
glyphname = L;
lastChange = "2021-12-30 14:01:41 +0000";
layers = (
{
hints = (
{
horizontal = 1;
place = "{365, 116}";
type = Stem;
},
{
horizontal = 1;
place = "{584, 126}";
type = Stem;
},
{
place = "{197, 133}";
type = Stem;
},
{
place = "{491, 169}";
type = Stem;
}
);
layerId = "A3F1973E-A54C-4051-9E3B-DFD359A8ED51";
paths = (
{
closed = 1;
nodes = (
"23 -67 OFFCURVE",
"355 -26 OFFCURVE",
"317 9 CURVE",
"292 40 OFFCURVE",
"294 127 OFFCURVE",
"294 165 CURVE SMOOTH",
"294 289 OFFCURVE",
"292 385 OFFCURVE",
"286 502 CURVE SMOOTH",
"278 640 LINE SMOOTH",
"277 670 OFFCURVE",
"257 749 OFFCURVE",
"295 749 CURVE SMOOTH",
"361 749 OFFCURVE",
"418 724 OFFCURVE",
"487 603 CURVE SMOOTH",
"503 576 OFFCURVE",
"478 569 OFFCURVE",
"468 560 CURVE SMOOTH",
"423 518 OFFCURVE",
"470 525 OFFCURVE",
"532 554 CURVE SMOOTH",
"562 569 OFFCURVE",
"659 610 OFFCURVE",
"611 610 CURVE SMOOTH",
"542 610 OFFCURVE",
"588 613 OFFCURVE",
"471 764 CURVE SMOOTH",
"400 856 OFFCURVE",
"360 832 OFFCURVE",
"284 839 CURVE SMOOTH",
"191 846 OFFCURVE",
"142 840 OFFCURVE",
"126 836 CURVE SMOOTH",
"99 829 OFFCURVE",
"40 814 OFFCURVE",
"58 782 CURVE SMOOTH",
"69 763 OFFCURVE",
"95 760 OFFCURVE",
"122 757 CURVE SMOOTH",
"178 749 OFFCURVE",
"198 708 OFFCURVE",
"198 658 CURVE SMOOTH",
"198 100 LINE SMOOTH",
"198 73 OFFCURVE",
"202 5 OFFCURVE",
"153 -14 CURVE SMOOTH",
"113 -31 LINE SMOOTH"
);
}
);
width = 679;
}
);
note = L;
unicode = 004C;
},
{
glyphname = M;
lastChange = "2021-12-30 14:01:37 +0000";
layers = (
{
hints = (
{
horizontal = 1;
place = "{-181, 101}";
type = Stem;
},
{
place = "{136, 129}";
type = Stem;
},
{
place = "{751, 133}";
type = Stem;
},
{
place = "{743, 140}";
type = Stem;
}
);
layerId = "A3F1973E-A54C-4051-9E3B-DFD359A8ED51";
paths = (
{
closed = 1;
nodes = (
"92 -34 OFFCURVE",
"125 -32 OFFCURVE",
"175 -24 CURVE SMOOTH",
"259 -10 OFFCURVE",
"339 18 OFFCURVE",
"262 18 CURVE",
"192 7 OFFCURVE",
"213 142 OFFCURVE",
"213 159 CURVE SMOOTH",
"213 168 OFFCURVE",
"218 180 OFFCURVE",
"226 190 CURVE SMOOTH",
"256 229 OFFCURVE",
"290 285 OFFCURVE",
"328 319 CURVE SMOOTH",
"437 418 LINE",
"494 363 OFFCURVE",
"543 308 OFFCURVE",
"603 242 CURVE SMOOTH",
"719 114 OFFCURVE",
"800 40 OFFCURVE",
"717 40 CURVE SMOOTH",
"687 40 OFFCURVE",
"752 -9 OFFCURVE",
"800 -28 CURVE SMOOTH",
"823 -37 OFFCURVE",
"904 -19 OFFCURVE",
"869 7 CURVE SMOOTH",
"848 24 OFFCURVE",
"832 49 OFFCURVE",
"832 86 CURVE SMOOTH",
"832 174 LINE SMOOTH",
"832 298 OFFCURVE",
"829 418 OFFCURVE",
"831 542 CURVE SMOOTH",
"832 656 LINE SMOOTH",
"833 687 OFFCURVE",
"830 717 OFFCURVE",
"832 748 CURVE SMOOTH",
"837 811 LINE SMOOTH",
"839 831 OFFCURVE",
"848 859 OFFCURVE",
"819 867 CURVE SMOOTH",
"781 878 OFFCURVE",
"621 779 OFFCURVE",
"694 801 CURVE",
"717 794 OFFCURVE",
"727 796 OFFCURVE",
"738 769 CURVE SMOOTH",
"741 762 OFFCURVE",
"737 771 OFFCURVE",
"717 750 CURVE SMOOTH",
"662 690 OFFCURVE",
"597 628 OFFCURVE",
"528 551 CURVE SMOOTH",
"513 534 OFFCURVE",
"499 516 OFFCURVE",
"483 501 CURVE",
"434 552 LINE SMOOTH",
"409 579 OFFCURVE",
"380 607 OFFCURVE",
"356 635 CURVE SMOOTH",
"278 726 LINE SMOOTH",
"261 746 OFFCURVE",
"246 791 OFFCURVE",
"224 812 CURVE",
"228 828 OFFCURVE",
"224 845 OFFCURVE",
"205 841 CURVE SMOOTH",
"121 826 OFFCURVE",
"57 812 OFFCURVE",
"71 779 CURVE SMOOTH",
"80 759 OFFCURVE",
"103 765 OFFCURVE",
"115 744 CURVE SMOOTH",
"143 690 OFFCURVE",
"137 616 OFFCURVE",
"137 561 CURVE SMOOTH",
"136 263 LINE SMOOTH",
"136 146 OFFCURVE",
"140 21 OFFCURVE",
"97 0 CURVE SMOOTH",
"69 -13 OFFCURVE",
"63 -22 OFFCURVE",
"77 -28 CURVE SMOOTH"
);
},
{
closed = 1;
nodes = (
"215 312 LINE",
"218 549 LINE SMOOTH",
"218 574 OFFCURVE",
"216 599 OFFCURVE",
"218 623 CURVE",
"259 593 LINE SMOOTH",
"319 549 OFFCURVE",
"363 491 OFFCURVE",
"413 441 CURVE",
"316 350 LINE SMOOTH",
"281 317 OFFCURVE",
"247 280 OFFCURVE",
"215 245 CURVE"
);
},
{
closed = 1;
nodes = (
"733 226 LINE SMOOTH",
"716 231 OFFCURVE",
"697 257 OFFCURVE",
"683 270 CURVE SMOOTH",
"611 337 OFFCURVE",
"571 409 OFFCURVE",
"505 479 CURVE",
"539 516 LINE SMOOTH",
"617 598 OFFCURVE",
"658 663 OFFCURVE",
"744 737 CURVE",
"746 718 OFFCURVE",
"744 698 OFFCURVE",
"744 679 CURVE SMOOTH",
"744 570 LINE SMOOTH",
"744 495 OFFCURVE",
"746 418 OFFCURVE",
"747 344 CURVE SMOOTH",
"749 221 LINE"
);
}
);
width = 947;
}
);
note = M;
unicode = 004D;
},
{
glyphname = N;
lastChange = "2021-12-30 14:01:40 +0000";
layers = (
{
hints = (
{
horizontal = 1;
place = "{-204, 948}";
type = Stem;
},
{
place = "{419, 136}";
type = Stem;
},
{
place = "{421, 142}";
type = Stem;
}
);
layerId = "A3F1973E-A54C-4051-9E3B-DFD359A8ED51";
paths = (
{
closed = 1;
nodes = (
"429 -42 OFFCURVE",
"466 -38 OFFCURVE",
"514 -32 CURVE SMOOTH",
"561 -27 OFFCURVE",
"580 -9 OFFCURVE",
"574 21 CURVE",
"507 -2 OFFCURVE",
"504 64 OFFCURVE",
"505 118 CURVE SMOOTH",
"506 210 LINE SMOOTH",
"507 274 OFFCURVE",
"508 338 OFFCURVE",
"508 402 CURVE SMOOTH",
"508 413 LINE",
"532 399 OFFCURVE",
"556 388 OFFCURVE",
"578 369 CURVE SMOOTH",
"610 342 OFFCURVE",
"670 335 OFFCURVE",
"670 290 CURVE SMOOTH",
"670 279 OFFCURVE",
"657 280 OFFCURVE",
"668 269 CURVE SMOOTH",
"673 264 OFFCURVE",
"683 264 OFFCURVE",
"691 265 CURVE SMOOTH",
"705 266 OFFCURVE",
"719 274 OFFCURVE",
"735 280 CURVE SMOOTH",
"754 287 OFFCURVE",
"775 303 OFFCURVE",
"787 318 CURVE SMOOTH",
"792 323 OFFCURVE",
"810 342 OFFCURVE",
"806 350 CURVE SMOOTH",
"800 364 OFFCURVE",
"780 350 OFFCURVE",
"767 349 CURVE SMOOTH",
"723 347 OFFCURVE",
"686 370 OFFCURVE",
"650 394 CURVE SMOOTH",
"608 421 OFFCURVE",
"567 445 OFFCURVE",
"522 471 CURVE SMOOTH",
"508 479 LINE",
"511 540 OFFCURVE",
"517 602 OFFCURVE",
"515 666 CURVE SMOOTH",
"514 700 OFFCURVE",
"524 737 OFFCURVE",
"526 772 CURVE SMOOTH",
"528 804 OFFCURVE",
"540 866 OFFCURVE",
"498 851 CURVE SMOOTH",
"468 840 OFFCURVE",
"435 833 OFFCURVE",
"407 822 CURVE SMOOTH",
"386 813 OFFCURVE",
"342 808 OFFCURVE",
"328 791 CURVE",
"363 752 OFFCURVE",
"424 764 OFFCURVE",
"421 693 CURVE SMOOTH",
"419 640 OFFCURVE",
"419 584 OFFCURVE",
"421 528 CURVE",
"283 614 LINE SMOOTH",
"257 631 OFFCURVE",
"229 651 OFFCURVE",
"206 672 CURVE SMOOTH",
"198 679 OFFCURVE",
"192 693 OFFCURVE",
"182 699 CURVE SMOOTH",
"157 713 OFFCURVE",
"103 697 OFFCURVE",
"81 683 CURVE SMOOTH",
"73 677 OFFCURVE",
"60 662 OFFCURVE",
"67 651 CURVE SMOOTH",
"73 641 OFFCURVE",
"96 648 OFFCURVE",
"108 646 CURVE SMOOTH",
"141 641 OFFCURVE",
"173 613 OFFCURVE",
"204 594 CURVE SMOOTH",
"421 464 LINE",
"418 274 LINE SMOOTH",
"417 216 OFFCURVE",
"420 183 OFFCURVE",
"414 94 CURVE SMOOTH",
"412 73 OFFCURVE",
"407 43 OFFCURVE",
"403 21 CURVE SMOOTH",
"394 -31 OFFCURVE",
"350 -54 OFFCURVE",
"399 -46 CURVE SMOOTH"
);
}
);
width = 872;
}
);
note = N;
unicode = 004E;
},
{
glyphname = O;
lastChange = "2021-12-30 14:01:40 +0000";
layers = (
{
hints = (
{
horizontal = 1;
place = "{2, 112}";
type = Stem;
},
{
horizontal = 1;
place = "{297, 90}";
type = Stem;
},
{
horizontal = 1;
place = "{381, 136}";
type = Stem;
},
{
horizontal = 1;
place = "{640, 74}";
type = Stem;
},
{
place = "{120, 107}";
type = Stem;
},
{
place = "{133, 112}";
type = Stem;
},
{
place = "{389, 187}";
type = Stem;
}
);
layerId = "A3F1973E-A54C-4051-9E3B-DFD359A8ED51";
paths = (
{
closed = 1;
nodes = (
"268 -5 OFFCURVE",
"192 -14 OFFCURVE",
"194 31 CURVE SMOOTH",
"195 71 OFFCURVE",
"195 117 OFFCURVE",
"195 153 CURVE SMOOTH",
"195 201 OFFCURVE",
"191 247 OFFCURVE",
"191 293 CURVE SMOOTH",
"191 306 OFFCURVE",
"193 346 OFFCURVE",
"207 349 CURVE SMOOTH",
"227 354 OFFCURVE",
"250 307 OFFCURVE",
"260 291 CURVE SMOOTH",
"330 167 OFFCURVE",
"293 174 OFFCURVE",
"348 174 CURVE SMOOTH",
"363 174 OFFCURVE",
"395 172 OFFCURVE",
"402 204 CURVE SMOOTH",
"416 264 LINE SMOOTH",
"432 337 OFFCURVE",
"451 373 OFFCURVE",
"471 408 CURVE SMOOTH",
"498 456 OFFCURVE",
"518 508 OFFCURVE",
"509 523 CURVE SMOOTH",
"495 546 OFFCURVE",
"330 452 OFFCURVE",
"396 461 CURVE",
"411 466 OFFCURVE",
"465 505 OFFCURVE",
"411 365 CURVE SMOOTH",
"383 294 OFFCURVE",
"388 254 OFFCURVE",
"361 254 CURVE SMOOTH",
"351 254 OFFCURVE",
"322 321 OFFCURVE",
"317 330 CURVE SMOOTH",
"299 362 OFFCURVE",
"287 399 OFFCURVE",
"253 442 CURVE SMOOTH",
"223 481 OFFCURVE",
"212 477 OFFCURVE",
"212 525 CURVE SMOOTH",
"212 601 OFFCURVE",
"202 782 OFFCURVE",
"227 764 CURVE SMOOTH",
"252 746 OFFCURVE",
"274 697 OFFCURVE",
"309 650 CURVE SMOOTH",
"378 557 OFFCURVE",
"378 537 OFFCURVE",
"404 567 CURVE SMOOTH",
"432 601 OFFCURVE",
"449 663 OFFCURVE",
"463 706 CURVE SMOOTH",
"473 737 LINE SMOOTH",
"478 754 OFFCURVE",
"496 809 OFFCURVE",
"508 822 CURVE",
"539 849 OFFCURVE",
"568 880 OFFCURVE",
"509 863 CURVE SMOOTH",
"455 846 OFFCURVE",
"457 863 OFFCURVE",
"401 838 CURVE",
"355 806 OFFCURVE",
"457 846 OFFCURVE",
"430 737 CURVE SMOOTH",
"424 717 OFFCURVE",
"398 635 OFFCURVE",
"382 663 CURVE",
"355 699 OFFCURVE",
"343 725 OFFCURVE",
"317 774 CURVE SMOOTH",
"303 800 OFFCURVE",
"276 853 OFFCURVE",
"245 858 CURVE SMOOTH",
"216 863 OFFCURVE",
"190 854 OFFCURVE",
"148 854 CURVE SMOOTH",
"120 854 OFFCURVE",
"76 826 OFFCURVE",
"54 809 CURVE",
"34 787 OFFCURVE",
"94 828 OFFCURVE",
"114 804 CURVE SMOOTH",
"128 788 OFFCURVE",
"128 765 OFFCURVE",
"129 740 CURVE SMOOTH",
"138 616 OFFCURVE",
"131 494 OFFCURVE",
"128 371 CURVE SMOOTH",
"124 256 OFFCURVE",
"125 183 OFFCURVE",
"120 9 CURVE SMOOTH",
"118 -46 OFFCURVE",
"28 -81 OFFCURVE",
"194 -29 CURVE SMOOTH"
);
}
);
width = 593;
}
);
note = O;
unicode = 004F;
},
{
glyphname = P;
lastChange = "2021-12-30 14:01:37 +0000";
layers = (
{
hints = (
{
horizontal = 1;
place = "{-26, 82}";
type = Stem;
},
{
horizontal = 1;
place = "{471, 112}";
type = Stem;
},
{
horizontal = 1;
place = "{683, 62}";
type = Stem;
},
{
place = "{109, 99}";
type = Stem;
},
{
place = "{389, 81}";
type = Stem;
},
{
place = "{378, 79}";
type = Stem;
}
);
layerId = "A3F1973E-A54C-4051-9E3B-DFD359A8ED51";
paths = (
{
closed = 1;
nodes = (
"357 -56 OFFCURVE",
"468 -50 OFFCURVE",
"453 -15 CURVE SMOOTH",
"433 27 OFFCURVE",
"446 151 OFFCURVE",
"446 194 CURVE SMOOTH",
"446 242 OFFCURVE",
"243 85 OFFCURVE",
"179 55 CURVE",
"179 151 OFFCURVE",
"179 742 OFFCURVE",
"195 795 CURVE",
"286 722 LINE SMOOTH",
"332 685 OFFCURVE",
"339 632 OFFCURVE",
"409 651 CURVE SMOOTH",
"454 663 OFFCURVE",
"395 890 OFFCURVE",
"478 855 CURVE",
"535 846 OFFCURVE",
"377 923 OFFCURVE",
"376 874 CURVE SMOOTH",
"373 775 OFFCURVE",
"388 710 OFFCURVE",
"364 735 CURVE SMOOTH",
"324 776 OFFCURVE",
"213 884 OFFCURVE",
"168 867 CURVE SMOOTH",
"65 828 LINE",
"6 784 OFFCURVE",
"108 811 OFFCURVE",
"108 656 CURVE SMOOTH",
"108 258 LINE",
"99 4 OFFCURVE",
"50 0 OFFCURVE",
"108 -26 CURVE SMOOTH",
"133 -37 OFFCURVE",
"136 0 OFFCURVE",
"183 30 CURVE SMOOTH",
"420 184 OFFCURVE",
"388 167 OFFCURVE",
"389 105 CURVE SMOOTH",
"390 48 OFFCURVE",
"391 -1 OFFCURVE",
"371 -33 CURVE SMOOTH"
);
}
);
width = 537;
}
);
note = P;
unicode = 0050;
},
{
glyphname = Thorn;
lastChange = "2021-12-30 14:01:37 +0000";
layers = (
{
hints = (
{
horizontal = 1;
place = "{-200, 904}";
type = Stem;
},
{
place = "{131, 99}";
type = Stem;
}
);
layerId = "A3F1973E-A54C-4051-9E3B-DFD359A8ED51";
paths = (
{
closed = 1;
nodes = (
"58 -44 OFFCURVE",
"165 -9 OFFCURVE",
"183 -4 CURVE SMOOTH",
"213 5 OFFCURVE",
"241 3 OFFCURVE",
"223 22 CURVE SMOOTH",
"192 52 OFFCURVE",
"196 70 OFFCURVE",
"199 120 CURVE SMOOTH",
"200 164 OFFCURVE",
"201 179 OFFCURVE",
"203 228 CURVE",
"265 285 LINE SMOOTH",
"292 310 OFFCURVE",
"310 329 OFFCURVE",
"387 408 CURVE SMOOTH",
"425 448 OFFCURVE",
"453 469 OFFCURVE",
"440 479 CURVE SMOOTH",
"358 549 OFFCURVE",
"323 578 OFFCURVE",
"205 664 CURVE",
"206 770 LINE SMOOTH",
"207 827 OFFCURVE",
"227 868 OFFCURVE",
"173 841 CURVE SMOOTH",
"146 828 OFFCURVE",
"121 815 OFFCURVE",
"95 800 CURVE SMOOTH",
"85 794 OFFCURVE",
"63 785 OFFCURVE",
"63 770 CURVE SMOOTH",
"64 734 OFFCURVE",
"135 814 OFFCURVE",
"128 597 CURVE SMOOTH",
"126 463 OFFCURVE",
"131 422 OFFCURVE",
"131 178 CURVE SMOOTH",
"131 90 OFFCURVE",
"142 6 OFFCURVE",
"98 -20 CURVE SMOOTH"
);
},
{
closed = 1;
nodes = (
"202 370 LINE SMOOTH",
"202 424 OFFCURVE",
"204 459 OFFCURVE",
"206 578 CURVE",
"282 523 OFFCURVE",
"357 456 OFFCURVE",
"381 439 CURVE",
"394 422 OFFCURVE",
"347 390 OFFCURVE",
"296 341 CURVE SMOOTH",
"201 251 LINE"
);
}
);
width = 506;
}
);
note = Thorn;
unicode = 00DE;
},
{
glyphname = R;
lastChange = "2021-12-30 14:01:40 +0000";
layers = (
{
hints = (
{
horizontal = 1;
place = "{293, 95}";
type = Stem;
},
{
horizontal = 1;
place = "{609, 104}";
type = Stem;
},
{
place = "{163, 114}";
type = Stem;
},
{
place = "{423, 88}";
type = Stem;
},
{
horizontal = 1;
place = "{272, 83}";
type = Stem;
},
{
place = "{466, 97}";
type = Stem;
}
);
layerId = "A3F1973E-A54C-4051-9E3B-DFD359A8ED51";
paths = (
{
closed = 1;
nodes = (
"120 -71 OFFCURVE",
"206 -46 OFFCURVE",
"228 -32 CURVE",
"287 -5 LINE",
"335 32 OFFCURVE",
"262 15 OFFCURVE",
"251 27 CURVE SMOOTH",
"237 42 OFFCURVE",
"241 73 OFFCURVE",
"243 91 CURVE",
"241 311 LINE SMOOTH",
"241 338 OFFCURVE",
"231 440 OFFCURVE",
"259 440 CURVE",
"287 450 OFFCURVE",
"314 450 OFFCURVE",
"335 450 CURVE SMOOTH",
"380 450 OFFCURVE",
"395 468 OFFCURVE",
"437 459 CURVE SMOOTH",
"465 455 OFFCURVE",
"461 415 OFFCURVE",
"461 394 CURVE SMOOTH",
"461 360 OFFCURVE",
"467 329 OFFCURVE",
"467 294 CURVE SMOOTH",
"467 240 OFFCURVE",
"467 185 OFFCURVE",
"469 131 CURVE SMOOTH",
"469 97 OFFCURVE",
"449 13 OFFCURVE",
"508 26 CURVE SMOOTH",
"612 50 OFFCURVE",
"641 97 OFFCURVE",
"584 69 CURVE",
"557 69 OFFCURVE",
"543 73 OFFCURVE",
"534 107 CURVE SMOOTH",
"527 132 OFFCURVE",
"531 158 OFFCURVE",
"528 186 CURVE",
"525 281 OFFCURVE",
"528 376 OFFCURVE",
"521 469 CURVE SMOOTH",
"519 533 OFFCURVE",
"462 526 OFFCURVE",
"392 513 CURVE",
"444 581 OFFCURVE",
"521 717 OFFCURVE",
"439 812 CURVE",
"371 866 OFFCURVE",
"343 838 OFFCURVE",
"241 838 CURVE",
"204 848 OFFCURVE",
"185 848 OFFCURVE",
"157 838 CURVE",
"120 821 OFFCURVE",
"75 821 OFFCURVE",
"55 783 CURVE",
"47 756 OFFCURVE",
"83 802 OFFCURVE",
"141 772 CURVE",
"166 750 OFFCURVE",
"161 674 OFFCURVE",
"163 643 CURVE",
"157 643 OFFCURVE",
"166 59 OFFCURVE",
"164 67 CURVE",
"166 29 OFFCURVE",
"176 -15 OFFCURVE",
"148 -48 CURVE"
);
},
{
closed = 1;
nodes = (
"231 588 OFFCURVE",
"231 691 OFFCURVE",
"241 793 CURVE",
"241 802 OFFCURVE",
"314 783 OFFCURVE",
"335 783 CURVE",
"390 756 OFFCURVE",
"404 715 OFFCURVE",
"420 666 CURVE",
"428 618 OFFCURVE",
"422 586 OFFCURVE",
"405 571 CURVE SMOOTH",
"387 556 OFFCURVE",
"367 538 OFFCURVE",
"345 519 CURVE",
"320 504 OFFCURVE",
"267 486 OFFCURVE",
"239 486 CURVE"
);
}
);
width = 667;
}
);
note = R;
unicode = 0052;
},
{
glyphname = S;
lastChange = "2021-12-30 14:01:40 +0000";
layers = (
{
hints = (
{
horizontal = 1;
place = "{-242, 44}";
type = Stem;
},
{
horizontal = 1;
place = "{607, 108}";
type = Stem;
},
{
place = "{256, 113}";
type = Stem;
},
{
place = "{462, 117}";
type = Stem;
},
{
horizontal = 1;
place = "{-231, 45}";
type = Stem;
}
);
layerId = "A3F1973E-A54C-4051-9E3B-DFD359A8ED51";
paths = (
{
closed = 1;
nodes = (
"314 -83 OFFCURVE",
"416 -60 OFFCURVE",
"457 -59 CURVE SMOOTH",
"549 -60 OFFCURVE",
"621 -60 OFFCURVE",
"570 -50 CURVE",
"549 -41 OFFCURVE",
"537 -50 OFFCURVE",
"521 -34 CURVE SMOOTH",
"512 -24 OFFCURVE",
"516 -4 OFFCURVE",
"516 8 CURVE SMOOTH",
"518 30 OFFCURVE",
"520 51 OFFCURVE",
"520 72 CURVE SMOOTH",
"520 122 OFFCURVE",
"526 170 OFFCURVE",
"526 220 CURVE SMOOTH",
"526 328 OFFCURVE",
"537 434 OFFCURVE",
"544 544 CURVE SMOOTH",
"544 566 OFFCURVE",
"554 637 OFFCURVE",
"518 610 CURVE",
"486 580 OFFCURVE",
"452 559 OFFCURVE",
"414 535 CURVE",
"407 532 OFFCURVE",
"322 457 OFFCURVE",
"334 504 CURVE",
"332 557 OFFCURVE",
"334 606 OFFCURVE",
"344 668 CURVE",
"344 700 OFFCURVE",
"344 729 OFFCURVE",
"353 762 CURVE",
"356 783 OFFCURVE",
"384 826 OFFCURVE",
"372 846 CURVE",
"355 863 OFFCURVE",
"355 863 OFFCURVE",
"303 853 CURVE",
"262 853 OFFCURVE",
"210 853 OFFCURVE",
"171 852 CURVE SMOOTH",
"152 853 OFFCURVE",
"129 853 OFFCURVE",
"109 843 CURVE",
"85 821 OFFCURVE",
"57 807 OFFCURVE",
"53 789 CURVE SMOOTH",
"47 762 OFFCURVE",
"154 796 OFFCURVE",
"200 800 CURVE",
"228 800 OFFCURVE",
"244 803 OFFCURVE",
"254 779 CURVE",
"262 750 OFFCURVE",
"253 535 OFFCURVE",
"244 457 CURVE",
"244 436 OFFCURVE",
"228 430 OFFCURVE",
"256 424 CURVE SMOOTH",
"270 422 OFFCURVE",
"305 440 OFFCURVE",
"315 446 CURVE",
"370 470 OFFCURVE",
"410 515 OFFCURVE",
"464 537 CURVE",
"462 458 LINE SMOOTH",
"460 383 OFFCURVE",
"454 306 OFFCURVE",
"449 231 CURVE SMOOTH",
"446 151 OFFCURVE",
"446 71 OFFCURVE",
"434 -7 CURVE SMOOTH",
"430 -29 OFFCURVE",
"426 -46 OFFCURVE",
"404 -50 CURVE",
"394 -50 OFFCURVE",
"386 -60 OFFCURVE",
"373 -60 CURVE"
);
}
);
width = 639;
}
);
note = S;
unicode = 0053;
},
{
glyphname = T;
lastChange = "2021-12-30 14:01:37 +0000";
layers = (
{
hints = (
{
horizontal = 1;
place = "{320, 108}";
type = Stem;
},
{
horizontal = 1;
place = "{559, 168}";
type = Stem;
},
{
place = "{58, 88}";
type = Stem;
},
{
place = "{320, 125}";
type = Stem;
},
{
horizontal = 1;
place = "{579, 139}";
type = Stem;
}
);
layerId = "A3F1973E-A54C-4051-9E3B-DFD359A8ED51";
paths = (
{
closed = 1;
nodes = (
"489 -44 OFFCURVE",
"499 -47 OFFCURVE",
"440 -22 CURVE SMOOTH",
"382 3 OFFCURVE",
"406 160 OFFCURVE",
"406 366 CURVE SMOOTH",
"406 598 LINE SMOOTH",
"406 627 OFFCURVE",
"408 690 OFFCURVE",
"412 716 CURVE",
"423 748 OFFCURVE",
"479 654 OFFCURVE",
"497 627 CURVE SMOOTH",
"552 547 OFFCURVE",
"563 448 OFFCURVE",
"628 496 CURVE SMOOTH",
"656 518 OFFCURVE",
"712 553 OFFCURVE",
"661 553 CURVE SMOOTH",
"619 553 OFFCURVE",
"609 578 OFFCURVE",
"588 611 CURVE SMOOTH",
"545 683 LINE SMOOTH",
"523 718 OFFCURVE",
"477 815 OFFCURVE",
"449 839 CURVE SMOOTH",
"423 861 OFFCURVE",
"423 841 OFFCURVE",
"376 841 CURVE SMOOTH",
"340 841 OFFCURVE",
"331 831 OFFCURVE",
"302 803 CURVE SMOOTH",
"235 738 OFFCURVE",
"215 695 OFFCURVE",
"108 569 CURVE SMOOTH",
"87 545 OFFCURVE",
"58 518 OFFCURVE",
"58 490 CURVE SMOOTH",
"58 462 OFFCURVE",
"95 425 OFFCURVE",
"105 480 CURVE SMOOTH",
"111 509 OFFCURVE",
"105 528 OFFCURVE",
"123 547 CURVE SMOOTH",
"199 631 OFFCURVE",
"293 766 OFFCURVE",
"311 739 CURVE SMOOTH",
"330 709 OFFCURVE",
"321 618 OFFCURVE",
"321 570 CURVE SMOOTH",
"321 267 LINE SMOOTH",
"321 -43 OFFCURVE",
"321 -21 OFFCURVE",
"275 -33 CURVE SMOOTH",
"186 -57 OFFCURVE",
"266 -48 OFFCURVE",
"349 -47 CURVE SMOOTH"
);
}
);
width = 740;
}
);
note = T;
unicode = 0054;
},
{
glyphname = U;
lastChange = "2021-12-30 14:01:37 +0000";
layers = (
{
hints = (
{
horizontal = 1;
place = "{552, 191}";
type = Stem;
},
{
place = "{683, 108}";
type = Stem;
}
);
layerId = "A3F1973E-A54C-4051-9E3B-DFD359A8ED51";
paths = (
{
closed = 1;
nodes = (
"158 -44 OFFCURVE",
"199 -34 OFFCURVE",
"280 -9 CURVE SMOOTH",
"305 0 OFFCURVE",
"335 7 OFFCURVE",
"340 33 CURVE SMOOTH",
"342 50 OFFCURVE",
"326 66 OFFCURVE",
"317 82 CURVE",
"308 103 OFFCURVE",
"313 130 OFFCURVE",
"313 153 CURVE SMOOTH",
"313 239 LINE SMOOTH",
"313 299 OFFCURVE",
"317 358 OFFCURVE",
"316 415 CURVE SMOOTH",
"312 502 OFFCURVE",
"315 662 OFFCURVE",
"331 692 CURVE SMOOTH",
"349 724 OFFCURVE",
"431 682 OFFCURVE",
"505 629 CURVE SMOOTH",
"568 582 OFFCURVE",
"636 540 OFFCURVE",
"666 468 CURVE SMOOTH",
"685 423 OFFCURVE",
"688 367 OFFCURVE",
"685 313 CURVE SMOOTH",
"682 257 LINE SMOOTH",
"679 189 OFFCURVE",
"679 116 OFFCURVE",
"662 51 CURVE SMOOTH",
"652 14 OFFCURVE",
"638 -3 OFFCURVE",
"685 -6 CURVE SMOOTH",
"721 -8 OFFCURVE",
"751 9 OFFCURVE",
"778 28 CURVE SMOOTH",
"805 48 OFFCURVE",
"838 79 OFFCURVE",
"864 111 CURVE",
"892 158 OFFCURVE",
"794 66 OFFCURVE",
"748 78 CURVE SMOOTH",
"720 85 OFFCURVE",
"794 301 OFFCURVE",
"773 429 CURVE SMOOTH",
"764 488 OFFCURVE",
"752 531 OFFCURVE",
"703 574 CURVE SMOOTH",
"571 688 LINE SMOOTH",
"522 731 OFFCURVE",
"462 761 OFFCURVE",
"404 788 CURVE SMOOTH",
"325 826 OFFCURVE",
"326 855 OFFCURVE",
"255 840 CURVE SMOOTH",
"107 808 OFFCURVE",
"176 812 OFFCURVE",
"87 758 CURVE SMOOTH",
"4 707 OFFCURVE",
"232 787 OFFCURVE",
"232 644 CURVE SMOOTH",
"232 530 OFFCURVE",
"235 415 OFFCURVE",
"229 299 CURVE SMOOTH",
"226 222 OFFCURVE",
"245 131 OFFCURVE",
"209 64 CURVE SMOOTH",
"186 22 LINE SMOOTH",
"165 -13 OFFCURVE",
"156 -33 OFFCURVE",
"157 -38 CURVE SMOOTH"
);
}
);
width = 938;
}
);
note = U;
unicode = 0055;
},
{
glyphname = W;
lastChange = "2021-12-30 14:01:37 +0000";
layers = (
{
hints = (
{
horizontal = 1;
place = "{621, 78}";
type = Stem;
},
{
place = "{104, 99}";
type = Stem;
},
{
place = "{338, 108}";
type = Stem;
},
{
place = "{111, 95}";
type = Stem;
}
);
layerId = "A3F1973E-A54C-4051-9E3B-DFD359A8ED51";
paths = (
{
closed = 1;
nodes = (
"139 -24 OFFCURVE",
"206 -44 OFFCURVE",
"174 8 CURVE",
"171 39 OFFCURVE",
"178 185 OFFCURVE",
"178 295 CURVE SMOOTH",
"178 317 OFFCURVE",
"223 337 OFFCURVE",
"279 406 CURVE SMOOTH",
"362 507 OFFCURVE",
"392 542 OFFCURVE",
"415 652 CURVE",
"419 728 OFFCURVE",
"430 777 OFFCURVE",
"408 809 CURVE SMOOTH",
"384 846 OFFCURVE",
"327 849 OFFCURVE",
"206 849 CURVE SMOOTH",
"148 849 OFFCURVE",
"124 864 OFFCURVE",
"77 839 CURVE SMOOTH",
"52 826 LINE",
"18 796 OFFCURVE",
"95 810 OFFCURVE",
"102 777 CURVE SMOOTH",
"108 748 OFFCURVE",
"111 649 OFFCURVE",
"111 638 CURVE SMOOTH",
"111 531 OFFCURVE",
"111 458 OFFCURVE",
"108 351 CURVE SMOOTH",
"102 81 LINE",
"99 51 OFFCURVE",
"101 16 OFFCURVE",
"79 -9 CURVE SMOOTH",
"67 -22 OFFCURVE",
"55 -21 OFFCURVE",
"67 -29 CURVE"
);
},
{
closed = 1;
nodes = (
"179 476 OFFCURVE",
"177 552 OFFCURVE",
"180 698 CURVE SMOOTH",
"180 721 OFFCURVE",
"180 788 OFFCURVE",
"275 796 CURVE",
"310 796 OFFCURVE",
"343 748 OFFCURVE",
"338 646 CURVE SMOOTH",
"333 544 OFFCURVE",
"313 490 OFFCURVE",
"177 326 CURVE"
);
}
);
width = 464;
}
);
note = W;
unicode = 0057;
},
{
glyphname = X;
lastChange = "2021-12-30 14:01:40 +0000";
layers = (
{
hints = (
{
horizontal = 1;
place = "{-192, 940}";
type = Stem;
},
{
place = "{388, 125}";
type = Stem;
}
);
layerId = "A3F1973E-A54C-4051-9E3B-DFD359A8ED51";
paths = (
{
closed = 1;
nodes = (
"497 12 OFFCURVE",
"469 16 OFFCURVE",
"469 89 CURVE SMOOTH",
"469 402 LINE SMOOTH",
"470 453 OFFCURVE",
"693 688 OFFCURVE",
"702 698 CURVE SMOOTH",
"723 724 OFFCURVE",
"775 788 OFFCURVE",
"733 784 CURVE",
"665 752 OFFCURVE",
"464 466 OFFCURVE",
"469 522 CURVE",
"478 795 LINE SMOOTH",
"479 834 OFFCURVE",
"525 870 OFFCURVE",
"474 860 CURVE",
"397 808 OFFCURVE",
"351 808 OFFCURVE",
"328 767 CURVE",
"354 766 OFFCURVE",
"376 770 OFFCURVE",
"379 756 CURVE SMOOTH",
"397 696 OFFCURVE",
"388 631 OFFCURVE",
"388 533 CURVE SMOOTH",
"388 503 OFFCURVE",
"297 592 OFFCURVE",
"268 625 CURVE SMOOTH",
"188 717 LINE SMOOTH",
"169 739 OFFCURVE",
"147 778 OFFCURVE",
"115 778 CURVE",
"96 767 OFFCURVE",
"65 747 OFFCURVE",
"65 726 CURVE",
"55 706 OFFCURVE",
"65 726 OFFCURVE",
"127 665 CURVE",
"250 533 OFFCURVE",
"368 422 OFFCURVE",
"388 402 CURVE",
"388 29 LINE SMOOTH",
"388 -13 OFFCURVE",
"290 -64 OFFCURVE",
"429 -13 CURVE SMOOTH"
);
}
);
width = 811;
}
);
note = X;
unicode = 0058;
},
{
glyphname = Y;
lastChange = "2021-12-30 14:01:40 +0000";
layers = (
{
hints = (
{
horizontal = 1;
place = "{145, 130}";
type = Stem;
},
{
place = "{164, 123}";
type = Stem;
},
{
place = "{628, 200}";
type = Stem;
},
{
place = "{159, 134}";
type = Stem;
},
{
horizontal = 1;
place = "{153, 84}";
type = Stem;
}
);
layerId = "A3F1973E-A54C-4051-9E3B-DFD359A8ED51";
paths = (
{
closed = 1;
nodes = (
"237 -26 OFFCURVE",
"276 -18 OFFCURVE",
"272 -1 CURVE",
"255 23 OFFCURVE",
"239 -2 OFFCURVE",
"239 133 CURVE",
"241 164 OFFCURVE",
"239 196 OFFCURVE",
"239 224 CURVE SMOOTH",
"241 245 OFFCURVE",
"241 268 OFFCURVE",
"241 289 CURVE",
"285 291 OFFCURVE",
"335 320 OFFCURVE",
"368 276 CURVE SMOOTH",
"399 234 OFFCURVE",
"407 187 OFFCURVE",
"403 135 CURVE",
"399 111 OFFCURVE",
"401 83 OFFCURVE",
"396 57 CURVE SMOOTH",
"394 41 OFFCURVE",
"368 -5 OFFCURVE",
"369 -18 CURVE",
"378 -47 OFFCURVE",
"486 -24 OFFCURVE",
"475 -3 CURVE",
"468 17 OFFCURVE",
"452 13 OFFCURVE",
"451 42 CURVE SMOOTH",
"448 76 OFFCURVE",
"452 111 OFFCURVE",
"451 144 CURVE SMOOTH",
"448 179 OFFCURVE",
"444 218 OFFCURVE",
"468 249 CURVE SMOOTH",
"509 308 OFFCURVE",
"557 323 OFFCURVE",
"597 295 CURVE",
"609 245 OFFCURVE",
"616 196 OFFCURVE",
"622 144 CURVE SMOOTH",
"624 105 OFFCURVE",
"633 61 OFFCURVE",
"624 22 CURVE",
"623 3 OFFCURVE",
"608 6 OFFCURVE",
"623 -14 CURVE SMOOTH",
"646 -42 OFFCURVE",
"721 -22 OFFCURVE",
"750 -12 CURVE SMOOTH",
"827 12 OFFCURVE",
"744 38 OFFCURVE",
"728 76 CURVE",
"705 121 OFFCURVE",
"714 176 OFFCURVE",
"702 227 CURVE SMOOTH",
"690 291 OFFCURVE",
"672 355 OFFCURVE",
"656 420 CURVE SMOOTH",
"631 510 OFFCURVE",
"580 606 OFFCURVE",
"512 674 CURVE SMOOTH",
"475 711 OFFCURVE",
"423 744 OFFCURVE",
"378 776 CURVE SMOOTH",
"353 796 OFFCURVE",
"329 808 OFFCURVE",
"301 822 CURVE",
"281 828 OFFCURVE",
"269 855 OFFCURVE",
"233 855 CURVE",
"202 846 OFFCURVE",
"169 839 OFFCURVE",
"140 827 CURVE",
"122 817 OFFCURVE",
"76 812 OFFCURVE",
"64 796 CURVE",
"99 757 OFFCURVE",
"163 769 OFFCURVE",
"160 699 CURVE SMOOTH",
"159 564 OFFCURVE",
"162 486 OFFCURVE",
"163 360 CURVE SMOOTH",
"166 286 OFFCURVE",
"162 249 OFFCURVE",
"163 116 CURVE",
"149 3 OFFCURVE",
"32 -17 OFFCURVE",
"122 -26 CURVE SMOOTH",
"164 -31 OFFCURVE",
"192 -30 OFFCURVE",
"211 -30 CURVE"
);
},
{
closed = 1;
nodes = (
"407 289 OFFCURVE",
"386 320 OFFCURVE",
"364 346 CURVE SMOOTH",
"333 378 OFFCURVE",
"295 398 OFFCURVE",
"243 373 CURVE",
"243 413 LINE",
"237 497 OFFCURVE",
"249 586 OFFCURVE",
"249 671 CURVE",
"247 699 OFFCURVE",
"254 723 OFFCURVE",
"255 748 CURVE",
"285 735 OFFCURVE",
"313 718 OFFCURVE",
"335 706 CURVE SMOOTH",
"442 647 OFFCURVE",
"509 535 OFFCURVE",
"557 426 CURVE SMOOTH",
"567 401 OFFCURVE",
"574 373 OFFCURVE",
"583 346 CURVE",
"567 350 OFFCURVE",
"548 346 OFFCURVE",
"535 343 CURVE",
"525 338 OFFCURVE",
"426 266 OFFCURVE",
"428 260 CURVE"
);
}
);
width = 846;
}
);
note = Y;
unicode = 0059;
},
{
glyphname = a;
lastChange = "2021-12-30 14:01:37 +0000";
layers = (
{
hints = (
{
horizontal = 1;
place = "{562, 155}";
type = Stem;
},
{
place = "{110, 110}";
type = Stem;
}
);
layerId = "A3F1973E-A54C-4051-9E3B-DFD359A8ED51";
paths = (
{
closed = 1;
nodes = (
"71 -70 OFFCURVE",
"146 -44 OFFCURVE",
"171 -26 CURVE SMOOTH",
"209 -2 OFFCURVE",
"188 -1 OFFCURVE",
"171 30 CURVE SMOOTH",
"153 65 OFFCURVE",
"170 122 OFFCURVE",
"170 159 CURVE SMOOTH",
"170 207 OFFCURVE",
"168 262 OFFCURVE",
"175 311 CURVE SMOOTH",
"185 372 OFFCURVE",
"212 311 OFFCURVE",
"242 279 CURVE",
"261 253 OFFCURVE",
"305 187 OFFCURVE",
"337 177 CURVE SMOOTH",
"379 166 OFFCURVE",
"412 256 OFFCURVE",
"398 242 CURVE SMOOTH",
"358 200 OFFCURVE",
"269 388 OFFCURVE",
"233 420 CURVE SMOOTH",
"199 447 OFFCURVE",
"190 460 OFFCURVE",
"192 508 CURVE SMOOTH",
"192 585 OFFCURVE",
"186 660 OFFCURVE",
"189 736 CURVE",
"221 742 OFFCURVE",
"244 729 OFFCURVE",
"302 653 CURVE",
"316 637 OFFCURVE",
"337 589 OFFCURVE",
"357 583 CURVE SMOOTH",
"415 564 OFFCURVE",
"585 933 OFFCURVE",
"441 720 CURVE",
"415 694 OFFCURVE",
"385 668 OFFCURVE",
"351 698 CURVE SMOOTH",
"331 716 OFFCURVE",
"317 736 OFFCURVE",
"298 757 CURVE SMOOTH",
"256 806 OFFCURVE",
"244 887 OFFCURVE",
"157 855 CURVE SMOOTH",
"55 818 LINE",
"27 812 OFFCURVE",
"85 799 OFFCURVE",
"97 783 CURVE SMOOTH",
"111 767 OFFCURVE",
"111 746 OFFCURVE",
"111 721 CURVE SMOOTH",
"111 573 OFFCURVE",
"112 61 OFFCURVE",
"105 7 CURVE SMOOTH",
"103 -14 OFFCURVE",
"87 -33 OFFCURVE",
"85 -54 CURVE"
);
}
);
width = 545;
}
);
note = a;
unicode = 0061;
},
{
glyphname = ae;
lastChange = "2021-12-30 14:01:37 +0000";
layers = (
{
hints = (
{
horizontal = 1;
place = "{80, 76}";
type = Stem;
},
{
horizontal = 1;
place = "{562, 157}";
type = Stem;
},
{
place = "{113, 105}";
type = Stem;
},
{
place = "{86, 110}";
type = Stem;
}
);
layerId = "A3F1973E-A54C-4051-9E3B-DFD359A8ED51";
paths = (
{
closed = 1;
nodes = (
"73 -70 OFFCURVE",
"150 -46 OFFCURVE",
"173 -26 CURVE SMOOTH",
"200 -2 OFFCURVE",
"190 0 OFFCURVE",
"173 31 CURVE SMOOTH",
"155 66 OFFCURVE",
"171 122 OFFCURVE",
"171 159 CURVE SMOOTH",
"171 207 OFFCURVE",
"179 242 OFFCURVE",
"177 311 CURVE SMOOTH",
"174 405 OFFCURVE",
"171 384 OFFCURVE",
"223 343 CURVE",
"300 290 OFFCURVE",
"297 282 OFFCURVE",
"337 258 CURVE SMOOTH",
"376 234 OFFCURVE",
"441 294 OFFCURVE",
"402 297 CURVE",
"318 339 OFFCURVE",
"284 384 OFFCURVE",
"235 427 CURVE SMOOTH",
"201 457 OFFCURVE",
"183 476 OFFCURVE",
"186 548 CURVE SMOOTH",
"188 625 OFFCURVE",
"187 660 OFFCURVE",
"191 736 CURVE",
"223 742 OFFCURVE",
"246 729 OFFCURVE",
"304 653 CURVE",
"318 637 OFFCURVE",
"342 596 OFFCURVE",
"361 602 CURVE SMOOTH",
"436 622 OFFCURVE",
"432 626 OFFCURVE",
"395 651 CURVE",
"368 660 OFFCURVE",
"318 738 OFFCURVE",
"300 757 CURVE SMOOTH",
"258 806 OFFCURVE",
"246 887 OFFCURVE",
"159 855 CURVE SMOOTH",
"57 818 LINE",
"29 812 OFFCURVE",
"87 799 OFFCURVE",
"99 783 CURVE SMOOTH",
"113 767 OFFCURVE",
"113 746 OFFCURVE",
"113 721 CURVE SMOOTH",
"113 573 OFFCURVE",
"114 61 OFFCURVE",
"107 7 CURVE SMOOTH",
"105 -13 OFFCURVE",
"89 -33 OFFCURVE",
"87 -54 CURVE"
);
}
);
width = 537;
}
);
note = ae;
unicode = 00E6;
},
{
glyphname = b;
lastChange = "2021-12-30 14:01:40 +0000";
layers = (
{
hints = (
{
horizontal = 1;
place = "{-300, 1002}";
type = Stem;
},
{
place = "{62, 92}";
type = Stem;
},
{
place = "{308, 88}";
type = Stem;
}
);
layerId = "A3F1973E-A54C-4051-9E3B-DFD359A8ED51";
paths = (
{
closed = 1;
nodes = (
"54 -116 OFFCURVE",
"84 -98 OFFCURVE",
"143 -54 CURVE SMOOTH",
"176 -30 OFFCURVE",
"400 118 OFFCURVE",
"371 149 CURVE SMOOTH",
"199 327 OFFCURVE",
"126 340 OFFCURVE",
"126 376 CURVE SMOOTH",
"125 419 OFFCURVE",
"190 460 OFFCURVE",
"236 503 CURVE SMOOTH",
"290 548 OFFCURVE",
"314 574 OFFCURVE",
"358 619 CURVE SMOOTH",
"379 639 OFFCURVE",
"389 640 OFFCURVE",
"369 663 CURVE SMOOTH",
"335 700 OFFCURVE",
"311 741 OFFCURVE",
"278 771 CURVE SMOOTH",
"196 846 OFFCURVE",
"177 886 OFFCURVE",
"143 853 CURVE SMOOTH",
"41 750 OFFCURVE",
"64 742 OFFCURVE",
"62 647 CURVE SMOOTH",
"62 368 LINE SMOOTH",
"60 299 OFFCURVE",
"58 181 OFFCURVE",
"62 129 CURVE SMOOTH",
"63 87 OFFCURVE",
"60 1 OFFCURVE",
"60 -41 CURVE SMOOTH",
"60 -83 OFFCURVE",
"60 -106 OFFCURVE",
"57 -111 CURVE SMOOTH"
);
},
{
closed = 1;
nodes = (
"148 -28 OFFCURVE",
"125 -62 OFFCURVE",
"133 7 CURVE",
"133 7 OFFCURVE",
"133 46 OFFCURVE",
"130 196 CURVE SMOOTH",
"129 254 OFFCURVE",
"129 281 OFFCURVE",
"179 231 CURVE SMOOTH",
"177 233 OFFCURVE",
"222 196 OFFCURVE",
"260 158 CURVE SMOOTH",
"317 102 OFFCURVE",
"317 102 OFFCURVE",
"294 80 CURVE SMOOTH",
"257 44 OFFCURVE",
"236 34 OFFCURVE",
"181 -5 CURVE SMOOTH"
);
},
{
closed = 1;
nodes = (
"126 438 OFFCURVE",
"130 470 OFFCURVE",
"133 527 CURVE SMOOTH",
"135 606 OFFCURVE",
"137 644 OFFCURVE",
"136 678 CURVE SMOOTH",
"136 705 OFFCURVE",
"129 782 OFFCURVE",
"154 767 CURVE",
"153 767 OFFCURVE",
"187 740 OFFCURVE",
"226 708 CURVE SMOOTH",
"264 678 OFFCURVE",
"316 629 OFFCURVE",
"317 627 CURVE SMOOTH",
"326 606 OFFCURVE",
"283 576 OFFCURVE",
"212 511 CURVE SMOOTH",
"145 450 OFFCURVE",
"114 423 OFFCURVE",
"120 431 CURVE SMOOTH"
);
}
);
width = 439;
}
);
note = b;
unicode = 0062;
},
{
glyphname = c;
lastChange = "2021-12-30 14:01:37 +0000";
layers = (
{
hints = (
{
horizontal = 1;
place = "{-233, 942}";
type = Stem;
},
{
place = "{175, 95}";
type = Stem;
},
{
horizontal = 1;
place = "{-233, 113}";
type = Stem;
},
{
place = "{422, 189}";
type = Stem;
},
{
horizontal = 1;
place = "{-212, 99}";
type = Stem;
},
{
place = "{178, 100}";
type = Stem;
}
);
layerId = "A3F1973E-A54C-4051-9E3B-DFD359A8ED51";
paths = (
{
closed = 1;
nodes = (
"228 -50 OFFCURVE",
"228 -44 OFFCURVE",
"276 -28 CURVE SMOOTH",
"315 -15 OFFCURVE",
"343 16 OFFCURVE",
"310 16 CURVE SMOOTH",
"229 16 OFFCURVE",
"243 -14 OFFCURVE",
"236 308 CURVE SMOOTH",
"235 348 OFFCURVE",
"235 401 OFFCURVE",
"329 389 CURVE SMOOTH",
"376 383 OFFCURVE",
"419 340 OFFCURVE",
"420 261 CURVE SMOOTH",
"422 150 LINE SMOOTH",
"423 88 OFFCURVE",
"424 20 OFFCURVE",
"420 -4 CURVE SMOOTH",
"416 -35 OFFCURVE",
"408 -43 OFFCURVE",
"426 -43 CURVE SMOOTH",
"450 -43 OFFCURVE",
"466 -32 OFFCURVE",
"517 -19 CURVE SMOOTH",
"554 -10 OFFCURVE",
"607 50 OFFCURVE",
"557 27 CURVE",
"501 6 OFFCURVE",
"493 61 OFFCURVE",
"491 114 CURVE SMOOTH",
"482 291 OFFCURVE",
"503 328 OFFCURVE",
"458 404 CURVE SMOOTH",
"407 489 OFFCURVE",
"244 477 OFFCURVE",
"244 494 CURVE SMOOTH",
"245 623 LINE SMOOTH",
"247 729 OFFCURVE",
"245 740 OFFCURVE",
"249 779 CURVE SMOOTH",
"253 835 OFFCURVE",
"279 845 OFFCURVE",
"256 845 CURVE",
"206 822 OFFCURVE",
"184 819 OFFCURVE",
"142 795 CURVE SMOOTH",
"123 785 OFFCURVE",
"105 779 OFFCURVE",
"83 762 CURVE SMOOTH",
"56 740 LINE",
"32 714 OFFCURVE",
"107 731 OFFCURVE",
"145 693 CURVE SMOOTH",
"179 659 OFFCURVE",
"178 610 OFFCURVE",
"178 573 CURVE SMOOTH",
"178 431 OFFCURVE",
"177 431 OFFCURVE",
"176 362 CURVE SMOOTH",
"174 162 LINE SMOOTH",
"173 110 OFFCURVE",
"177 -11 OFFCURVE",
"150 -28 CURVE SMOOTH",
"84 -69 OFFCURVE",
"153 -64 OFFCURVE",
"189 -57 CURVE SMOOTH"
);
}
);
width = 629;
}
);
note = c;
unicode = 0063;
},
{
glyphname = d;
lastChange = "2021-12-30 14:01:40 +0000";
layers = (
{
hints = (
{
horizontal = 1;
place = "{-218, 112}";
type = Stem;
},
{
place = "{108, 125}";
type = Stem;
},
{
place = "{644, 125}";
type = Stem;
}
);
layerId = "A3F1973E-A54C-4051-9E3B-DFD359A8ED51";
paths = (
{
closed = 1;
nodes = (
"208 -7 OFFCURVE",
"181 -17 OFFCURVE",
"185 56 CURVE SMOOTH",
"189 110 OFFCURVE",
"188 147 OFFCURVE",
"188 199 CURVE",
"252 249 LINE SMOOTH",
"293 280 OFFCURVE",
"337 304 OFFCURVE",
"382 330 CURVE",
"484 273 LINE SMOOTH",
"533 246 OFFCURVE",
"563 237 OFFCURVE",
"600 220 CURVE SMOOTH",
"613 214 OFFCURVE",
"629 202 OFFCURVE",
"644 196 CURVE",
"644 116 LINE SMOOTH",
"644 56 OFFCURVE",
"664 -4 OFFCURVE",
"622 -42 CURVE SMOOTH",
"584 -81 OFFCURVE",
"707 -46 OFFCURVE",
"762 -2 CURVE SMOOTH",
"791 24 OFFCURVE",
"711 -13 OFFCURVE",
"719 35 CURVE",
"723 288 LINE SMOOTH",
"725 366 OFFCURVE",
"724 441 OFFCURVE",
"726 518 CURVE SMOOTH",
"728 629 LINE SMOOTH",
"732 847 OFFCURVE",
"768 853 OFFCURVE",
"751 854 CURVE SMOOTH",
"716 858 OFFCURVE",
"563 787 OFFCURVE",
"609 780 CURVE",
"639 767 OFFCURVE",
"649 777 OFFCURVE",
"647 690 CURVE SMOOTH",
"646 645 OFFCURVE",
"644 595 OFFCURVE",
"644 549 CURVE SMOOTH",
"644 527 LINE",
"617 507 OFFCURVE",
"588 487 OFFCURVE",
"559 467 CURVE SMOOTH",
"452 398 LINE",
"367 445 OFFCURVE",
"280 492 OFFCURVE",
"190 533 CURVE",
"190 697 OFFCURVE",
"197 676 OFFCURVE",
"193 746 CURVE SMOOTH",
"192 766 OFFCURVE",
"192 784 OFFCURVE",
"198 805 CURVE SMOOTH",
"204 820 OFFCURVE",
"218 834 OFFCURVE",
"216 850 CURVE SMOOTH",
"214 862 OFFCURVE",
"157 812 OFFCURVE",
"153 808 CURVE SMOOTH",
"136 791 OFFCURVE",
"82 771 OFFCURVE",
"77 750 CURVE",
"75 732 OFFCURVE",
"91 743 OFFCURVE",
"101 730 CURVE SMOOTH",
"115 712 OFFCURVE",
"108 665 OFFCURVE",
"108 645 CURVE SMOOTH",
"107 599 OFFCURVE",
"108 589 OFFCURVE",
"108 558 CURVE SMOOTH",
"108 484 OFFCURVE",
"107 410 OFFCURVE",
"108 336 CURVE SMOOTH",
"109 195 OFFCURVE",
"111 145 OFFCURVE",
"109 70 CURVE SMOOTH",
"108 26 OFFCURVE",
"54 16 OFFCURVE",
"64 0 CURVE SMOOTH",
"99 -54 OFFCURVE",
"121 -63 OFFCURVE",
"136 -53 CURVE SMOOTH"
);
},
{
closed = 1;
nodes = (
"188 297 LINE",
"190 428 LINE",
"249 401 OFFCURVE",
"305 372 OFFCURVE",
"360 342 CURVE",
"333 326 LINE SMOOTH",
"284 295 OFFCURVE",
"258 283 OFFCURVE",
"231 264 CURVE SMOOTH",
"188 234 LINE"
);
},
{
closed = 1;
nodes = (
"642 302 OFFCURVE",
"638 303 OFFCURVE",
"633 306 CURVE SMOOTH",
"478 387 LINE",
"516 418 OFFCURVE",
"545 433 OFFCURVE",
"594 466 CURVE SMOOTH",
"601 471 OFFCURVE",
"622 484 OFFCURVE",
"646 494 CURVE",
"646 437 OFFCURVE",
"644 384 OFFCURVE",
"644 328 CURVE SMOOTH",
"644 302 LINE"
);
}
);
width = 831;
}
);
note = d;
unicode = 0064;
},
{
glyphname = e;
lastChange = "2021-12-30 14:01:41 +0000";
layers = (
{
hints = (
{
horizontal = 1;
place = "{-164, 79}";
type = Stem;
},
{
place = "{138, 120}";
type = Stem;
},
{
place = "{605, 135}";
type = Stem;
},
{
horizontal = 1;
place = "{-163, 111}";
type = Stem;
}
);
layerId = "A3F1973E-A54C-4051-9E3B-DFD359A8ED51";
paths = (
{
closed = 1;
nodes = (
"594 -24 OFFCURVE",
"645 10 OFFCURVE",
"673 15 CURVE SMOOTH",
"721 23 OFFCURVE",
"785 58 OFFCURVE",
"744 56 CURVE",
"700 44 OFFCURVE",
"698 133 OFFCURVE",
"698 163 CURVE SMOOTH",
"698 255 OFFCURVE",
"695 338 OFFCURVE",
"695 441 CURVE SMOOTH",
"693 682 LINE SMOOTH",
"693 704 OFFCURVE",
"691 740 OFFCURVE",
"695 761 CURVE SMOOTH",
"700 789 OFFCURVE",
"775 830 OFFCURVE",
"736 830 CURVE",
"709 834 OFFCURVE",
"624 838 OFFCURVE",
"611 815 CURVE SMOOTH",
"598 790 OFFCURVE",
"579 765 OFFCURVE",
"566 740 CURVE SMOOTH",
"478 586 LINE SMOOTH",
"462 561 OFFCURVE",
"437 534 OFFCURVE",
"421 504 CURVE",
"379 593 OFFCURVE",
"292 679 OFFCURVE",
"248 774 CURVE SMOOTH",
"230 809 LINE",
"225 815 OFFCURVE",
"223 824 OFFCURVE",
"214 834 CURVE",
"201 838 OFFCURVE",
"187 827 OFFCURVE",
"178 822 CURVE",
"151 811 LINE SMOOTH",
"123 799 OFFCURVE",
"98 789 OFFCURVE",
"76 773 CURVE",
"76 759 OFFCURVE",
"92 759 OFFCURVE",
"102 748 CURVE",
"162 695 OFFCURVE",
"137 566 OFFCURVE",
"137 495 CURVE SMOOTH",
"137 407 OFFCURVE",
"139 319 OFFCURVE",
"133 239 CURVE SMOOTH",
"126 182 OFFCURVE",
"164 58 OFFCURVE",
"94 23 CURVE",
"87 21 OFFCURVE",
"64 18 OFFCURVE",
"62 7 CURVE SMOOTH",
"55 -18 OFFCURVE",
"228 -13 OFFCURVE",
"248 1 CURVE",
"266 17 OFFCURVE",
"253 18 OFFCURVE",
"239 26 CURVE",
"205 61 OFFCURVE",
"208 100 OFFCURVE",
"208 141 CURVE SMOOTH",
"208 353 OFFCURVE",
"214 241 OFFCURVE",
"214 459 CURVE SMOOTH",
"214 493 OFFCURVE",
"214 639 OFFCURVE",
"212 657 CURVE",
"212 686 LINE",
"250 648 OFFCURVE",
"389 403 OFFCURVE",
"398 411 CURVE",
"418 444 LINE",
"504 582 LINE SMOOTH",
"521 607 OFFCURVE",
"578 686 OFFCURVE",
"604 745 CURVE",
"604 516 LINE SMOOTH",
"603 420 OFFCURVE",
"603 323 OFFCURVE",
"604 235 CURVE SMOOTH",
"603 97 LINE SMOOTH",
"603 67 OFFCURVE",
"603 54 OFFCURVE",
"584 30 CURVE",
"575 21 OFFCURVE",
"550 9 OFFCURVE",
"566 -3 CURVE SMOOTH"
);
}
);
width = 820;
}
);
note = e;
unicode = 0065;
},
{
glyphname = f;
lastChange = "2021-12-30 14:01:37 +0000";
layers = (
{
hints = (
{
horizontal = 1;
place = "{491, 198}";
type = Stem;
},
{
place = "{184, 107}";
type = Stem;
},
{
place = "{502, 117}";
type = Stem;
},
{
place = "{189, 118}";
type = Stem;
},
{
place = "{458, 106}";
type = Stem;
}
);
layerId = "A3F1973E-A54C-4051-9E3B-DFD359A8ED51";
paths = (
{
closed = 1;
nodes = (
"209 -40 OFFCURVE",
"237 -34 OFFCURVE",
"262 -26 CURVE SMOOTH",
"327 -8 OFFCURVE",
"290 4 OFFCURVE",
"273 28 CURVE SMOOTH",
"249 57 OFFCURVE",
"252 274 OFFCURVE",
"273 391 CURVE SMOOTH",
"280 439 OFFCURVE",
"322 466 OFFCURVE",
"358 487 CURVE SMOOTH",
"384 503 OFFCURVE",
"440 532 OFFCURVE",
"469 524 CURVE SMOOTH",
"551 503 OFFCURVE",
"461 402 OFFCURVE",
"531 451 CURVE SMOOTH",
"604 503 OFFCURVE",
"600 584 OFFCURVE",
"531 597 CURVE SMOOTH",
"485 604 OFFCURVE",
"417 576 OFFCURVE",
"346 517 CURVE SMOOTH",
"266 451 LINE",
"277 517 OFFCURVE",
"259 581 OFFCURVE",
"290 639 CURVE SMOOTH",
"310 682 OFFCURVE",
"340 744 OFFCURVE",
"396 733 CURVE",
"438 730 OFFCURVE",
"468 701 OFFCURVE",
"455 671 CURVE SMOOTH",
"445 645 OFFCURVE",
"486 671 OFFCURVE",
"507 694 CURVE SMOOTH",
"528 718 OFFCURVE",
"535 742 OFFCURVE",
"526 781 CURVE SMOOTH",
"507 862 OFFCURVE",
"416 809 OFFCURVE",
"353 755 CURVE",
"319 733 OFFCURVE",
"298 696 OFFCURVE",
"269 665 CURVE",
"277 698 OFFCURVE",
"269 744 OFFCURVE",
"273 776 CURVE",
"273 796 OFFCURVE",
"280 831 OFFCURVE",
"269 850 CURVE SMOOTH",
"259 868 OFFCURVE",
"253 860 OFFCURVE",
"233 852 CURVE SMOOTH",
"206 843 OFFCURVE",
"180 831 OFFCURVE",
"157 820 CURVE SMOOTH",
"117 804 OFFCURVE",
"80 811 OFFCURVE",
"60 792 CURVE SMOOTH",
"36 770 OFFCURVE",
"77 770 OFFCURVE",
"93 770 CURVE SMOOTH",
"127 772 OFFCURVE",
"167 776 OFFCURVE",
"183 736 CURVE SMOOTH",
"196 700 OFFCURVE",
"183 645 OFFCURVE",
"186 608 CURVE",
"189 479 LINE SMOOTH",
"191 357 OFFCURVE",
"178 244 OFFCURVE",
"183 116 CURVE SMOOTH",
"186 48 LINE",
"183 16 OFFCURVE",
"175 -1 OFFCURVE",
"151 -15 CURVE SMOOTH",
"83 -58 OFFCURVE",
"162 -47 OFFCURVE",
"183 -44 CURVE SMOOTH"
);
}
);
width = 637;
}
);
note = f;
unicode = 0066;
},
{
glyphname = g;
lastChange = "2021-12-30 14:01:40 +0000";
layers = (
{
hints = (
{
horizontal = 1;
place = "{-193, 114}";
type = Stem;
},
{
horizontal = 1;
place = "{555, 101}";
type = Stem;
},
{
place = "{213, 121}";
type = Stem;
},
{
place = "{223, 113}";
type = Stem;
},
{
horizontal = 1;
place = "{567, 154}";
type = Stem;
}
);
layerId = "A3F1973E-A54C-4051-9E3B-DFD359A8ED51";
paths = (
{
closed = 1;
nodes = (
"-111 -50 OFFCURVE",
"-62 -39 OFFCURVE",
"-48 -33 CURVE",
"-17 -16 LINE SMOOTH",
"-14 -14 OFFCURVE",
"-1 3 OFFCURVE",
"-6 7 CURVE SMOOTH",
"-9 9 OFFCURVE",
"-13 8 OFFCURVE",
"-14 14 CURVE",
"41 78 LINE SMOOTH",
"102 150 OFFCURVE",
"159 229 OFFCURVE",
"221 300 CURVE",
"224 276 LINE SMOOTH",
"231 218 OFFCURVE",
"220 162 OFFCURVE",
"229 104 CURVE SMOOTH",
"232 85 OFFCURVE",
"224 56 OFFCURVE",
"221 32 CURVE SMOOTH",
"219 18 OFFCURVE",
"221 3 OFFCURVE",
"229 -9 CURVE SMOOTH",
"243 -33 OFFCURVE",
"274 -34 OFFCURVE",
"298 -28 CURVE SMOOTH",
"329 -19 OFFCURVE",
"353 -10 OFFCURVE",
"380 11 CURVE SMOOTH",
"391 20 OFFCURVE",
"418 41 OFFCURVE",
"387 44 CURVE SMOOTH",
"363 46 OFFCURVE",
"346 44 OFFCURVE",
"331 63 CURVE SMOOTH",
"316 84 OFFCURVE",
"316 106 OFFCURVE",
"315 131 CURVE SMOOTH",
"312 218 LINE SMOOTH",
"312 230 OFFCURVE",
"282 375 OFFCURVE",
"305 405 CURVE SMOOTH",
"351 467 LINE SMOOTH",
"393 524 OFFCURVE",
"434 583 OFFCURVE",
"482 637 CURVE SMOOTH",
"504 662 OFFCURVE",
"519 692 OFFCURVE",
"535 718 CURVE SMOOTH",
"537 722 OFFCURVE",
"577 780 OFFCURVE",
"566 780 CURVE SMOOTH",
"553 780 LINE SMOOTH",
"535 780 OFFCURVE",
"515 768 OFFCURVE",
"502 758 CURVE SMOOTH",
"487 748 OFFCURVE",
"458 737 OFFCURVE",
"455 718 CURVE",
"484 718 LINE",
"487 698 OFFCURVE",
"478 685 OFFCURVE",
"465 665 CURVE SMOOTH",
"439 623 OFFCURVE",
"401 591 OFFCURVE",
"372 550 CURVE SMOOTH",
"300 452 LINE",
"298 522 OFFCURVE",
"302 589 OFFCURVE",
"298 658 CURVE SMOOTH",
"296 706 OFFCURVE",
"295 751 OFFCURVE",
"298 798 CURVE SMOOTH",
"299 811 OFFCURVE",
"312 828 OFFCURVE",
"305 840 CURVE SMOOTH",
"299 849 OFFCURVE",
"282 838 OFFCURVE",
"272 835 CURVE SMOOTH",
"205 813 LINE SMOOTH",
"183 806 OFFCURVE",
"165 789 OFFCURVE",
"145 775 CURVE SMOOTH",
"109 747 LINE SMOOTH",
"73 717 OFFCURVE",
"179 734 OFFCURVE",
"185 732 CURVE SMOOTH",
"228 721 OFFCURVE",
"209 617 OFFCURVE",
"209 586 CURVE SMOOTH",
"209 508 OFFCURVE",
"219 431 OFFCURVE",
"221 352 CURVE",
"159 273 LINE SMOOTH",
"125 229 OFFCURVE",
"85 193 OFFCURVE",
"52 149 CURVE SMOOTH",
"22 110 OFFCURVE",
"-15 64 OFFCURVE",
"-50 32 CURVE SMOOTH",
"-61 23 OFFCURVE",
"-129 -13 OFFCURVE",
"-121 -33 CURVE"
);
}
);
width = 613;
}
);
note = g;
unicode = 0067;
},
{
glyphname = h;
lastChange = "2021-12-30 14:01:40 +0000";
layers = (
{
hints = (
{
horizontal = 1;
place = "{-204, 119}";
type = Stem;
},
{
place = "{137, 128}";
type = Stem;
},
{
place = "{649, 130}";
type = Stem;
},
{
place = "{648, 127}";
type = Stem;
}
);
layerId = "A3F1973E-A54C-4051-9E3B-DFD359A8ED51";
paths = (
{
closed = 1;
nodes = (
"167 -43 OFFCURVE",
"189 -20 OFFCURVE",
"222 11 CURVE SMOOTH",
"240 28 OFFCURVE",
"308 74 OFFCURVE",
"262 74 CURVE SMOOTH",
"224 74 OFFCURVE",
"226 177 OFFCURVE",
"219 339 CURVE",
"221 381 OFFCURVE",
"308 322 OFFCURVE",
"344 303 CURVE SMOOTH",
"437 256 OFFCURVE",
"502 225 OFFCURVE",
"580 192 CURVE SMOOTH",
"640 166 OFFCURVE",
"650 163 OFFCURVE",
"649 132 CURVE SMOOTH",
"649 97 OFFCURVE",
"656 17 OFFCURVE",
"643 -25 CURVE SMOOTH",
"632 -58 OFFCURVE",
"699 -39 OFFCURVE",
"714 -36 CURVE SMOOTH",
"763 -27 OFFCURVE",
"810 27 OFFCURVE",
"754 29 CURVE",
"735 26 OFFCURVE",
"726 49 OFFCURVE",
"727 85 CURVE SMOOTH",
"729 172 LINE SMOOTH",
"731 293 OFFCURVE",
"732 416 OFFCURVE",
"733 535 CURVE SMOOTH",
"734 647 LINE SMOOTH",
"734 679 OFFCURVE",
"734 708 OFFCURVE",
"736 738 CURVE SMOOTH",
"739 802 LINE SMOOTH",
"740 822 OFFCURVE",
"752 847 OFFCURVE",
"723 855 CURVE SMOOTH",
"704 861 OFFCURVE",
"554 829 OFFCURVE",
"598 803 CURVE",
"610 794 OFFCURVE",
"622 794 OFFCURVE",
"634 762 CURVE SMOOTH",
"645 735 OFFCURVE",
"649 702 OFFCURVE",
"649 672 CURVE SMOOTH",
"649 565 LINE SMOOTH",
"649 532 OFFCURVE",
"655 462 OFFCURVE",
"638 467 CURVE SMOOTH",
"623 473 LINE SMOOTH",
"608 479 OFFCURVE",
"489 544 OFFCURVE",
"418 581 CURVE SMOOTH",
"308 638 LINE SMOOTH",
"284 650 OFFCURVE",
"234 669 OFFCURVE",
"225 695 CURVE SMOOTH",
"222 703 OFFCURVE",
"220 715 OFFCURVE",
"220 724 CURVE SMOOTH",
"219 768 LINE SMOOTH",
"218 793 OFFCURVE",
"230 819 OFFCURVE",
"233 840 CURVE SMOOTH",
"235 856 OFFCURVE",
"231 861 OFFCURVE",
"210 853 CURVE SMOOTH",
"180 843 OFFCURVE",
"156 822 OFFCURVE",
"125 811 CURVE SMOOTH",
"108 804 OFFCURVE",
"52 798 OFFCURVE",
"65 771 CURVE SMOOTH",
"78 745 OFFCURVE",
"118 762 OFFCURVE",
"134 737 CURVE SMOOTH",
"147 716 OFFCURVE",
"137 691 OFFCURVE",
"140 671 CURVE SMOOTH",
"146 639 OFFCURVE",
"137 607 OFFCURVE",
"137 574 CURVE SMOOTH",
"137 350 LINE SMOOTH",
"137 232 OFFCURVE",
"144 115 OFFCURVE",
"140 -1 CURVE SMOOTH",
"138 -56 OFFCURVE",
"144 -75 OFFCURVE",
"155 -59 CURVE SMOOTH"
);
},
{
closed = 1;
nodes = (
"647 229 OFFCURVE",
"536 275 OFFCURVE",
"509 288 CURVE SMOOTH",
"458 314 OFFCURVE",
"415 343 OFFCURVE",
"365 368 CURVE SMOOTH",
"288 409 LINE SMOOTH",
"269 419 OFFCURVE",
"224 423 OFFCURVE",
"220 469 CURVE",
"220 544 LINE SMOOTH",
"220 556 OFFCURVE",
"217 600 OFFCURVE",
"234 587 CURVE",
"344 520 OFFCURVE",
"443 460 OFFCURVE",
"598 385 CURVE SMOOTH",
"643 362 LINE SMOOTH",
"650 359 OFFCURVE",
"650 347 OFFCURVE",
"649 328 CURVE SMOOTH",
"647 277 LINE",
"647 255 LINE SMOOTH"
);
}
);
width = 843;
}
);
note = h;
unicode = 0068;
},
{
glyphname = i;
lastChange = "2021-12-30 14:01:41 +0000";
layers = (
{
hints = (
{
horizontal = 1;
place = "{544, 140}";
type = Stem;
},
{
place = "{133, 106}";
type = Stem;
}
);
layerId = "A3F1973E-A54C-4051-9E3B-DFD359A8ED51";
paths = (
{
closed = 1;
nodes = (
"114 -44 OFFCURVE",
"144 -36 OFFCURVE",
"202 -20 CURVE SMOOTH",
"271 -1 OFFCURVE",
"322 44 OFFCURVE",
"265 44 CURVE SMOOTH",
"205 44 OFFCURVE",
"221 107 OFFCURVE",
"221 179 CURVE SMOOTH",
"221 297 OFFCURVE",
"221 415 OFFCURVE",
"223 531 CURVE SMOOTH",
"227 643 LINE SMOOTH",
"227 684 OFFCURVE",
"221 727 OFFCURVE",
"231 769 CURVE SMOOTH",
"236 788 OFFCURVE",
"274 824 OFFCURVE",
"257 842 CURVE SMOOTH",
"233 866 OFFCURVE",
"152 842 OFFCURVE",
"90 807 CURVE",
"77 798 OFFCURVE",
"48 772 OFFCURVE",
"37 742 CURVE SMOOTH",
"26 704 OFFCURVE",
"67 754 OFFCURVE",
"90 758 CURVE SMOOTH",
"140 765 OFFCURVE",
"134 715 OFFCURVE",
"134 666 CURVE SMOOTH",
"134 117 LINE SMOOTH",
"134 90 OFFCURVE",
"134 61 OFFCURVE",
"125 33 CURVE SMOOTH",
"113 -6 LINE SMOOTH",
"106 -29 OFFCURVE",
"105 -42 OFFCURVE",
"109 -44 CURVE"
);
}
);
width = 325;
}
);
note = i;
unicode = 0069;
},
{
glyphname = j;
lastChange = "2021-12-30 14:01:41 +0000";
layers = (
{
hints = (
{
horizontal = 1;
place = "{-221, 942}";
type = Stem;
},
{
place = "{242, 108}";
type = Stem;
},
{
place = "{460, 84}";
type = Stem;
},
{
place = "{251, 107}";
type = Stem;
}
);
layerId = "A3F1973E-A54C-4051-9E3B-DFD359A8ED51";
paths = (
{
closed = 1;
nodes = (
"177 -58 OFFCURVE",
"223 -38 OFFCURVE",
"290 -38 CURVE SMOOTH",
"394 -38 OFFCURVE",
"319 -28 OFFCURVE",
"319 4 CURVE SMOOTH",
"319 62 OFFCURVE",
"321 162 OFFCURVE",
"321 189 CURVE",
"351 229 OFFCURVE",
"464 365 OFFCURVE",
"475 377 CURVE",
"512 426 LINE",
"531 441 OFFCURVE",
"448 498 OFFCURVE",
"373 571 CURVE SMOOTH",
"334 609 LINE",
"334 784 LINE SMOOTH",
"334 924 OFFCURVE",
"277 845 OFFCURVE",
"223 811 CURVE SMOOTH",
"167 775 OFFCURVE",
"239 794 OFFCURVE",
"247 737 CURVE SMOOTH",
"253 695 OFFCURVE",
"251 640 OFFCURVE",
"251 600 CURVE",
"163 511 OFFCURVE",
"177 525 OFFCURVE",
"54 413 CURVE",
"19 394 OFFCURVE",
"168 264 OFFCURVE",
"243 188 CURVE",
"243 80 LINE SMOOTH",
"243 33 OFFCURVE",
"230 -10 OFFCURVE",
"197 -40 CURVE SMOOTH"
);
},
{
closed = 1;
nodes = (
"203 331 LINE SMOOTH",
"156 372 OFFCURVE",
"98 418 OFFCURVE",
"111 428 CURVE SMOOTH",
"178 481 OFFCURVE",
"193 508 OFFCURVE",
"251 550 CURVE",
"251 288 LINE"
);
},
{
closed = 1;
nodes = (
"326 444 OFFCURVE",
"326 516 OFFCURVE",
"329 521 CURVE",
"394 460 LINE SMOOTH",
"445 413 OFFCURVE",
"474 404 OFFCURVE",
"456 377 CURVE",
"326 246 LINE"
);
}
);
width = 563;
}
);
note = j;
unicode = 006A;
},
{
glyphname = k;
lastChange = "2021-12-30 14:01:41 +0000";
layers = (
{
hints = (
{
horizontal = 1;
place = "{262, 68}";
type = Stem;
},
{
place = "{71, 98}";
type = Stem;
},
{
place = "{308, 114}";
type = Stem;
},
{
place = "{568, 100}";
type = Stem;
}
);
layerId = "A3F1973E-A54C-4051-9E3B-DFD359A8ED51";
paths = (
{
closed = 1;
nodes = (
"148 -9 OFFCURVE",
"171 31 OFFCURVE",
"143 19 CURVE SMOOTH",
"122 11 OFFCURVE",
"131 125 OFFCURVE",
"131 227 CURVE SMOOTH",
"131 294 OFFCURVE",
"125 297 OFFCURVE",
"176 339 CURVE SMOOTH",
"245 397 OFFCURVE",
"307 446 OFFCURVE",
"307 417 CURVE SMOOTH",
"307 154 LINE SMOOTH",
"307 91 OFFCURVE",
"315 40 OFFCURVE",
"287 -9 CURVE",
"265 -30 OFFCURVE",
"297 -18 OFFCURVE",
"364 -18 CURVE SMOOTH",
"383 -18 OFFCURVE",
"413 -18 OFFCURVE",
"400 -8 CURVE",
"383 17 OFFCURVE",
"387 25 OFFCURVE",
"387 51 CURVE SMOOTH",
"387 262 LINE",
"383 309 OFFCURVE",
"383 337 OFFCURVE",
"383 387 CURVE SMOOTH",
"383 428 OFFCURVE",
"420 409 OFFCURVE",
"465 378 CURVE SMOOTH",
"553 319 OFFCURVE",
"559 311 OFFCURVE",
"563 287 CURVE SMOOTH",
"567 268 OFFCURVE",
"568 152 OFFCURVE",
"568 130 CURVE SMOOTH",
"568 40 OFFCURVE",
"585 40 OFFCURVE",
"545 -2 CURVE SMOOTH",
"512 -36 OFFCURVE",
"593 -18 OFFCURVE",
"622 -2 CURVE SMOOTH",
"639 7 OFFCURVE",
"630 69 OFFCURVE",
"630 107 CURVE SMOOTH",
"630 310 LINE SMOOTH",
"630 351 OFFCURVE",
"413 457 OFFCURVE",
"383 467 CURVE",
"383 754 LINE SMOOTH",
"383 784 OFFCURVE",
"383 822 OFFCURVE",
"374 854 CURVE SMOOTH",
"364 893 OFFCURVE",
"320 846 OFFCURVE",
"298 828 CURVE",
"265 794 OFFCURVE",
"255 784 OFFCURVE",
"267 776 CURVE",
"274 763 OFFCURVE",
"287 773 OFFCURVE",
"299 761 CURVE SMOOTH",
"311 749 OFFCURVE",
"307 743 OFFCURVE",
"311 727 CURVE",
"307 635 OFFCURVE",
"307 536 OFFCURVE",
"307 457 CURVE",
"249 428 OFFCURVE",
"233 409 OFFCURVE",
"176 370 CURVE SMOOTH",
"133 341 OFFCURVE",
"141 346 OFFCURVE",
"91 309 CURVE SMOOTH",
"70 294 OFFCURVE",
"70 288 OFFCURVE",
"70 259 CURVE SMOOTH",
"70 19 LINE SMOOTH",
"70 -9 OFFCURVE",
"21 -34 OFFCURVE",
"101 -18 CURVE SMOOTH"
);
}
);
width = 688;
}
);
note = k;
unicode = 006B;
},
{
glyphname = l;
lastChange = "2021-12-30 14:01:41 +0000";
layers = (
{
hints = (
{
horizontal = 1;
place = "{365, 116}";
type = Stem;
},
{
horizontal = 1;
place = "{584, 126}";
type = Stem;
},
{
place = "{197, 133}";
type = Stem;
},
{
place = "{491, 169}";
type = Stem;
}
);
layerId = "A3F1973E-A54C-4051-9E3B-DFD359A8ED51";
paths = (
{
closed = 1;
nodes = (
"23 -67 OFFCURVE",
"355 -26 OFFCURVE",
"317 9 CURVE",
"292 40 OFFCURVE",
"294 127 OFFCURVE",
"294 165 CURVE SMOOTH",
"294 289 OFFCURVE",
"292 385 OFFCURVE",
"286 502 CURVE SMOOTH",
"278 640 LINE SMOOTH",
"277 670 OFFCURVE",
"257 749 OFFCURVE",
"295 749 CURVE SMOOTH",
"361 749 OFFCURVE",
"418 724 OFFCURVE",
"487 603 CURVE SMOOTH",
"503 576 OFFCURVE",
"478 569 OFFCURVE",
"468 560 CURVE SMOOTH",
"423 518 OFFCURVE",
"470 525 OFFCURVE",
"532 554 CURVE SMOOTH",
"562 569 OFFCURVE",
"659 610 OFFCURVE",
"611 610 CURVE SMOOTH",
"542 610 OFFCURVE",
"588 613 OFFCURVE",
"471 764 CURVE SMOOTH",
"400 856 OFFCURVE",
"360 832 OFFCURVE",
"284 839 CURVE SMOOTH",
"191 846 OFFCURVE",
"142 840 OFFCURVE",
"126 836 CURVE SMOOTH",
"99 829 OFFCURVE",
"40 814 OFFCURVE",
"58 782 CURVE SMOOTH",
"69 763 OFFCURVE",
"95 760 OFFCURVE",
"122 757 CURVE SMOOTH",
"178 749 OFFCURVE",
"198 708 OFFCURVE",
"198 658 CURVE SMOOTH",
"198 100 LINE SMOOTH",
"198 73 OFFCURVE",
"202 5 OFFCURVE",
"153 -14 CURVE SMOOTH",
"113 -31 LINE SMOOTH"
);
}
);
width = 679;
}
);
note = l;
unicode = 006C;
},
{
glyphname = m;
lastChange = "2021-12-30 14:01:37 +0000";
layers = (
{
hints = (
{
horizontal = 1;
place = "{-181, 101}";
type = Stem;
},
{
place = "{136, 129}";
type = Stem;
},
{
place = "{751, 133}";
type = Stem;
},
{
place = "{743, 140}";
type = Stem;
}
);
layerId = "A3F1973E-A54C-4051-9E3B-DFD359A8ED51";
paths = (
{
closed = 1;
nodes = (
"92 -34 OFFCURVE",
"125 -32 OFFCURVE",
"175 -24 CURVE SMOOTH",
"259 -10 OFFCURVE",
"339 18 OFFCURVE",
"262 18 CURVE",
"192 7 OFFCURVE",
"213 142 OFFCURVE",
"213 159 CURVE SMOOTH",
"213 168 OFFCURVE",
"218 180 OFFCURVE",
"226 190 CURVE SMOOTH",
"256 229 OFFCURVE",
"290 285 OFFCURVE",
"328 319 CURVE SMOOTH",
"437 418 LINE",
"494 363 OFFCURVE",
"543 308 OFFCURVE",
"603 242 CURVE SMOOTH",
"719 114 OFFCURVE",
"800 40 OFFCURVE",
"717 40 CURVE SMOOTH",
"687 40 OFFCURVE",
"752 -9 OFFCURVE",
"800 -28 CURVE SMOOTH",
"823 -37 OFFCURVE",
"904 -19 OFFCURVE",
"869 7 CURVE SMOOTH",
"848 24 OFFCURVE",
"832 49 OFFCURVE",
"832 86 CURVE SMOOTH",
"832 174 LINE SMOOTH",
"832 298 OFFCURVE",
"829 418 OFFCURVE",
"831 542 CURVE SMOOTH",
"832 656 LINE SMOOTH",
"833 687 OFFCURVE",
"830 717 OFFCURVE",
"832 748 CURVE SMOOTH",
"837 811 LINE SMOOTH",
"839 831 OFFCURVE",
"848 859 OFFCURVE",
"819 867 CURVE SMOOTH",
"781 878 OFFCURVE",
"621 779 OFFCURVE",
"694 801 CURVE",
"717 794 OFFCURVE",
"727 796 OFFCURVE",
"738 769 CURVE SMOOTH",
"741 762 OFFCURVE",
"737 771 OFFCURVE",
"717 750 CURVE SMOOTH",
"662 690 OFFCURVE",
"597 628 OFFCURVE",
"528 551 CURVE SMOOTH",
"513 534 OFFCURVE",
"499 516 OFFCURVE",
"483 501 CURVE",
"434 552 LINE SMOOTH",
"409 579 OFFCURVE",
"380 607 OFFCURVE",
"356 635 CURVE SMOOTH",
"278 726 LINE SMOOTH",
"261 746 OFFCURVE",
"246 791 OFFCURVE",
"224 812 CURVE",
"228 828 OFFCURVE",
"224 845 OFFCURVE",
"205 841 CURVE SMOOTH",
"121 826 OFFCURVE",
"57 812 OFFCURVE",
"71 779 CURVE SMOOTH",
"80 759 OFFCURVE",
"103 765 OFFCURVE",
"115 744 CURVE SMOOTH",
"143 690 OFFCURVE",
"137 616 OFFCURVE",
"137 561 CURVE SMOOTH",
"136 263 LINE SMOOTH",
"136 146 OFFCURVE",
"140 21 OFFCURVE",
"97 0 CURVE SMOOTH",
"69 -13 OFFCURVE",
"63 -22 OFFCURVE",
"77 -28 CURVE SMOOTH"
);
},
{
closed = 1;
nodes = (
"215 312 LINE",
"218 549 LINE SMOOTH",
"218 574 OFFCURVE",
"216 599 OFFCURVE",
"218 623 CURVE",
"259 593 LINE SMOOTH",
"319 549 OFFCURVE",
"363 491 OFFCURVE",
"413 441 CURVE",
"316 350 LINE SMOOTH",
"281 317 OFFCURVE",
"247 280 OFFCURVE",
"215 245 CURVE"
);
},
{
closed = 1;
nodes = (
"733 226 LINE SMOOTH",
"716 231 OFFCURVE",
"697 257 OFFCURVE",
"683 270 CURVE SMOOTH",
"611 337 OFFCURVE",
"571 409 OFFCURVE",
"505 479 CURVE",
"539 516 LINE SMOOTH",
"617 598 OFFCURVE",
"658 663 OFFCURVE",
"744 737 CURVE",
"746 718 OFFCURVE",
"744 698 OFFCURVE",
"744 679 CURVE SMOOTH",
"744 570 LINE SMOOTH",
"744 495 OFFCURVE",
"746 418 OFFCURVE",
"747 344 CURVE SMOOTH",
"749 221 LINE"
);
}
);
width = 947;
}
);
note = m;
unicode = 006D;
},
{
glyphname = n;
lastChange = "2021-12-30 14:01:40 +0000";
layers = (
{
hints = (
{
horizontal = 1;
place = "{-204, 948}";
type = Stem;
},
{
place = "{419, 136}";
type = Stem;
},
{
place = "{421, 142}";
type = Stem;
}
);
layerId = "A3F1973E-A54C-4051-9E3B-DFD359A8ED51";
paths = (
{
closed = 1;
nodes = (
"429 -42 OFFCURVE",
"466 -38 OFFCURVE",
"514 -32 CURVE SMOOTH",
"561 -27 OFFCURVE",
"580 -9 OFFCURVE",
"574 21 CURVE",
"507 -2 OFFCURVE",
"504 64 OFFCURVE",
"505 118 CURVE SMOOTH",
"506 210 LINE SMOOTH",
"507 274 OFFCURVE",
"508 338 OFFCURVE",
"508 402 CURVE SMOOTH",
"508 413 LINE",
"532 399 OFFCURVE",
"556 388 OFFCURVE",
"578 369 CURVE SMOOTH",
"610 342 OFFCURVE",
"670 335 OFFCURVE",
"670 290 CURVE SMOOTH",
"670 279 OFFCURVE",
"657 280 OFFCURVE",
"668 269 CURVE SMOOTH",
"673 264 OFFCURVE",
"683 264 OFFCURVE",
"691 265 CURVE SMOOTH",
"705 266 OFFCURVE",
"719 274 OFFCURVE",
"735 280 CURVE SMOOTH",
"754 287 OFFCURVE",
"775 303 OFFCURVE",
"787 318 CURVE SMOOTH",
"792 323 OFFCURVE",
"810 342 OFFCURVE",
"806 350 CURVE SMOOTH",
"800 364 OFFCURVE",
"780 350 OFFCURVE",
"767 349 CURVE SMOOTH",
"723 347 OFFCURVE",
"686 370 OFFCURVE",
"650 394 CURVE SMOOTH",
"608 421 OFFCURVE",
"567 445 OFFCURVE",
"522 471 CURVE SMOOTH",
"508 479 LINE",
"511 540 OFFCURVE",
"517 602 OFFCURVE",
"515 666 CURVE SMOOTH",
"514 700 OFFCURVE",
"524 737 OFFCURVE",
"526 772 CURVE SMOOTH",
"528 804 OFFCURVE",
"540 866 OFFCURVE",
"498 851 CURVE SMOOTH",
"468 840 OFFCURVE",
"435 833 OFFCURVE",
"407 822 CURVE SMOOTH",
"386 813 OFFCURVE",
"342 808 OFFCURVE",
"328 791 CURVE",
"363 752 OFFCURVE",
"424 764 OFFCURVE",
"421 693 CURVE SMOOTH",
"419 640 OFFCURVE",
"419 584 OFFCURVE",
"421 528 CURVE",
"283 614 LINE SMOOTH",
"257 631 OFFCURVE",
"229 651 OFFCURVE",
"206 672 CURVE SMOOTH",
"198 679 OFFCURVE",
"192 693 OFFCURVE",
"182 699 CURVE SMOOTH",
"157 713 OFFCURVE",
"103 697 OFFCURVE",
"81 683 CURVE SMOOTH",
"73 677 OFFCURVE",
"60 662 OFFCURVE",
"67 651 CURVE SMOOTH",
"73 641 OFFCURVE",
"96 648 OFFCURVE",
"108 646 CURVE SMOOTH",
"141 641 OFFCURVE",
"173 613 OFFCURVE",
"204 594 CURVE SMOOTH",
"421 464 LINE",
"418 274 LINE SMOOTH",
"417 216 OFFCURVE",
"420 183 OFFCURVE",
"414 94 CURVE SMOOTH",
"412 73 OFFCURVE",
"407 43 OFFCURVE",
"403 21 CURVE SMOOTH",
"394 -31 OFFCURVE",
"350 -54 OFFCURVE",
"399 -46 CURVE SMOOTH"
);
}
);
width = 872;
}
);
note = n;
unicode = 006E;
},
{
glyphname = o;
lastChange = "2021-12-30 14:01:40 +0000";
layers = (
{
hints = (
{
horizontal = 1;
place = "{2, 112}";
type = Stem;
},
{
horizontal = 1;
place = "{297, 90}";
type = Stem;
},
{
horizontal = 1;
place = "{381, 136}";
type = Stem;
},
{
horizontal = 1;
place = "{640, 74}";
type = Stem;
},
{
place = "{120, 107}";
type = Stem;
},
{
place = "{133, 112}";
type = Stem;
},
{
place = "{389, 187}";
type = Stem;
}
);
layerId = "A3F1973E-A54C-4051-9E3B-DFD359A8ED51";
paths = (
{
closed = 1;
nodes = (
"268 -5 OFFCURVE",
"192 -14 OFFCURVE",
"194 31 CURVE SMOOTH",
"195 71 OFFCURVE",
"195 117 OFFCURVE",
"195 153 CURVE SMOOTH",
"195 201 OFFCURVE",
"191 247 OFFCURVE",
"191 293 CURVE SMOOTH",
"191 306 OFFCURVE",
"193 346 OFFCURVE",
"207 349 CURVE SMOOTH",
"227 354 OFFCURVE",
"250 307 OFFCURVE",
"260 291 CURVE SMOOTH",
"330 167 OFFCURVE",
"293 174 OFFCURVE",
"348 174 CURVE SMOOTH",
"363 174 OFFCURVE",
"395 172 OFFCURVE",
"402 204 CURVE SMOOTH",
"416 264 LINE SMOOTH",
"432 337 OFFCURVE",
"451 373 OFFCURVE",
"471 408 CURVE SMOOTH",
"498 456 OFFCURVE",
"518 508 OFFCURVE",
"509 523 CURVE SMOOTH",
"495 546 OFFCURVE",
"330 452 OFFCURVE",
"396 461 CURVE",
"411 466 OFFCURVE",
"465 505 OFFCURVE",
"411 365 CURVE SMOOTH",
"383 294 OFFCURVE",
"388 254 OFFCURVE",
"361 254 CURVE SMOOTH",
"351 254 OFFCURVE",
"322 321 OFFCURVE",
"317 330 CURVE SMOOTH",
"299 362 OFFCURVE",
"287 399 OFFCURVE",
"253 442 CURVE SMOOTH",
"223 481 OFFCURVE",
"212 477 OFFCURVE",
"212 525 CURVE SMOOTH",
"212 601 OFFCURVE",
"202 782 OFFCURVE",
"227 764 CURVE SMOOTH",
"252 746 OFFCURVE",
"274 697 OFFCURVE",
"309 650 CURVE SMOOTH",
"378 557 OFFCURVE",
"378 537 OFFCURVE",
"404 567 CURVE SMOOTH",
"432 601 OFFCURVE",
"449 663 OFFCURVE",
"463 706 CURVE SMOOTH",
"473 737 LINE SMOOTH",
"478 754 OFFCURVE",
"496 809 OFFCURVE",
"508 822 CURVE",
"539 849 OFFCURVE",
"568 880 OFFCURVE",
"509 863 CURVE SMOOTH",
"455 846 OFFCURVE",
"457 863 OFFCURVE",
"401 838 CURVE",
"355 806 OFFCURVE",
"457 846 OFFCURVE",
"430 737 CURVE SMOOTH",
"424 717 OFFCURVE",
"398 635 OFFCURVE",
"382 663 CURVE",
"355 699 OFFCURVE",
"343 725 OFFCURVE",
"317 774 CURVE SMOOTH",
"303 800 OFFCURVE",
"276 853 OFFCURVE",
"245 858 CURVE SMOOTH",
"216 863 OFFCURVE",
"190 854 OFFCURVE",
"148 854 CURVE SMOOTH",
"120 854 OFFCURVE",
"76 826 OFFCURVE",
"54 809 CURVE",
"34 787 OFFCURVE",
"94 828 OFFCURVE",
"114 804 CURVE SMOOTH",
"128 788 OFFCURVE",
"128 765 OFFCURVE",
"129 740 CURVE SMOOTH",
"138 616 OFFCURVE",
"131 494 OFFCURVE",
"128 371 CURVE SMOOTH",
"124 256 OFFCURVE",
"125 183 OFFCURVE",
"120 9 CURVE SMOOTH",
"118 -46 OFFCURVE",
"28 -81 OFFCURVE",
"194 -29 CURVE SMOOTH"
);
}
);
width = 593;
}
);
note = o;
unicode = 006F;
},
{
glyphname = p;
lastChange = "2021-12-30 14:01:37 +0000";
layers = (
{
hints = (
{
horizontal = 1;
place = "{-26, 82}";
type = Stem;
},
{
horizontal = 1;
place = "{471, 112}";
type = Stem;
},
{
horizontal = 1;
place = "{683, 62}";
type = Stem;
},
{
place = "{109, 99}";
type = Stem;
},
{
place = "{389, 81}";
type = Stem;
},
{
place = "{378, 79}";
type = Stem;
}
);
layerId = "A3F1973E-A54C-4051-9E3B-DFD359A8ED51";
paths = (
{
closed = 1;
nodes = (
"357 -56 OFFCURVE",
"468 -50 OFFCURVE",
"453 -15 CURVE SMOOTH",
"433 27 OFFCURVE",
"446 151 OFFCURVE",
"446 194 CURVE SMOOTH",
"446 242 OFFCURVE",
"243 85 OFFCURVE",
"179 55 CURVE",
"179 151 OFFCURVE",
"179 742 OFFCURVE",
"195 795 CURVE",
"286 722 LINE SMOOTH",
"332 685 OFFCURVE",
"339 632 OFFCURVE",
"409 651 CURVE SMOOTH",
"454 663 OFFCURVE",
"395 890 OFFCURVE",
"478 855 CURVE",
"535 846 OFFCURVE",
"377 923 OFFCURVE",
"376 874 CURVE SMOOTH",
"373 775 OFFCURVE",
"388 710 OFFCURVE",
"364 735 CURVE SMOOTH",
"324 776 OFFCURVE",
"213 884 OFFCURVE",
"168 867 CURVE SMOOTH",
"65 828 LINE",
"6 784 OFFCURVE",
"108 811 OFFCURVE",
"108 656 CURVE SMOOTH",
"108 258 LINE",
"99 4 OFFCURVE",
"50 0 OFFCURVE",
"108 -26 CURVE SMOOTH",
"133 -37 OFFCURVE",
"136 0 OFFCURVE",
"183 30 CURVE SMOOTH",
"420 184 OFFCURVE",
"388 167 OFFCURVE",
"389 105 CURVE SMOOTH",
"390 48 OFFCURVE",
"391 -1 OFFCURVE",
"371 -33 CURVE SMOOTH"
);
}
);
width = 537;
}
);
note = p;
unicode = 0070;
},
{
glyphname = thorn;
lastChange = "2021-12-30 14:01:37 +0000";
layers = (
{
hints = (
{
horizontal = 1;
place = "{-200, 904}";
type = Stem;
},
{
place = "{131, 99}";
type = Stem;
}
);
layerId = "A3F1973E-A54C-4051-9E3B-DFD359A8ED51";
paths = (
{
closed = 1;
nodes = (
"58 -44 OFFCURVE",
"165 -9 OFFCURVE",
"183 -4 CURVE SMOOTH",
"213 5 OFFCURVE",
"241 3 OFFCURVE",
"223 22 CURVE SMOOTH",
"192 52 OFFCURVE",
"196 70 OFFCURVE",
"199 120 CURVE SMOOTH",
"200 164 OFFCURVE",
"201 179 OFFCURVE",
"203 228 CURVE",
"265 285 LINE SMOOTH",
"292 310 OFFCURVE",
"310 329 OFFCURVE",
"387 408 CURVE SMOOTH",
"425 448 OFFCURVE",
"453 469 OFFCURVE",
"440 479 CURVE SMOOTH",
"358 549 OFFCURVE",
"323 578 OFFCURVE",
"205 664 CURVE",
"206 770 LINE SMOOTH",
"207 827 OFFCURVE",
"227 868 OFFCURVE",
"173 841 CURVE SMOOTH",
"146 828 OFFCURVE",
"121 815 OFFCURVE",
"95 800 CURVE SMOOTH",
"85 794 OFFCURVE",
"63 785 OFFCURVE",
"63 770 CURVE SMOOTH",
"64 734 OFFCURVE",
"135 814 OFFCURVE",
"128 597 CURVE SMOOTH",
"126 463 OFFCURVE",
"131 422 OFFCURVE",
"131 178 CURVE SMOOTH",
"131 90 OFFCURVE",
"142 6 OFFCURVE",
"98 -20 CURVE SMOOTH"
);
},
{
closed = 1;
nodes = (
"202 370 LINE SMOOTH",
"202 424 OFFCURVE",
"204 459 OFFCURVE",
"206 578 CURVE",
"282 523 OFFCURVE",
"357 456 OFFCURVE",
"381 439 CURVE",
"394 422 OFFCURVE",
"347 390 OFFCURVE",
"296 341 CURVE SMOOTH",
"201 251 LINE"
);
}
);
width = 506;
}
);
note = thorn;
unicode = 00FE;
},
{
glyphname = r;
lastChange = "2021-12-30 14:01:40 +0000";
layers = (
{
hints = (
{
horizontal = 1;
place = "{293, 95}";
type = Stem;
},
{
horizontal = 1;
place = "{609, 104}";
type = Stem;
},
{
place = "{163, 114}";
type = Stem;
},
{
place = "{423, 88}";
type = Stem;
},
{
horizontal = 1;
place = "{272, 83}";
type = Stem;
},
{
place = "{466, 97}";
type = Stem;
}
);
layerId = "A3F1973E-A54C-4051-9E3B-DFD359A8ED51";
paths = (
{
closed = 1;
nodes = (
"120 -71 OFFCURVE",
"206 -46 OFFCURVE",
"228 -32 CURVE",
"287 -5 LINE",
"335 32 OFFCURVE",
"262 15 OFFCURVE",
"251 27 CURVE SMOOTH",
"237 42 OFFCURVE",
"241 73 OFFCURVE",
"243 91 CURVE",
"241 311 LINE SMOOTH",
"241 338 OFFCURVE",
"231 440 OFFCURVE",
"259 440 CURVE",
"287 450 OFFCURVE",
"314 450 OFFCURVE",
"335 450 CURVE SMOOTH",
"380 450 OFFCURVE",
"395 468 OFFCURVE",
"437 459 CURVE SMOOTH",
"465 455 OFFCURVE",
"461 415 OFFCURVE",
"461 394 CURVE SMOOTH",
"461 360 OFFCURVE",
"467 329 OFFCURVE",
"467 294 CURVE SMOOTH",
"467 240 OFFCURVE",
"467 185 OFFCURVE",
"469 131 CURVE SMOOTH",
"469 97 OFFCURVE",
"449 13 OFFCURVE",
"508 26 CURVE SMOOTH",
"612 50 OFFCURVE",
"641 97 OFFCURVE",
"584 69 CURVE",
"557 69 OFFCURVE",
"543 73 OFFCURVE",
"534 107 CURVE SMOOTH",
"527 132 OFFCURVE",
"531 158 OFFCURVE",
"528 186 CURVE",
"525 281 OFFCURVE",
"528 376 OFFCURVE",
"521 469 CURVE SMOOTH",
"519 533 OFFCURVE",
"462 526 OFFCURVE",
"392 513 CURVE",
"444 581 OFFCURVE",
"521 717 OFFCURVE",
"439 812 CURVE",
"371 866 OFFCURVE",
"343 838 OFFCURVE",
"241 838 CURVE",
"204 848 OFFCURVE",
"185 848 OFFCURVE",
"157 838 CURVE",
"120 821 OFFCURVE",
"75 821 OFFCURVE",
"55 783 CURVE",
"47 756 OFFCURVE",
"83 802 OFFCURVE",
"141 772 CURVE",
"166 750 OFFCURVE",
"161 674 OFFCURVE",
"163 643 CURVE",
"157 643 OFFCURVE",
"166 59 OFFCURVE",
"164 67 CURVE",
"166 29 OFFCURVE",
"176 -15 OFFCURVE",
"148 -48 CURVE"
);
},
{
closed = 1;
nodes = (
"231 588 OFFCURVE",
"231 691 OFFCURVE",
"241 793 CURVE",
"241 802 OFFCURVE",
"314 783 OFFCURVE",
"335 783 CURVE",
"390 756 OFFCURVE",
"404 715 OFFCURVE",
"420 666 CURVE",
"428 618 OFFCURVE",
"422 586 OFFCURVE",
"405 571 CURVE SMOOTH",
"387 556 OFFCURVE",
"367 538 OFFCURVE",
"345 519 CURVE",
"320 504 OFFCURVE",
"267 486 OFFCURVE",
"239 486 CURVE"
);
}
);
width = 667;
}
);
note = r;
unicode = 0072;
},
{
glyphname = s;
lastChange = "2021-12-30 14:01:40 +0000";
layers = (
{
hints = (
{
horizontal = 1;
place = "{-242, 44}";
type = Stem;
},
{
horizontal = 1;
place = "{607, 108}";
type = Stem;
},
{
place = "{256, 113}";
type = Stem;
},
{
place = "{462, 117}";
type = Stem;
},
{
horizontal = 1;
place = "{-231, 45}";
type = Stem;
}
);
layerId = "A3F1973E-A54C-4051-9E3B-DFD359A8ED51";
paths = (
{
closed = 1;
nodes = (
"314 -83 OFFCURVE",
"416 -60 OFFCURVE",
"457 -59 CURVE SMOOTH",
"549 -60 OFFCURVE",
"621 -60 OFFCURVE",
"570 -50 CURVE",
"549 -41 OFFCURVE",
"537 -50 OFFCURVE",
"521 -34 CURVE SMOOTH",
"512 -24 OFFCURVE",
"516 -4 OFFCURVE",
"516 8 CURVE SMOOTH",
"518 30 OFFCURVE",
"520 51 OFFCURVE",
"520 72 CURVE SMOOTH",
"520 122 OFFCURVE",
"526 170 OFFCURVE",
"526 220 CURVE SMOOTH",
"526 328 OFFCURVE",
"537 434 OFFCURVE",
"544 544 CURVE SMOOTH",
"544 566 OFFCURVE",
"554 637 OFFCURVE",
"518 610 CURVE",
"486 580 OFFCURVE",
"452 559 OFFCURVE",
"414 535 CURVE",
"407 532 OFFCURVE",
"322 457 OFFCURVE",
"334 504 CURVE",
"332 557 OFFCURVE",
"334 606 OFFCURVE",
"344 668 CURVE",
"344 700 OFFCURVE",
"344 729 OFFCURVE",
"353 762 CURVE",
"356 783 OFFCURVE",
"384 826 OFFCURVE",
"372 846 CURVE",
"355 863 OFFCURVE",
"355 863 OFFCURVE",
"303 853 CURVE",
"262 853 OFFCURVE",
"210 853 OFFCURVE",
"171 852 CURVE SMOOTH",
"152 853 OFFCURVE",
"129 853 OFFCURVE",
"109 843 CURVE",
"85 821 OFFCURVE",
"57 807 OFFCURVE",
"53 789 CURVE SMOOTH",
"47 762 OFFCURVE",
"154 796 OFFCURVE",
"200 800 CURVE",
"228 800 OFFCURVE",
"244 803 OFFCURVE",
"254 779 CURVE",
"262 750 OFFCURVE",
"253 535 OFFCURVE",
"244 457 CURVE",
"244 436 OFFCURVE",
"228 430 OFFCURVE",
"256 424 CURVE SMOOTH",
"270 422 OFFCURVE",
"305 440 OFFCURVE",
"315 446 CURVE",
"370 470 OFFCURVE",
"410 515 OFFCURVE",
"464 537 CURVE",
"462 458 LINE SMOOTH",
"460 383 OFFCURVE",
"454 306 OFFCURVE",
"449 231 CURVE SMOOTH",
"446 151 OFFCURVE",
"446 71 OFFCURVE",
"434 -7 CURVE SMOOTH",
"430 -29 OFFCURVE",
"426 -46 OFFCURVE",
"404 -50 CURVE",
"394 -50 OFFCURVE",
"386 -60 OFFCURVE",
"373 -60 CURVE"
);
}
);
width = 639;
}
);
note = s;
unicode = 0073;
},
{
glyphname = t;
lastChange = "2021-12-30 14:01:37 +0000";
layers = (
{
hints = (
{
horizontal = 1;
place = "{320, 108}";
type = Stem;
},
{
horizontal = 1;
place = "{559, 168}";
type = Stem;
},
{
place = "{58, 88}";
type = Stem;
},
{
place = "{320, 125}";
type = Stem;
},
{
horizontal = 1;
place = "{579, 139}";
type = Stem;
}
);
layerId = "A3F1973E-A54C-4051-9E3B-DFD359A8ED51";
paths = (
{
closed = 1;
nodes = (
"489 -44 OFFCURVE",
"499 -47 OFFCURVE",
"440 -22 CURVE SMOOTH",
"382 3 OFFCURVE",
"406 160 OFFCURVE",
"406 366 CURVE SMOOTH",
"406 598 LINE SMOOTH",
"406 627 OFFCURVE",
"408 690 OFFCURVE",
"412 716 CURVE",
"423 748 OFFCURVE",
"479 654 OFFCURVE",
"497 627 CURVE SMOOTH",
"552 547 OFFCURVE",
"563 448 OFFCURVE",
"628 496 CURVE SMOOTH",
"656 518 OFFCURVE",
"712 553 OFFCURVE",
"661 553 CURVE SMOOTH",
"619 553 OFFCURVE",
"609 578 OFFCURVE",
"588 611 CURVE SMOOTH",
"545 683 LINE SMOOTH",
"523 718 OFFCURVE",
"477 815 OFFCURVE",
"449 839 CURVE SMOOTH",
"423 861 OFFCURVE",
"423 841 OFFCURVE",
"376 841 CURVE SMOOTH",
"340 841 OFFCURVE",
"331 831 OFFCURVE",
"302 803 CURVE SMOOTH",
"235 738 OFFCURVE",
"215 695 OFFCURVE",
"108 569 CURVE SMOOTH",
"87 545 OFFCURVE",
"58 518 OFFCURVE",
"58 490 CURVE SMOOTH",
"58 462 OFFCURVE",
"95 425 OFFCURVE",
"105 480 CURVE SMOOTH",
"111 509 OFFCURVE",
"105 528 OFFCURVE",
"123 547 CURVE SMOOTH",
"199 631 OFFCURVE",
"293 766 OFFCURVE",
"311 739 CURVE SMOOTH",
"330 709 OFFCURVE",
"321 618 OFFCURVE",
"321 570 CURVE SMOOTH",
"321 267 LINE SMOOTH",
"321 -43 OFFCURVE",
"321 -21 OFFCURVE",
"275 -33 CURVE SMOOTH",
"186 -57 OFFCURVE",
"266 -48 OFFCURVE",
"349 -47 CURVE SMOOTH"
);
}
);
width = 740;
}
);
note = t;
unicode = 0074;
},
{
glyphname = u;
lastChange = "2021-12-30 14:01:37 +0000";
layers = (
{
hints = (
{
horizontal = 1;
place = "{552, 191}";
type = Stem;
},
{
place = "{683, 108}";
type = Stem;
}
);
layerId = "A3F1973E-A54C-4051-9E3B-DFD359A8ED51";
paths = (
{
closed = 1;
nodes = (
"158 -44 OFFCURVE",
"199 -34 OFFCURVE",
"280 -9 CURVE SMOOTH",
"305 0 OFFCURVE",
"335 7 OFFCURVE",
"340 33 CURVE SMOOTH",
"342 50 OFFCURVE",
"326 66 OFFCURVE",
"317 82 CURVE",
"308 103 OFFCURVE",
"313 130 OFFCURVE",
"313 153 CURVE SMOOTH",
"313 239 LINE SMOOTH",
"313 299 OFFCURVE",
"317 358 OFFCURVE",
"316 415 CURVE SMOOTH",
"312 502 OFFCURVE",
"315 662 OFFCURVE",
"331 692 CURVE SMOOTH",
"349 724 OFFCURVE",
"431 682 OFFCURVE",
"505 629 CURVE SMOOTH",
"568 582 OFFCURVE",
"636 540 OFFCURVE",
"666 468 CURVE SMOOTH",
"685 423 OFFCURVE",
"688 367 OFFCURVE",
"685 313 CURVE SMOOTH",
"682 257 LINE SMOOTH",
"679 189 OFFCURVE",
"679 116 OFFCURVE",
"662 51 CURVE SMOOTH",
"652 14 OFFCURVE",
"638 -3 OFFCURVE",
"685 -6 CURVE SMOOTH",
"721 -8 OFFCURVE",
"751 9 OFFCURVE",
"778 28 CURVE SMOOTH",
"805 48 OFFCURVE",
"838 79 OFFCURVE",
"864 111 CURVE",
"892 158 OFFCURVE",
"794 66 OFFCURVE",
"748 78 CURVE SMOOTH",
"720 85 OFFCURVE",
"794 301 OFFCURVE",
"773 429 CURVE SMOOTH",
"764 488 OFFCURVE",
"752 531 OFFCURVE",
"703 574 CURVE SMOOTH",
"571 688 LINE SMOOTH",
"522 731 OFFCURVE",
"462 761 OFFCURVE",
"404 788 CURVE SMOOTH",
"325 826 OFFCURVE",
"326 855 OFFCURVE",
"255 840 CURVE SMOOTH",
"107 808 OFFCURVE",
"176 812 OFFCURVE",
"87 758 CURVE SMOOTH",
"4 707 OFFCURVE",
"232 787 OFFCURVE",
"232 644 CURVE SMOOTH",
"232 530 OFFCURVE",
"235 415 OFFCURVE",
"229 299 CURVE SMOOTH",
"226 222 OFFCURVE",
"245 131 OFFCURVE",
"209 64 CURVE SMOOTH",
"186 22 LINE SMOOTH",
"165 -13 OFFCURVE",
"156 -33 OFFCURVE",
"157 -38 CURVE SMOOTH"
);
}
);
width = 938;
}
);
note = u;
unicode = 0075;
},
{
glyphname = w;
lastChange = "2021-12-30 14:01:37 +0000";
layers = (
{
hints = (
{
horizontal = 1;
place = "{621, 78}";
type = Stem;
},
{
place = "{104, 99}";
type = Stem;
},
{
place = "{338, 108}";
type = Stem;
},
{
place = "{111, 95}";
type = Stem;
}
);
layerId = "A3F1973E-A54C-4051-9E3B-DFD359A8ED51";
paths = (
{
closed = 1;
nodes = (
"139 -24 OFFCURVE",
"206 -44 OFFCURVE",
"174 8 CURVE",
"171 39 OFFCURVE",
"178 185 OFFCURVE",
"178 295 CURVE SMOOTH",
"178 317 OFFCURVE",
"223 337 OFFCURVE",
"279 406 CURVE SMOOTH",
"362 507 OFFCURVE",
"392 542 OFFCURVE",
"415 652 CURVE",
"419 728 OFFCURVE",
"430 777 OFFCURVE",
"408 809 CURVE SMOOTH",
"384 846 OFFCURVE",
"327 849 OFFCURVE",
"206 849 CURVE SMOOTH",
"148 849 OFFCURVE",
"124 864 OFFCURVE",
"77 839 CURVE SMOOTH",
"52 826 LINE",
"18 796 OFFCURVE",
"95 810 OFFCURVE",
"102 777 CURVE SMOOTH",
"108 748 OFFCURVE",
"111 649 OFFCURVE",
"111 638 CURVE SMOOTH",
"111 531 OFFCURVE",
"111 458 OFFCURVE",
"108 351 CURVE SMOOTH",
"102 81 LINE",
"99 51 OFFCURVE",
"101 16 OFFCURVE",
"79 -9 CURVE SMOOTH",
"67 -22 OFFCURVE",
"55 -21 OFFCURVE",
"67 -29 CURVE"
);
},
{
closed = 1;
nodes = (
"179 476 OFFCURVE",
"177 552 OFFCURVE",
"180 698 CURVE SMOOTH",
"180 721 OFFCURVE",
"180 788 OFFCURVE",
"275 796 CURVE",
"310 796 OFFCURVE",
"343 748 OFFCURVE",
"338 646 CURVE SMOOTH",
"333 544 OFFCURVE",
"313 490 OFFCURVE",
"177 326 CURVE"
);
}
);
width = 464;
}
);
note = w;
unicode = 0077;
},
{
glyphname = x;
lastChange = "2021-12-30 14:01:40 +0000";
layers = (
{
hints = (
{
horizontal = 1;
place = "{-192, 940}";
type = Stem;
},
{
place = "{388, 125}";
type = Stem;
}
);
layerId = "A3F1973E-A54C-4051-9E3B-DFD359A8ED51";
paths = (
{
closed = 1;
nodes = (
"497 12 OFFCURVE",
"469 16 OFFCURVE",
"469 89 CURVE SMOOTH",
"469 402 LINE SMOOTH",
"470 453 OFFCURVE",
"693 688 OFFCURVE",
"702 698 CURVE SMOOTH",
"723 724 OFFCURVE",
"775 788 OFFCURVE",
"733 784 CURVE",
"665 752 OFFCURVE",
"464 466 OFFCURVE",
"469 522 CURVE",
"478 795 LINE SMOOTH",
"479 834 OFFCURVE",
"525 870 OFFCURVE",
"474 860 CURVE",
"397 808 OFFCURVE",
"351 808 OFFCURVE",
"328 767 CURVE",
"354 766 OFFCURVE",
"376 770 OFFCURVE",
"379 756 CURVE SMOOTH",
"397 696 OFFCURVE",
"388 631 OFFCURVE",
"388 533 CURVE SMOOTH",
"388 503 OFFCURVE",
"297 592 OFFCURVE",
"268 625 CURVE SMOOTH",
"188 717 LINE SMOOTH",
"169 739 OFFCURVE",
"147 778 OFFCURVE",
"115 778 CURVE",
"96 767 OFFCURVE",
"65 747 OFFCURVE",
"65 726 CURVE",
"55 706 OFFCURVE",
"65 726 OFFCURVE",
"127 665 CURVE",
"250 533 OFFCURVE",
"368 422 OFFCURVE",
"388 402 CURVE",
"388 29 LINE SMOOTH",
"388 -13 OFFCURVE",
"290 -64 OFFCURVE",
"429 -13 CURVE SMOOTH"
);
}
);
width = 811;
}
);
note = x;
unicode = 0078;
},
{
glyphname = y;
lastChange = "2021-12-30 14:01:40 +0000";
layers = (
{
hints = (
{
horizontal = 1;
place = "{145, 130}";
type = Stem;
},
{
place = "{164, 123}";
type = Stem;
},
{
place = "{628, 200}";
type = Stem;
},
{
place = "{159, 134}";
type = Stem;
},
{
horizontal = 1;
place = "{153, 84}";
type = Stem;
}
);
layerId = "A3F1973E-A54C-4051-9E3B-DFD359A8ED51";
paths = (
{
closed = 1;
nodes = (
"237 -26 OFFCURVE",
"276 -18 OFFCURVE",
"272 -1 CURVE",
"255 23 OFFCURVE",
"239 -2 OFFCURVE",
"239 133 CURVE",
"241 164 OFFCURVE",
"239 196 OFFCURVE",
"239 224 CURVE SMOOTH",
"241 245 OFFCURVE",
"241 268 OFFCURVE",
"241 289 CURVE",
"285 291 OFFCURVE",
"335 320 OFFCURVE",
"368 276 CURVE SMOOTH",
"399 234 OFFCURVE",
"407 187 OFFCURVE",
"403 135 CURVE",
"399 111 OFFCURVE",
"401 83 OFFCURVE",
"396 57 CURVE SMOOTH",
"394 41 OFFCURVE",
"368 -5 OFFCURVE",
"369 -18 CURVE",
"378 -47 OFFCURVE",
"486 -24 OFFCURVE",
"475 -3 CURVE",
"468 17 OFFCURVE",
"452 13 OFFCURVE",
"451 42 CURVE SMOOTH",
"448 76 OFFCURVE",
"452 111 OFFCURVE",
"451 144 CURVE SMOOTH",
"448 179 OFFCURVE",
"444 218 OFFCURVE",
"468 249 CURVE SMOOTH",
"509 308 OFFCURVE",
"557 323 OFFCURVE",
"597 295 CURVE",
"609 245 OFFCURVE",
"616 196 OFFCURVE",
"622 144 CURVE SMOOTH",
"624 105 OFFCURVE",
"633 61 OFFCURVE",
"624 22 CURVE",
"623 3 OFFCURVE",
"608 6 OFFCURVE",
"623 -14 CURVE SMOOTH",
"646 -42 OFFCURVE",
"721 -22 OFFCURVE",
"750 -12 CURVE SMOOTH",
"827 12 OFFCURVE",
"744 38 OFFCURVE",
"728 76 CURVE",
"705 121 OFFCURVE",
"714 176 OFFCURVE",
"702 227 CURVE SMOOTH",
"690 291 OFFCURVE",
"672 355 OFFCURVE",
"656 420 CURVE SMOOTH",
"631 510 OFFCURVE",
"580 606 OFFCURVE",
"512 674 CURVE SMOOTH",
"475 711 OFFCURVE",
"423 744 OFFCURVE",
"378 776 CURVE SMOOTH",
"353 796 OFFCURVE",
"329 808 OFFCURVE",
"301 822 CURVE",
"281 828 OFFCURVE",
"269 855 OFFCURVE",
"233 855 CURVE",
"202 846 OFFCURVE",
"169 839 OFFCURVE",
"140 827 CURVE",
"122 817 OFFCURVE",
"76 812 OFFCURVE",
"64 796 CURVE",
"99 757 OFFCURVE",
"163 769 OFFCURVE",
"160 699 CURVE SMOOTH",
"159 564 OFFCURVE",
"162 486 OFFCURVE",
"163 360 CURVE SMOOTH",
"166 286 OFFCURVE",
"162 249 OFFCURVE",
"163 116 CURVE",
"149 3 OFFCURVE",
"32 -17 OFFCURVE",
"122 -26 CURVE SMOOTH",
"164 -31 OFFCURVE",
"192 -30 OFFCURVE",
"211 -30 CURVE"
);
},
{
closed = 1;
nodes = (
"407 289 OFFCURVE",
"386 320 OFFCURVE",
"364 346 CURVE SMOOTH",
"333 378 OFFCURVE",
"295 398 OFFCURVE",
"243 373 CURVE",
"243 413 LINE",
"237 497 OFFCURVE",
"249 586 OFFCURVE",
"249 671 CURVE",
"247 699 OFFCURVE",
"254 723 OFFCURVE",
"255 748 CURVE",
"285 735 OFFCURVE",
"313 718 OFFCURVE",
"335 706 CURVE SMOOTH",
"442 647 OFFCURVE",
"509 535 OFFCURVE",
"557 426 CURVE SMOOTH",
"567 401 OFFCURVE",
"574 373 OFFCURVE",
"583 346 CURVE",
"567 350 OFFCURVE",
"548 346 OFFCURVE",
"535 343 CURVE",
"525 338 OFFCURVE",
"426 266 OFFCURVE",
"428 260 CURVE"
);
}
);
width = 846;
}
);
note = y;
unicode = 0079;
},
{
glyphname = A_two.liga;
lastChange = "2021-12-30 14:01:37 +0000";
layers = (
{
hints = (
{
horizontal = 1;
place = "{382, 152}";
type = Stem;
},
{
horizontal = 1;
place = "{684, 78}";
type = Stem;
},
{
place = "{123, 79}";
type = Stem;
},
{
place = "{116, 103}";
type = Stem;
},
{
place = "{429, 93}";
type = Stem;
},
{
horizontal = 1;
place = "{596, 107}";
type = Stem;
}
);
layerId = "A3F1973E-A54C-4051-9E3B-DFD359A8ED51";
paths = (
{
closed = 1;
nodes = (
"62 -75 OFFCURVE",
"151 -62 OFFCURVE",
"204 -36 CURVE SMOOTH",
"266 -3 OFFCURVE",
"182 -47 OFFCURVE",
"173 129 CURVE SMOOTH",
"170 178 OFFCURVE",
"170 227 OFFCURVE",
"174 277 CURVE SMOOTH",
"182 387 OFFCURVE",
"211 299 OFFCURVE",
"236 266 CURVE SMOOTH",
"255 241 OFFCURVE",
"258 232 OFFCURVE",
"275 203 CURVE SMOOTH",
"289 182 OFFCURVE",
"300 168 OFFCURVE",
"332 165 CURVE SMOOTH",
"379 161 OFFCURVE",
"360 191 OFFCURVE",
"356 203 CURVE SMOOTH",
"345 243 OFFCURVE",
"247 383 OFFCURVE",
"225 409 CURVE SMOOTH",
"196 443 OFFCURVE",
"190 451 OFFCURVE",
"191 500 CURVE SMOOTH",
"192 578 OFFCURVE",
"184 675 OFFCURVE",
"188 752 CURVE",
"200 742 LINE SMOOTH",
"216 728 OFFCURVE",
"275 649 OFFCURVE",
"289 634 CURVE SMOOTH",
"320 597 OFFCURVE",
"337 540 OFFCURVE",
"389 568 CURVE SMOOTH",
"421 583 OFFCURVE",
"436 641 OFFCURVE",
"446 670 CURVE SMOOTH",
"473 742 OFFCURVE",
"493 829 OFFCURVE",
"493 907 CURVE SMOOTH",
"493 921 OFFCURVE",
"429 896 OFFCURVE",
"399 876 CURVE SMOOTH",
"345 841 OFFCURVE",
"429 884 OFFCURVE",
"430 850 CURVE SMOOTH",
"429 809 OFFCURVE",
"395 646 OFFCURVE",
"341 692 CURVE SMOOTH",
"321 710 OFFCURVE",
"307 731 OFFCURVE",
"292 752 CURVE SMOOTH",
"215 856 OFFCURVE",
"188 854 OFFCURVE",
"164 854 CURVE SMOOTH",
"151 854 OFFCURVE",
"93 841 OFFCURVE",
"56 793 CURVE",
"20 735 OFFCURVE",
"106 822 OFFCURVE",
"109 745 CURVE SMOOTH",
"113 622 OFFCURVE",
"126 470 OFFCURVE",
"124 346 CURVE SMOOTH",
"121 229 OFFCURVE",
"131 -19 OFFCURVE",
"103 -42 CURVE SMOOTH"
);
}
);
width = 540;
}
);
note = A_two.liga;
},
{
glyphname = E_A.liga;
lastChange = "2021-12-30 14:01:41 +0000";
layers = (
{
hints = (
{
horizontal = 1;
place = "{247, 105}";
type = Stem;
},
{
place = "{56, 110}";
type = Stem;
},
{
place = "{346, 115}";
type = Stem;
},
{
place = "{623, 78}";
type = Stem;
}
);
layerId = "A3F1973E-A54C-4051-9E3B-DFD359A8ED51";
paths = (
{
closed = 1;
nodes = (
"445 -3 OFFCURVE",
"452 5 OFFCURVE",
"440 8 CURVE SMOOTH",
"429 10 OFFCURVE",
"422 36 OFFCURVE",
"421 83 CURVE SMOOTH",
"420 249 OFFCURVE",
"421 374 OFFCURVE",
"421 498 CURVE SMOOTH",
"421 670 LINE",
"429 655 OFFCURVE",
"530 524 OFFCURVE",
"562 490 CURVE",
"574 470 OFFCURVE",
"601 442 OFFCURVE",
"622 442 CURVE SMOOTH",
"641 442 OFFCURVE",
"659 453 OFFCURVE",
"660 490 CURVE SMOOTH",
"662 549 OFFCURVE",
"660 642 OFFCURVE",
"660 718 CURVE SMOOTH",
"660 793 LINE SMOOTH",
"660 804 OFFCURVE",
"667 841 OFFCURVE",
"649 830 CURVE",
"622 822 OFFCURVE",
"622 808 OFFCURVE",
"622 760 CURVE SMOOTH",
"622 508 LINE",
"560 605 OFFCURVE",
"574 583 OFFCURVE",
"530 645 CURVE SMOOTH",
"448 760 OFFCURVE",
"456 756 OFFCURVE",
"402 830 CURVE",
"394 849 OFFCURVE",
"404 847 OFFCURVE",
"380 849 CURVE SMOOTH",
"368 850 OFFCURVE",
"359 847 OFFCURVE",
"328 796 CURVE SMOOTH",
"301 751 OFFCURVE",
"276 708 OFFCURVE",
"250 662 CURVE SMOOTH",
"167 513 OFFCURVE",
"131 450 OFFCURVE",
"127 490 CURVE",
"119 755 LINE SMOOTH",
"117 839 OFFCURVE",
"152 857 OFFCURVE",
"102 833 CURVE SMOOTH",
"84 824 OFFCURVE",
"57 815 OFFCURVE",
"57 796 CURVE SMOOTH",
"57 478 OFFCURVE",
"64 418 OFFCURVE",
"77 417 CURVE",
"127 397 OFFCURVE",
"147 440 OFFCURVE",
"169 474 CURVE SMOOTH",
"202 524 OFFCURVE",
"240 573 OFFCURVE",
"334 720 CURVE",
"340 615 OFFCURVE",
"339 595 OFFCURVE",
"346 488 CURVE SMOOTH",
"350 414 OFFCURVE",
"346 374 OFFCURVE",
"346 300 CURVE SMOOTH",
"346 63 LINE SMOOTH",
"346 -65 OFFCURVE",
"290 -98 OFFCURVE",
"421 -18 CURVE SMOOTH"
);
}
);
width = 718;
}
);
note = E_A.liga;
},
{
glyphname = J_two.liga;
lastChange = "2021-12-30 14:01:40 +0000";
layers = (
{
hints = (
{
horizontal = 1;
place = "{-200, 973}";
type = Stem;
},
{
place = "{331, 126}";
type = Stem;
},
{
place = "{336, 125}";
type = Stem;
},
{
place = "{336, 130}";
type = Stem;
}
);
layerId = "A3F1973E-A54C-4051-9E3B-DFD359A8ED51";
paths = (
{
closed = 1;
nodes = (
"420 -35 OFFCURVE",
"456 -26 OFFCURVE",
"429 4 CURVE SMOOTH",
"418 18 OFFCURVE",
"417 87 OFFCURVE",
"417 128 CURVE SMOOTH",
"417 200 OFFCURVE",
"417 200 OFFCURVE",
"415 310 CURVE",
"459 259 LINE SMOOTH",
"561 140 OFFCURVE",
"638 -11 OFFCURVE",
"659 50 CURVE SMOOTH",
"676 103 OFFCURVE",
"577 209 OFFCURVE",
"520 291 CURVE SMOOTH",
"418 437 OFFCURVE",
"404 430 OFFCURVE",
"435 476 CURVE SMOOTH",
"536 625 LINE SMOOTH",
"658 806 OFFCURVE",
"722 883 OFFCURVE",
"682 872 CURVE",
"585 772 OFFCURVE",
"504 617 OFFCURVE",
"420 491 CURVE",
"420 563 OFFCURVE",
"423 619 OFFCURVE",
"424 692 CURVE SMOOTH",
"428 801 LINE SMOOTH",
"431 906 OFFCURVE",
"454 919 OFFCURVE",
"354 855 CURVE SMOOTH",
"285 810 OFFCURVE",
"332 815 OFFCURVE",
"335 772 CURVE SMOOTH",
"337 746 OFFCURVE",
"338 665 OFFCURVE",
"337 625 CURVE SMOOTH",
"337 532 LINE",
"288 610 LINE SMOOTH",
"235 693 OFFCURVE",
"167 823 OFFCURVE",
"113 827 CURVE SMOOTH",
"58 832 OFFCURVE",
"20 865 OFFCURVE",
"126 712 CURVE SMOOTH",
"167 653 OFFCURVE",
"229 575 OFFCURVE",
"281 487 CURVE SMOOTH",
"340 387 OFFCURVE",
"331 438 OFFCURVE",
"284 343 CURVE SMOOTH",
"224 224 OFFCURVE",
"50 15 OFFCURVE",
"75 7 CURVE",
"126 32 OFFCURVE",
"255 213 OFFCURVE",
"284 277 CURVE SMOOTH",
"337 390 LINE",
"337 347 OFFCURVE",
"337 308 OFFCURVE",
"335 264 CURVE SMOOTH",
"331 78 LINE SMOOTH",
"331 19 OFFCURVE",
"338 -2 OFFCURVE",
"296 -21 CURVE SMOOTH",
"239 -47 OFFCURVE",
"314 -35 OFFCURVE",
"386 -35 CURVE SMOOTH"
);
}
);
width = 752;
}
);
note = j_two.liga;
},
{
glyphname = K_two.liga;
lastChange = "2021-12-30 14:01:37 +0000";
layers = (
{
hints = (
{
horizontal = 1;
place = "{-213, 64}";
type = Stem;
},
{
horizontal = 1;
place = "{-25, 112}";
type = Stem;
},
{
place = "{341, 128}";
type = Stem;
}
);
layerId = "A3F1973E-A54C-4051-9E3B-DFD359A8ED51";
paths = (
{
closed = 1;
nodes = (
"441 -51 OFFCURVE",
"479 -44 OFFCURVE",
"456 -31 CURVE SMOOTH",
"406 -3 OFFCURVE",
"422 17 OFFCURVE",
"422 284 CURVE SMOOTH",
"422 363 LINE",
"465 309 OFFCURVE",
"468 306 OFFCURVE",
"507 262 CURVE SMOOTH",
"538 227 OFFCURVE",
"604 136 OFFCURVE",
"659 136 CURVE SMOOTH",
"686 136 OFFCURVE",
"752 204 OFFCURVE",
"719 204 CURVE SMOOTH",
"646 204 OFFCURVE",
"599 270 OFFCURVE",
"532 346 CURVE SMOOTH",
"439 452 OFFCURVE",
"426 480 OFFCURVE",
"429 509 CURVE",
"429 678 OFFCURVE",
"426 697 OFFCURVE",
"426 735 CURVE SMOOTH",
"426 818 OFFCURVE",
"445 883 OFFCURVE",
"407 865 CURVE",
"391 852 OFFCURVE",
"381 834 OFFCURVE",
"343 808 CURVE",
"297 781 LINE",
"270 761 OFFCURVE",
"341 761 OFFCURVE",
"341 690 CURVE SMOOTH",
"341 640 OFFCURVE",
"347 512 OFFCURVE",
"343 462 CURVE",
"316 424 OFFCURVE",
"308 397 OFFCURVE",
"281 374 CURVE",
"214 294 OFFCURVE",
"180 257 OFFCURVE",
"88 173 CURVE SMOOTH",
"32 124 OFFCURVE",
"54 104 OFFCURVE",
"213 260 CURVE SMOOTH",
"239 285 OFFCURVE",
"293 334 OFFCURVE",
"341 375 CURVE",
"341 300 LINE SMOOTH",
"337 111 OFFCURVE",
"336 -23 OFFCURVE",
"290 -30 CURVE",
"226 -44 OFFCURVE",
"244 -50 OFFCURVE",
"343 -51 CURVE SMOOTH"
);
}
);
width = 789;
}
);
note = K_two.liga;
},
{
glyphname = L_two.liga;
lastChange = "2021-12-30 14:01:41 +0000";
layers = (
{
hints = (
{
horizontal = 1;
place = "{-240, 131}";
type = Stem;
},
{
horizontal = 1;
place = "{622, 82}";
type = Stem;
},
{
place = "{224, 124}";
type = Stem;
},
{
horizontal = 1;
place = "{643, 76}";
type = Stem;
}
);
layerId = "A3F1973E-A54C-4051-9E3B-DFD359A8ED51";
paths = (
{
closed = 1;
nodes = (
"366 -8 OFFCURVE",
"381 13 OFFCURVE",
"338 13 CURVE",
"287 34 OFFCURVE",
"304 132 OFFCURVE",
"304 169 CURVE SMOOTH",
"304 645 LINE SMOOTH",
"304 675 OFFCURVE",
"294 743 OFFCURVE",
"321 770 CURVE SMOOTH",
"344 794 OFFCURVE",
"391 786 OFFCURVE",
"419 786 CURVE SMOOTH",
"473 786 OFFCURVE",
"527 807 OFFCURVE",
"581 807 CURVE SMOOTH",
"628 807 OFFCURVE",
"628 780 OFFCURVE",
"662 760 CURVE SMOOTH",
"713 729 OFFCURVE",
"726 841 OFFCURVE",
"726 861 CURVE",
"717 861 OFFCURVE",
"710 841 OFFCURVE",
"689 841 CURVE SMOOTH",
"628 841 LINE",
"511 834 LINE SMOOTH",
"446 831 OFFCURVE",
"402 818 OFFCURVE",
"338 834 CURVE SMOOTH",
"315 841 OFFCURVE",
"294 851 OFFCURVE",
"277 851 CURVE SMOOTH",
"233 851 OFFCURVE",
"196 818 OFFCURVE",
"159 807 CURVE SMOOTH",
"132 801 OFFCURVE",
"61 797 OFFCURVE",
"61 760 CURVE SMOOTH",
"61 753 OFFCURVE",
"104 780 OFFCURVE",
"104 780 CURVE",
"159 780 OFFCURVE",
"209 770 OFFCURVE",
"224 726 CURVE SMOOTH",
"230 706 OFFCURVE",
"224 678 OFFCURVE",
"224 662 CURVE SMOOTH",
"224 104 LINE SMOOTH",
"224 78 OFFCURVE",
"220 50 OFFCURVE",
"213 24 CURVE SMOOTH",
"206 -13 LINE SMOOTH",
"194 -81 OFFCURVE",
"225 -93 OFFCURVE",
"296 -51 CURVE SMOOTH"
);
}
);
width = 787;
}
);
note = L_two.liga;
},
{
glyphname = a_two.liga;
lastChange = "2021-12-30 14:01:37 +0000";
layers = (
{
hints = (
{
horizontal = 1;
place = "{382, 152}";
type = Stem;
},
{
horizontal = 1;
place = "{684, 78}";
type = Stem;
},
{
place = "{123, 79}";
type = Stem;
},
{
place = "{116, 103}";
type = Stem;
},
{
place = "{429, 93}";
type = Stem;
},
{
horizontal = 1;
place = "{596, 107}";
type = Stem;
}
);
layerId = "A3F1973E-A54C-4051-9E3B-DFD359A8ED51";
paths = (
{
closed = 1;
nodes = (
"62 -75 OFFCURVE",
"151 -62 OFFCURVE",
"204 -36 CURVE SMOOTH",
"266 -3 OFFCURVE",
"182 -47 OFFCURVE",
"173 129 CURVE SMOOTH",
"170 178 OFFCURVE",
"170 227 OFFCURVE",
"174 277 CURVE SMOOTH",
"182 387 OFFCURVE",
"211 299 OFFCURVE",
"236 266 CURVE SMOOTH",
"255 241 OFFCURVE",
"258 232 OFFCURVE",
"275 203 CURVE SMOOTH",
"289 182 OFFCURVE",
"300 168 OFFCURVE",
"332 165 CURVE SMOOTH",
"379 161 OFFCURVE",
"360 191 OFFCURVE",
"356 203 CURVE SMOOTH",
"345 243 OFFCURVE",
"247 383 OFFCURVE",
"225 409 CURVE SMOOTH",
"196 443 OFFCURVE",
"190 451 OFFCURVE",
"191 500 CURVE SMOOTH",
"192 578 OFFCURVE",
"184 675 OFFCURVE",
"188 752 CURVE",
"200 742 LINE SMOOTH",
"216 728 OFFCURVE",
"275 649 OFFCURVE",
"289 634 CURVE SMOOTH",
"320 597 OFFCURVE",
"337 540 OFFCURVE",
"389 568 CURVE SMOOTH",
"421 583 OFFCURVE",
"436 641 OFFCURVE",
"446 670 CURVE SMOOTH",
"473 742 OFFCURVE",
"493 829 OFFCURVE",
"493 907 CURVE SMOOTH",
"493 921 OFFCURVE",
"429 896 OFFCURVE",
"399 876 CURVE SMOOTH",
"345 841 OFFCURVE",
"429 884 OFFCURVE",
"430 850 CURVE SMOOTH",
"429 809 OFFCURVE",
"395 646 OFFCURVE",
"341 692 CURVE SMOOTH",
"321 710 OFFCURVE",
"307 731 OFFCURVE",
"292 752 CURVE SMOOTH",
"215 856 OFFCURVE",
"188 854 OFFCURVE",
"164 854 CURVE SMOOTH",
"151 854 OFFCURVE",
"93 841 OFFCURVE",
"56 793 CURVE",
"20 735 OFFCURVE",
"106 822 OFFCURVE",
"109 745 CURVE SMOOTH",
"113 622 OFFCURVE",
"126 470 OFFCURVE",
"124 346 CURVE SMOOTH",
"121 229 OFFCURVE",
"131 -19 OFFCURVE",
"103 -42 CURVE SMOOTH"
);
}
);
width = 540;
}
);
note = a_two.liga;
},
{
glyphname = e_a.liga;
lastChange = "2021-12-30 14:01:41 +0000";
layers = (
{
hints = (
{
horizontal = 1;
place = "{247, 105}";
type = Stem;
},
{
place = "{56, 110}";
type = Stem;
},
{
place = "{346, 115}";
type = Stem;
},
{
place = "{623, 78}";
type = Stem;
}
);
layerId = "A3F1973E-A54C-4051-9E3B-DFD359A8ED51";
paths = (
{
closed = 1;
nodes = (
"445 -3 OFFCURVE",
"452 5 OFFCURVE",
"440 8 CURVE SMOOTH",
"429 10 OFFCURVE",
"422 36 OFFCURVE",
"421 83 CURVE SMOOTH",
"420 249 OFFCURVE",
"421 374 OFFCURVE",
"421 498 CURVE SMOOTH",
"421 670 LINE",
"429 655 OFFCURVE",
"530 524 OFFCURVE",
"562 490 CURVE",
"574 470 OFFCURVE",
"601 442 OFFCURVE",
"622 442 CURVE SMOOTH",
"641 442 OFFCURVE",
"659 453 OFFCURVE",
"660 490 CURVE SMOOTH",
"662 549 OFFCURVE",
"660 642 OFFCURVE",
"660 718 CURVE SMOOTH",
"660 793 LINE SMOOTH",
"660 804 OFFCURVE",
"667 841 OFFCURVE",
"649 830 CURVE",
"622 822 OFFCURVE",
"622 808 OFFCURVE",
"622 760 CURVE SMOOTH",
"622 508 LINE",
"560 605 OFFCURVE",
"574 583 OFFCURVE",
"530 645 CURVE SMOOTH",
"448 760 OFFCURVE",
"456 756 OFFCURVE",
"402 830 CURVE",
"394 849 OFFCURVE",
"404 847 OFFCURVE",
"380 849 CURVE SMOOTH",
"368 850 OFFCURVE",
"359 847 OFFCURVE",
"328 796 CURVE SMOOTH",
"301 751 OFFCURVE",
"276 708 OFFCURVE",
"250 662 CURVE SMOOTH",
"167 513 OFFCURVE",
"131 450 OFFCURVE",
"127 490 CURVE",
"119 755 LINE SMOOTH",
"117 839 OFFCURVE",
"152 857 OFFCURVE",
"102 833 CURVE SMOOTH",
"84 824 OFFCURVE",
"57 815 OFFCURVE",
"57 796 CURVE SMOOTH",
"57 478 OFFCURVE",
"64 418 OFFCURVE",
"77 417 CURVE",
"127 397 OFFCURVE",
"147 440 OFFCURVE",
"169 474 CURVE SMOOTH",
"202 524 OFFCURVE",
"240 573 OFFCURVE",
"334 720 CURVE",
"340 615 OFFCURVE",
"339 595 OFFCURVE",
"346 488 CURVE SMOOTH",
"350 414 OFFCURVE",
"346 374 OFFCURVE",
"346 300 CURVE SMOOTH",
"346 63 LINE SMOOTH",
"346 -65 OFFCURVE",
"290 -98 OFFCURVE",
"421 -18 CURVE SMOOTH"
);
}
);
width = 718;
}
);
note = e_a.liga;
},
{
glyphname = j_two.liga;
lastChange = "2021-12-30 14:01:40 +0000";
layers = (
{
hints = (
{
horizontal = 1;
place = "{-200, 973}";
type = Stem;
},
{
place = "{331, 126}";
type = Stem;
},
{
place = "{336, 125}";
type = Stem;
},
{
place = "{336, 130}";
type = Stem;
}
);
layerId = "A3F1973E-A54C-4051-9E3B-DFD359A8ED51";
paths = (
{
closed = 1;
nodes = (
"420 -35 OFFCURVE",
"456 -26 OFFCURVE",
"429 4 CURVE SMOOTH",
"418 18 OFFCURVE",
"417 87 OFFCURVE",
"417 128 CURVE SMOOTH",
"417 200 OFFCURVE",
"417 200 OFFCURVE",
"415 310 CURVE",
"459 259 LINE SMOOTH",
"561 140 OFFCURVE",
"638 -11 OFFCURVE",
"659 50 CURVE SMOOTH",
"676 103 OFFCURVE",
"577 209 OFFCURVE",
"520 291 CURVE SMOOTH",
"418 437 OFFCURVE",
"404 430 OFFCURVE",
"435 476 CURVE SMOOTH",
"536 625 LINE SMOOTH",
"658 806 OFFCURVE",
"722 883 OFFCURVE",
"682 872 CURVE",
"585 772 OFFCURVE",
"504 617 OFFCURVE",
"420 491 CURVE",
"420 563 OFFCURVE",
"423 619 OFFCURVE",
"424 692 CURVE SMOOTH",
"428 801 LINE SMOOTH",
"431 906 OFFCURVE",
"454 919 OFFCURVE",
"354 855 CURVE SMOOTH",
"285 810 OFFCURVE",
"332 815 OFFCURVE",
"335 772 CURVE SMOOTH",
"337 746 OFFCURVE",
"338 665 OFFCURVE",
"337 625 CURVE SMOOTH",
"337 532 LINE",
"288 610 LINE SMOOTH",
"235 693 OFFCURVE",
"167 823 OFFCURVE",
"113 827 CURVE SMOOTH",
"58 832 OFFCURVE",
"20 865 OFFCURVE",
"126 712 CURVE SMOOTH",
"167 653 OFFCURVE",
"229 575 OFFCURVE",
"281 487 CURVE SMOOTH",
"340 387 OFFCURVE",
"331 438 OFFCURVE",
"284 343 CURVE SMOOTH",
"224 224 OFFCURVE",
"50 15 OFFCURVE",
"75 7 CURVE",
"126 32 OFFCURVE",
"255 213 OFFCURVE",
"284 277 CURVE SMOOTH",
"337 390 LINE",
"337 347 OFFCURVE",
"337 308 OFFCURVE",
"335 264 CURVE SMOOTH",
"331 78 LINE SMOOTH",
"331 19 OFFCURVE",
"338 -2 OFFCURVE",
"296 -21 CURVE SMOOTH",
"239 -47 OFFCURVE",
"314 -35 OFFCURVE",
"386 -35 CURVE SMOOTH"
);
}
);
width = 752;
}
);
note = j_two.liga;
},
{
glyphname = k_two.liga;
lastChange = "2021-12-30 14:01:37 +0000";
layers = (
{
hints = (
{
horizontal = 1;
place = "{-213, 64}";
type = Stem;
},
{
horizontal = 1;
place = "{-25, 112}";
type = Stem;
},
{
place = "{341, 128}";
type = Stem;
}
);
layerId = "A3F1973E-A54C-4051-9E3B-DFD359A8ED51";
paths = (
{
closed = 1;
nodes = (
"441 -51 OFFCURVE",
"479 -44 OFFCURVE",
"456 -31 CURVE SMOOTH",
"406 -3 OFFCURVE",
"422 17 OFFCURVE",
"422 284 CURVE SMOOTH",
"422 363 LINE",
"465 309 OFFCURVE",
"468 306 OFFCURVE",
"507 262 CURVE SMOOTH",
"538 227 OFFCURVE",
"604 136 OFFCURVE",
"659 136 CURVE SMOOTH",
"686 136 OFFCURVE",
"752 204 OFFCURVE",
"719 204 CURVE SMOOTH",
"646 204 OFFCURVE",
"599 270 OFFCURVE",
"532 346 CURVE SMOOTH",
"439 452 OFFCURVE",
"426 480 OFFCURVE",
"429 509 CURVE",
"429 678 OFFCURVE",
"426 697 OFFCURVE",
"426 735 CURVE SMOOTH",
"426 818 OFFCURVE",
"445 883 OFFCURVE",
"407 865 CURVE",
"391 852 OFFCURVE",
"381 834 OFFCURVE",
"343 808 CURVE",
"297 781 LINE",
"270 761 OFFCURVE",
"341 761 OFFCURVE",
"341 690 CURVE SMOOTH",
"341 640 OFFCURVE",
"347 512 OFFCURVE",
"343 462 CURVE",
"316 424 OFFCURVE",
"308 397 OFFCURVE",
"281 374 CURVE",
"214 294 OFFCURVE",
"180 257 OFFCURVE",
"88 173 CURVE SMOOTH",
"32 124 OFFCURVE",
"54 104 OFFCURVE",
"213 260 CURVE SMOOTH",
"239 285 OFFCURVE",
"293 334 OFFCURVE",
"341 375 CURVE",
"341 300 LINE SMOOTH",
"337 111 OFFCURVE",
"336 -23 OFFCURVE",
"290 -30 CURVE",
"226 -44 OFFCURVE",
"244 -50 OFFCURVE",
"343 -51 CURVE SMOOTH"
);
}
);
width = 789;
}
);
note = k_two.liga;
},
{
glyphname = l_two.liga;
lastChange = "2021-12-30 14:01:41 +0000";
layers = (
{
hints = (
{
horizontal = 1;
place = "{-240, 131}";
type = Stem;
},
{
horizontal = 1;
place = "{622, 82}";
type = Stem;
},
{
place = "{224, 124}";
type = Stem;
},
{
horizontal = 1;
place = "{643, 76}";
type = Stem;
}
);
layerId = "A3F1973E-A54C-4051-9E3B-DFD359A8ED51";
paths = (
{
closed = 1;
nodes = (
"366 -8 OFFCURVE",
"381 13 OFFCURVE",
"338 13 CURVE",
"287 34 OFFCURVE",
"304 132 OFFCURVE",
"304 169 CURVE SMOOTH",
"304 645 LINE SMOOTH",
"304 675 OFFCURVE",
"294 743 OFFCURVE",
"321 770 CURVE SMOOTH",
"344 794 OFFCURVE",
"391 786 OFFCURVE",
"419 786 CURVE SMOOTH",
"473 786 OFFCURVE",
"527 807 OFFCURVE",
"581 807 CURVE SMOOTH",
"628 807 OFFCURVE",
"628 780 OFFCURVE",
"662 760 CURVE SMOOTH",
"713 729 OFFCURVE",
"726 841 OFFCURVE",
"726 861 CURVE",
"717 861 OFFCURVE",
"710 841 OFFCURVE",
"689 841 CURVE SMOOTH",
"628 841 LINE",
"511 834 LINE SMOOTH",
"446 831 OFFCURVE",
"402 818 OFFCURVE",
"338 834 CURVE SMOOTH",
"315 841 OFFCURVE",
"294 851 OFFCURVE",
"277 851 CURVE SMOOTH",
"233 851 OFFCURVE",
"196 818 OFFCURVE",
"159 807 CURVE SMOOTH",
"132 801 OFFCURVE",
"61 797 OFFCURVE",
"61 760 CURVE SMOOTH",
"61 753 OFFCURVE",
"104 780 OFFCURVE",
"104 780 CURVE",
"159 780 OFFCURVE",
"209 770 OFFCURVE",
"224 726 CURVE SMOOTH",
"230 706 OFFCURVE",
"224 678 OFFCURVE",
"224 662 CURVE SMOOTH",
"224 104 LINE SMOOTH",
"224 78 OFFCURVE",
"220 50 OFFCURVE",
"213 24 CURVE SMOOTH",
"206 -13 LINE SMOOTH",
"194 -81 OFFCURVE",
"225 -93 OFFCURVE",
"296 -51 CURVE SMOOTH"
);
}
);
width = 787;
}
);
note = l_two.liga;
},
{
glyphname = .notdef;
lastChange = "2021-12-30 14:01:37 +0000";
layers = (
{
layerId = "A3F1973E-A54C-4051-9E3B-DFD359A8ED51";
paths = (
{
closed = 1;
nodes = (
"640 -514 OFFCURVE",
"869 -300 OFFCURVE",
"883 -153 CURVE SMOOTH",
"884 -144 OFFCURVE",
"884 -135 OFFCURVE",
"884 -127 CURVE SMOOTH",
"884 -54 OFFCURVE",
"848 -26 OFFCURVE",
"804 -26 CURVE SMOOTH",
"754 -26 OFFCURVE",
"693 -63 OFFCURVE",
"665 -106 CURVE SMOOTH",
"617 -183 OFFCURVE",
"592 -213 OFFCURVE",
"583 -213 CURVE SMOOTH",
"579 -213 OFFCURVE",
"578 -209 OFFCURVE",
"578 -203 CURVE SMOOTH",
"578 -160 OFFCURVE",
"647 18 OFFCURVE",
"655 88 CURVE SMOOTH",
"668 181 OFFCURVE",
"687 272 OFFCURVE",
"693 363 CURVE SMOOTH",
"696 407 OFFCURVE",
"699 461 OFFCURVE",
"699 517 CURVE SMOOTH",
"699 701 OFFCURVE",
"665 913 OFFCURVE",
"485 913 CURVE SMOOTH",
"457 913 OFFCURVE",
"426 908 OFFCURVE",
"390 897 CURVE SMOOTH",
"216 842 OFFCURVE",
"89 699 OFFCURVE",
"90 511 CURVE SMOOTH",
"91 430 OFFCURVE",
"133 402 OFFCURVE",
"186 402 CURVE SMOOTH",
"234 402 OFFCURVE",
"291 426 OFFCURVE",
"331 458 CURVE SMOOTH",
"413 522 LINE SMOOTH",
"418 526 OFFCURVE",
"422 527 OFFCURVE",
"426 527 CURVE SMOOTH",
"437 527 OFFCURVE",
"442 508 OFFCURVE",
"442 474 CURVE SMOOTH",
"442 335 OFFCURVE",
"360 -40 OFFCURVE",
"343 -213 CURVE SMOOTH",
"341 -236 OFFCURVE",
"339 -260 OFFCURVE",
"339 -284 CURVE SMOOTH",
"339 -399 OFFCURVE",
"374 -508 OFFCURVE",
"513 -512 CURVE SMOOTH"
);
},
{
closed = 1;
nodes = (
"710 -298 OFFCURVE",
"725 -292 OFFCURVE",
"734 -282 CURVE SMOOTH",
"756 -257 OFFCURVE",
"771 -252 OFFCURVE",
"771 -217 CURVE SMOOTH",
"771 -209 OFFCURVE",
"762 -205 OFFCURVE",
"750 -205 CURVE SMOOTH",
"738 -205 OFFCURVE",
"724 -209 OFFCURVE",
"713 -218 CURVE SMOOTH",
"685 -240 OFFCURVE",
"662 -275 OFFCURVE",
"671 -287 CURVE SMOOTH",
"677 -295 OFFCURVE",
"686 -298 OFFCURVE",
"696 -298 CURVE SMOOTH"
);
},
{
closed = 1;
nodes = (
"561 -424 OFFCURVE",
"541 -420 OFFCURVE",
"523 -411 CURVE SMOOTH",
"438 -366 OFFCURVE",
"418 -267 OFFCURVE",
"418 -171 CURVE SMOOTH",
"418 -127 OFFCURVE",
"422 -84 OFFCURVE",
"426 -47 CURVE SMOOTH",
"438 54 OFFCURVE",
"455 154 OFFCURVE",
"465 255 CURVE SMOOTH",
"475 352 OFFCURVE",
"469 456 OFFCURVE",
"489 551 CURVE SMOOTH",
"492 564 OFFCURVE",
"496 591 OFFCURVE",
"496 616 CURVE SMOOTH",
"496 647 OFFCURVE",
"489 676 OFFCURVE",
"465 676 CURVE SMOOTH",
"458 676 OFFCURVE",
"450 674 OFFCURVE",
"440 669 CURVE SMOOTH",
"381 638 OFFCURVE",
"413 590 OFFCURVE",
"335 517 CURVE SMOOTH",
"303 487 OFFCURVE",
"273 474 OFFCURVE",
"248 474 CURVE SMOOTH",
"196 474 OFFCURVE",
"162 528 OFFCURVE",
"162 595 CURVE SMOOTH",
"162 646 OFFCURVE",
"181 704 OFFCURVE",
"225 753 CURVE SMOOTH",
"287 822 OFFCURVE",
"364 859 OFFCURVE",
"433 859 CURVE SMOOTH",
"509 859 OFFCURVE",
"575 814 OFFCURVE",
"601 713 CURVE SMOOTH",
"619 646 OFFCURVE",
"625 572 OFFCURVE",
"625 497 CURVE SMOOTH",
"625 392 OFFCURVE",
"613 285 OFFCURVE",
"601 188 CURVE SMOOTH",
"588 78 OFFCURVE",
"556 -7 OFFCURVE",
"544 -118 CURVE SMOOTH",
"543 -133 OFFCURVE",
"537 -169 OFFCURVE",
"537 -204 CURVE SMOOTH",
"537 -239 OFFCURVE",
"543 -272 OFFCURVE",
"565 -278 CURVE SMOOTH",
"602 -288 OFFCURVE",
"718 -80 OFFCURVE",
"787 -80 CURVE SMOOTH",
"809 -80 OFFCURVE",
"826 -100 OFFCURVE",
"835 -151 CURVE SMOOTH",
"836 -158 OFFCURVE",
"837 -164 OFFCURVE",
"837 -171 CURVE SMOOTH",
"837 -239 OFFCURVE",
"779 -305 OFFCURVE",
"738 -353 CURVE SMOOTH",
"703 -394 OFFCURVE",
"640 -424 OFFCURVE",
"582 -424 CURVE SMOOTH"
);
},
{
closed = 1;
nodes = (
"270 579 OFFCURVE",
"289 609 OFFCURVE",
"289 633 CURVE SMOOTH",
"289 644 OFFCURVE",
"286 654 OFFCURVE",
"277 660 CURVE SMOOTH",
"273 663 OFFCURVE",
"268 664 OFFCURVE",
"262 664 CURVE SMOOTH",
"250 664 OFFCURVE",
"235 657 OFFCURVE",
"226 644 CURVE SMOOTH",
"221 637 OFFCURVE",
"217 625 OFFCURVE",
"217 614 CURVE SMOOTH",
"217 603 OFFCURVE",
"221 592 OFFCURVE",
"230 585 CURVE SMOOTH",
"236 581 OFFCURVE",
"242 579 OFFCURVE",
"247 579 CURVE SMOOTH"
);
}
);
width = 974;
}
);
note = .notdef;
},
{
glyphname = whiteSquare;
lastChange = "2021-12-30 14:01:37 +0000";
layers = (
{
layerId = "A3F1973E-A54C-4051-9E3B-DFD359A8ED51";
paths = (
{
closed = 1;
nodes = (
"640 -514 OFFCURVE",
"869 -300 OFFCURVE",
"883 -153 CURVE SMOOTH",
"884 -144 OFFCURVE",
"884 -135 OFFCURVE",
"884 -127 CURVE SMOOTH",
"884 -54 OFFCURVE",
"848 -26 OFFCURVE",
"804 -26 CURVE SMOOTH",
"754 -26 OFFCURVE",
"693 -63 OFFCURVE",
"665 -106 CURVE SMOOTH",
"617 -183 OFFCURVE",
"592 -213 OFFCURVE",
"583 -213 CURVE SMOOTH",
"579 -213 OFFCURVE",
"578 -209 OFFCURVE",
"578 -203 CURVE SMOOTH",
"578 -160 OFFCURVE",
"647 18 OFFCURVE",
"655 88 CURVE SMOOTH",
"668 181 OFFCURVE",
"687 272 OFFCURVE",
"693 363 CURVE SMOOTH",
"696 407 OFFCURVE",
"699 461 OFFCURVE",
"699 517 CURVE SMOOTH",
"699 701 OFFCURVE",
"665 913 OFFCURVE",
"485 913 CURVE SMOOTH",
"457 913 OFFCURVE",
"426 908 OFFCURVE",
"390 897 CURVE SMOOTH",
"216 842 OFFCURVE",
"89 699 OFFCURVE",
"90 511 CURVE SMOOTH",
"91 430 OFFCURVE",
"133 402 OFFCURVE",
"186 402 CURVE SMOOTH",
"234 402 OFFCURVE",
"291 426 OFFCURVE",
"331 458 CURVE SMOOTH",
"413 522 LINE SMOOTH",
"418 526 OFFCURVE",
"422 527 OFFCURVE",
"426 527 CURVE SMOOTH",
"437 527 OFFCURVE",
"442 508 OFFCURVE",
"442 474 CURVE SMOOTH",
"442 335 OFFCURVE",
"360 -40 OFFCURVE",
"343 -213 CURVE SMOOTH",
"341 -236 OFFCURVE",
"339 -260 OFFCURVE",
"339 -284 CURVE SMOOTH",
"339 -399 OFFCURVE",
"374 -508 OFFCURVE",
"513 -512 CURVE SMOOTH"
);
},
{
closed = 1;
nodes = (
"710 -298 OFFCURVE",
"725 -292 OFFCURVE",
"734 -282 CURVE SMOOTH",
"756 -257 OFFCURVE",
"771 -252 OFFCURVE",
"771 -217 CURVE SMOOTH",
"771 -209 OFFCURVE",
"762 -205 OFFCURVE",
"750 -205 CURVE SMOOTH",
"738 -205 OFFCURVE",
"724 -209 OFFCURVE",
"713 -218 CURVE SMOOTH",
"685 -240 OFFCURVE",
"662 -275 OFFCURVE",
"671 -287 CURVE SMOOTH",
"677 -295 OFFCURVE",
"686 -298 OFFCURVE",
"696 -298 CURVE SMOOTH"
);
},
{
closed = 1;
nodes = (
"561 -424 OFFCURVE",
"541 -420 OFFCURVE",
"523 -411 CURVE SMOOTH",
"438 -366 OFFCURVE",
"418 -267 OFFCURVE",
"418 -171 CURVE SMOOTH",
"418 -127 OFFCURVE",
"422 -84 OFFCURVE",
"426 -47 CURVE SMOOTH",
"438 54 OFFCURVE",
"455 154 OFFCURVE",
"465 255 CURVE SMOOTH",
"475 352 OFFCURVE",
"469 456 OFFCURVE",
"489 551 CURVE SMOOTH",
"492 564 OFFCURVE",
"496 591 OFFCURVE",
"496 616 CURVE SMOOTH",
"496 647 OFFCURVE",
"489 676 OFFCURVE",
"465 676 CURVE SMOOTH",
"458 676 OFFCURVE",
"450 674 OFFCURVE",
"440 669 CURVE SMOOTH",
"381 638 OFFCURVE",
"413 590 OFFCURVE",
"335 517 CURVE SMOOTH",
"303 487 OFFCURVE",
"273 474 OFFCURVE",
"248 474 CURVE SMOOTH",
"196 474 OFFCURVE",
"162 528 OFFCURVE",
"162 595 CURVE SMOOTH",
"162 646 OFFCURVE",
"181 704 OFFCURVE",
"225 753 CURVE SMOOTH",
"287 822 OFFCURVE",
"364 859 OFFCURVE",
"433 859 CURVE SMOOTH",
"509 859 OFFCURVE",
"575 814 OFFCURVE",
"601 713 CURVE SMOOTH",
"619 646 OFFCURVE",
"625 572 OFFCURVE",
"625 497 CURVE SMOOTH",
"625 392 OFFCURVE",
"613 285 OFFCURVE",
"601 188 CURVE SMOOTH",
"588 78 OFFCURVE",
"556 -7 OFFCURVE",
"544 -118 CURVE SMOOTH",
"543 -133 OFFCURVE",
"537 -169 OFFCURVE",
"537 -204 CURVE SMOOTH",
"537 -239 OFFCURVE",
"543 -272 OFFCURVE",
"565 -278 CURVE SMOOTH",
"602 -288 OFFCURVE",
"718 -80 OFFCURVE",
"787 -80 CURVE SMOOTH",
"809 -80 OFFCURVE",
"826 -100 OFFCURVE",
"835 -151 CURVE SMOOTH",
"836 -158 OFFCURVE",
"837 -164 OFFCURVE",
"837 -171 CURVE SMOOTH",
"837 -239 OFFCURVE",
"779 -305 OFFCURVE",
"738 -353 CURVE SMOOTH",
"703 -394 OFFCURVE",
"640 -424 OFFCURVE",
"582 -424 CURVE SMOOTH"
);
},
{
closed = 1;
nodes = (
"270 579 OFFCURVE",
"289 609 OFFCURVE",
"289 633 CURVE SMOOTH",
"289 644 OFFCURVE",
"286 654 OFFCURVE",
"277 660 CURVE SMOOTH",
"273 663 OFFCURVE",
"268 664 OFFCURVE",
"262 664 CURVE SMOOTH",
"250 664 OFFCURVE",
"235 657 OFFCURVE",
"226 644 CURVE SMOOTH",
"221 637 OFFCURVE",
"217 625 OFFCURVE",
"217 614 CURVE SMOOTH",
"217 603 OFFCURVE",
"221 592 OFFCURVE",
"230 585 CURVE SMOOTH",
"236 581 OFFCURVE",
"242 579 OFFCURVE",
"247 579 CURVE SMOOTH"
);
}
);
width = 974;
}
);
note = .notdef;
unicode = 25A1;
},
{
glyphname = uni16A0;
lastChange = "2021-12-30 14:01:37 +0000";
layers = (
{
layerId = "A3F1973E-A54C-4051-9E3B-DFD359A8ED51";
paths = (
{
closed = 1;
nodes = (
"209 -40 OFFCURVE",
"237 -34 OFFCURVE",
"262 -26 CURVE SMOOTH",
"327 -8 OFFCURVE",
"290 4 OFFCURVE",
"273 28 CURVE SMOOTH",
"249 57 OFFCURVE",
"252 274 OFFCURVE",
"273 391 CURVE SMOOTH",
"280 439 OFFCURVE",
"322 466 OFFCURVE",
"358 487 CURVE SMOOTH",
"384 503 OFFCURVE",
"440 532 OFFCURVE",
"469 524 CURVE SMOOTH",
"551 503 OFFCURVE",
"461 402 OFFCURVE",
"531 451 CURVE SMOOTH",
"604 503 OFFCURVE",
"600 584 OFFCURVE",
"531 597 CURVE SMOOTH",
"485 604 OFFCURVE",
"417 576 OFFCURVE",
"346 517 CURVE SMOOTH",
"266 451 LINE",
"277 517 OFFCURVE",
"259 581 OFFCURVE",
"290 639 CURVE SMOOTH",
"310 682 OFFCURVE",
"340 744 OFFCURVE",
"396 733 CURVE",
"438 730 OFFCURVE",
"468 701 OFFCURVE",
"455 671 CURVE SMOOTH",
"445 645 OFFCURVE",
"486 671 OFFCURVE",
"507 694 CURVE SMOOTH",
"528 718 OFFCURVE",
"535 742 OFFCURVE",
"526 781 CURVE SMOOTH",
"507 862 OFFCURVE",
"416 809 OFFCURVE",
"353 755 CURVE",
"319 733 OFFCURVE",
"298 696 OFFCURVE",
"269 665 CURVE",
"277 698 OFFCURVE",
"269 744 OFFCURVE",
"273 776 CURVE",
"273 796 OFFCURVE",
"280 831 OFFCURVE",
"269 850 CURVE SMOOTH",
"259 868 OFFCURVE",
"253 860 OFFCURVE",
"233 852 CURVE SMOOTH",
"206 843 OFFCURVE",
"180 831 OFFCURVE",
"157 820 CURVE SMOOTH",
"117 804 OFFCURVE",
"80 811 OFFCURVE",
"60 792 CURVE SMOOTH",
"36 770 OFFCURVE",
"77 770 OFFCURVE",
"93 770 CURVE SMOOTH",
"127 772 OFFCURVE",
"167 776 OFFCURVE",
"183 736 CURVE SMOOTH",
"196 700 OFFCURVE",
"183 645 OFFCURVE",
"186 608 CURVE",
"189 479 LINE SMOOTH",
"191 357 OFFCURVE",
"178 244 OFFCURVE",
"183 116 CURVE SMOOTH",
"186 48 LINE",
"183 16 OFFCURVE",
"175 -1 OFFCURVE",
"151 -15 CURVE SMOOTH",
"83 -58 OFFCURVE",
"162 -47 OFFCURVE",
"183 -44 CURVE SMOOTH"
);
}
);
width = 637;
}
);
unicode = 16A0;
},
{
glyphname = uni16A2;
lastChange = "2021-12-30 14:01:37 +0000";
layers = (
{
hints = (
{
horizontal = 1;
place = "{552, 191}";
type = Stem;
},
{
place = "{683, 108}";
type = Stem;
}
);
layerId = "A3F1973E-A54C-4051-9E3B-DFD359A8ED51";
paths = (
{
closed = 1;
nodes = (
"158 -44 OFFCURVE",
"199 -34 OFFCURVE",
"280 -9 CURVE SMOOTH",
"305 0 OFFCURVE",
"335 7 OFFCURVE",
"340 33 CURVE SMOOTH",
"342 50 OFFCURVE",
"326 66 OFFCURVE",
"317 82 CURVE",
"308 103 OFFCURVE",
"313 130 OFFCURVE",
"313 153 CURVE SMOOTH",
"313 239 LINE SMOOTH",
"313 299 OFFCURVE",
"317 358 OFFCURVE",
"316 415 CURVE SMOOTH",
"312 502 OFFCURVE",
"315 662 OFFCURVE",
"331 692 CURVE SMOOTH",
"349 724 OFFCURVE",
"431 682 OFFCURVE",
"505 629 CURVE SMOOTH",
"568 582 OFFCURVE",
"636 540 OFFCURVE",
"666 468 CURVE SMOOTH",
"685 423 OFFCURVE",
"688 367 OFFCURVE",
"685 313 CURVE SMOOTH",
"682 257 LINE SMOOTH",
"679 189 OFFCURVE",
"679 116 OFFCURVE",
"662 51 CURVE SMOOTH",
"652 14 OFFCURVE",
"638 -3 OFFCURVE",
"685 -6 CURVE SMOOTH",
"721 -8 OFFCURVE",
"751 9 OFFCURVE",
"778 28 CURVE SMOOTH",
"805 48 OFFCURVE",
"838 79 OFFCURVE",
"864 111 CURVE",
"892 158 OFFCURVE",
"794 66 OFFCURVE",
"748 78 CURVE SMOOTH",
"720 85 OFFCURVE",
"794 301 OFFCURVE",
"773 429 CURVE SMOOTH",
"764 488 OFFCURVE",
"752 531 OFFCURVE",
"703 574 CURVE SMOOTH",
"571 688 LINE SMOOTH",
"522 731 OFFCURVE",
"462 761 OFFCURVE",
"404 788 CURVE SMOOTH",
"325 826 OFFCURVE",
"326 855 OFFCURVE",
"255 840 CURVE SMOOTH",
"107 808 OFFCURVE",
"176 812 OFFCURVE",
"87 758 CURVE SMOOTH",
"4 707 OFFCURVE",
"232 787 OFFCURVE",
"232 644 CURVE SMOOTH",
"232 530 OFFCURVE",
"235 415 OFFCURVE",
"229 299 CURVE SMOOTH",
"226 222 OFFCURVE",
"245 131 OFFCURVE",
"209 64 CURVE SMOOTH",
"186 22 LINE SMOOTH",
"165 -13 OFFCURVE",
"156 -33 OFFCURVE",
"157 -38 CURVE SMOOTH"
);
}
);
width = 938;
}
);
note = uni16A2;
unicode = 16A2;
},
{
glyphname = uni16A4;
lastChange = "2021-12-30 14:01:40 +0000";
layers = (
{
hints = (
{
horizontal = 1;
place = "{145, 130}";
type = Stem;
},
{
place = "{164, 123}";
type = Stem;
},
{
place = "{628, 200}";
type = Stem;
},
{
place = "{159, 134}";
type = Stem;
},
{
horizontal = 1;
place = "{153, 84}";
type = Stem;
}
);
layerId = "A3F1973E-A54C-4051-9E3B-DFD359A8ED51";
paths = (
{
closed = 1;
nodes = (
"237 -26 OFFCURVE",
"276 -18 OFFCURVE",
"272 -1 CURVE",
"255 23 OFFCURVE",
"239 -2 OFFCURVE",
"239 133 CURVE",
"241 164 OFFCURVE",
"239 196 OFFCURVE",
"239 224 CURVE SMOOTH",
"241 245 OFFCURVE",
"241 268 OFFCURVE",
"241 289 CURVE",
"285 291 OFFCURVE",
"335 320 OFFCURVE",
"368 276 CURVE SMOOTH",
"399 234 OFFCURVE",
"407 187 OFFCURVE",
"403 135 CURVE",
"399 111 OFFCURVE",
"401 83 OFFCURVE",
"396 57 CURVE SMOOTH",
"394 41 OFFCURVE",
"368 -5 OFFCURVE",
"369 -18 CURVE",
"378 -47 OFFCURVE",
"486 -24 OFFCURVE",
"475 -3 CURVE",
"468 17 OFFCURVE",
"452 13 OFFCURVE",
"451 42 CURVE SMOOTH",
"448 76 OFFCURVE",
"452 111 OFFCURVE",
"451 144 CURVE SMOOTH",
"448 179 OFFCURVE",
"444 218 OFFCURVE",
"468 249 CURVE SMOOTH",
"509 308 OFFCURVE",
"557 323 OFFCURVE",
"597 295 CURVE",
"609 245 OFFCURVE",
"616 196 OFFCURVE",
"622 144 CURVE SMOOTH",
"624 105 OFFCURVE",
"633 61 OFFCURVE",
"624 22 CURVE",
"623 3 OFFCURVE",
"608 6 OFFCURVE",
"623 -14 CURVE SMOOTH",
"646 -42 OFFCURVE",
"721 -22 OFFCURVE",
"750 -12 CURVE SMOOTH",
"827 12 OFFCURVE",
"744 38 OFFCURVE",
"728 76 CURVE",
"705 121 OFFCURVE",
"714 176 OFFCURVE",
"702 227 CURVE SMOOTH",
"690 291 OFFCURVE",
"672 355 OFFCURVE",
"656 420 CURVE SMOOTH",
"631 510 OFFCURVE",
"580 606 OFFCURVE",
"512 674 CURVE SMOOTH",
"475 711 OFFCURVE",
"423 744 OFFCURVE",
"378 776 CURVE SMOOTH",
"353 796 OFFCURVE",
"329 808 OFFCURVE",
"301 822 CURVE",
"281 828 OFFCURVE",
"269 855 OFFCURVE",
"233 855 CURVE",
"202 846 OFFCURVE",
"169 839 OFFCURVE",
"140 827 CURVE",
"122 817 OFFCURVE",
"76 812 OFFCURVE",
"64 796 CURVE",
"99 757 OFFCURVE",
"163 769 OFFCURVE",
"160 699 CURVE SMOOTH",
"159 564 OFFCURVE",
"162 486 OFFCURVE",
"163 360 CURVE SMOOTH",
"166 286 OFFCURVE",
"162 249 OFFCURVE",
"163 116 CURVE",
"149 3 OFFCURVE",
"32 -17 OFFCURVE",
"122 -26 CURVE SMOOTH",
"164 -31 OFFCURVE",
"192 -30 OFFCURVE",
"211 -30 CURVE"
);
},
{
closed = 1;
nodes = (
"407 289 OFFCURVE",
"386 320 OFFCURVE",
"364 346 CURVE SMOOTH",
"333 378 OFFCURVE",
"295 398 OFFCURVE",
"243 373 CURVE",
"243 413 LINE",
"237 497 OFFCURVE",
"249 586 OFFCURVE",
"249 671 CURVE",
"247 699 OFFCURVE",
"254 723 OFFCURVE",
"255 748 CURVE",
"285 735 OFFCURVE",
"313 718 OFFCURVE",
"335 706 CURVE SMOOTH",
"442 647 OFFCURVE",
"509 535 OFFCURVE",
"557 426 CURVE SMOOTH",
"567 401 OFFCURVE",
"574 373 OFFCURVE",
"583 346 CURVE",
"567 350 OFFCURVE",
"548 346 OFFCURVE",
"535 343 CURVE",
"525 338 OFFCURVE",
"426 266 OFFCURVE",
"428 260 CURVE"
);
}
);
width = 846;
}
);
note = uni16A4;
unicode = 16A4;
},
{
glyphname = uni16A6;
lastChange = "2021-12-30 14:01:37 +0000";
layers = (
{
hints = (
{
horizontal = 1;
place = "{-200, 904}";
type = Stem;
},
{
place = "{131, 99}";
type = Stem;
}
);
layerId = "A3F1973E-A54C-4051-9E3B-DFD359A8ED51";
paths = (
{
closed = 1;
nodes = (
"58 -44 OFFCURVE",
"165 -9 OFFCURVE",
"183 -4 CURVE SMOOTH",
"213 5 OFFCURVE",
"241 3 OFFCURVE",
"223 22 CURVE SMOOTH",
"192 52 OFFCURVE",
"196 70 OFFCURVE",
"199 120 CURVE SMOOTH",
"200 164 OFFCURVE",
"201 179 OFFCURVE",
"203 228 CURVE",
"265 285 LINE SMOOTH",
"292 310 OFFCURVE",
"310 329 OFFCURVE",
"387 408 CURVE SMOOTH",
"425 448 OFFCURVE",
"453 469 OFFCURVE",
"440 479 CURVE SMOOTH",
"358 549 OFFCURVE",
"323 578 OFFCURVE",
"205 664 CURVE",
"206 770 LINE SMOOTH",
"207 827 OFFCURVE",
"227 868 OFFCURVE",
"173 841 CURVE SMOOTH",
"146 828 OFFCURVE",
"121 815 OFFCURVE",
"95 800 CURVE SMOOTH",
"85 794 OFFCURVE",
"63 785 OFFCURVE",
"63 770 CURVE SMOOTH",
"64 734 OFFCURVE",
"135 814 OFFCURVE",
"128 597 CURVE SMOOTH",
"126 463 OFFCURVE",
"131 422 OFFCURVE",
"131 178 CURVE SMOOTH",
"131 90 OFFCURVE",
"142 6 OFFCURVE",
"98 -20 CURVE SMOOTH"
);
},
{
closed = 1;
nodes = (
"202 370 LINE SMOOTH",
"202 424 OFFCURVE",
"204 459 OFFCURVE",
"206 578 CURVE",
"282 523 OFFCURVE",
"357 456 OFFCURVE",
"381 439 CURVE",
"394 422 OFFCURVE",
"347 390 OFFCURVE",
"296 341 CURVE SMOOTH",
"201 251 LINE"
);
}
);
width = 506;
}
);
note = uni16A6;
unicode = 16A6;
},
{
glyphname = uni16A9;
lastChange = "2021-12-30 14:01:40 +0000";
layers = (
{
hints = (
{
horizontal = 1;
place = "{2, 112}";
type = Stem;
},
{
horizontal = 1;
place = "{297, 90}";
type = Stem;
},
{
horizontal = 1;
place = "{381, 136}";
type = Stem;
},
{
horizontal = 1;
place = "{640, 74}";
type = Stem;
},
{
place = "{120, 107}";
type = Stem;
},
{
place = "{133, 112}";
type = Stem;
},
{
place = "{389, 187}";
type = Stem;
}
);
layerId = "A3F1973E-A54C-4051-9E3B-DFD359A8ED51";
paths = (
{
closed = 1;
nodes = (
"268 -5 OFFCURVE",
"192 -14 OFFCURVE",
"194 31 CURVE SMOOTH",
"195 71 OFFCURVE",
"195 117 OFFCURVE",
"195 153 CURVE SMOOTH",
"195 201 OFFCURVE",
"191 247 OFFCURVE",
"191 293 CURVE SMOOTH",
"191 306 OFFCURVE",
"193 346 OFFCURVE",
"207 349 CURVE SMOOTH",
"227 354 OFFCURVE",
"250 307 OFFCURVE",
"260 291 CURVE SMOOTH",
"330 167 OFFCURVE",
"293 174 OFFCURVE",
"348 174 CURVE SMOOTH",
"363 174 OFFCURVE",
"395 172 OFFCURVE",
"402 204 CURVE SMOOTH",
"416 264 LINE SMOOTH",
"432 337 OFFCURVE",
"451 373 OFFCURVE",
"471 408 CURVE SMOOTH",
"498 456 OFFCURVE",
"518 508 OFFCURVE",
"509 523 CURVE SMOOTH",
"495 546 OFFCURVE",
"330 452 OFFCURVE",
"396 461 CURVE",
"411 466 OFFCURVE",
"465 505 OFFCURVE",
"411 365 CURVE SMOOTH",
"383 294 OFFCURVE",
"388 254 OFFCURVE",
"361 254 CURVE SMOOTH",
"351 254 OFFCURVE",
"322 321 OFFCURVE",
"317 330 CURVE SMOOTH",
"299 362 OFFCURVE",
"287 399 OFFCURVE",
"253 442 CURVE SMOOTH",
"223 481 OFFCURVE",
"212 477 OFFCURVE",
"212 525 CURVE SMOOTH",
"212 601 OFFCURVE",
"202 782 OFFCURVE",
"227 764 CURVE SMOOTH",
"252 746 OFFCURVE",
"274 697 OFFCURVE",
"309 650 CURVE SMOOTH",
"378 557 OFFCURVE",
"378 537 OFFCURVE",
"404 567 CURVE SMOOTH",
"432 601 OFFCURVE",
"449 663 OFFCURVE",
"463 706 CURVE SMOOTH",
"473 737 LINE SMOOTH",
"478 754 OFFCURVE",
"496 809 OFFCURVE",
"508 822 CURVE",
"539 849 OFFCURVE",
"568 880 OFFCURVE",
"509 863 CURVE SMOOTH",
"455 846 OFFCURVE",
"457 863 OFFCURVE",
"401 838 CURVE",
"355 806 OFFCURVE",
"457 846 OFFCURVE",
"430 737 CURVE SMOOTH",
"424 717 OFFCURVE",
"398 635 OFFCURVE",
"382 663 CURVE",
"355 699 OFFCURVE",
"343 725 OFFCURVE",
"317 774 CURVE SMOOTH",
"303 800 OFFCURVE",
"276 853 OFFCURVE",
"245 858 CURVE SMOOTH",
"216 863 OFFCURVE",
"190 854 OFFCURVE",
"148 854 CURVE SMOOTH",
"120 854 OFFCURVE",
"76 826 OFFCURVE",
"54 809 CURVE",
"34 787 OFFCURVE",
"94 828 OFFCURVE",
"114 804 CURVE SMOOTH",
"128 788 OFFCURVE",
"128 765 OFFCURVE",
"129 740 CURVE SMOOTH",
"138 616 OFFCURVE",
"131 494 OFFCURVE",
"128 371 CURVE SMOOTH",
"124 256 OFFCURVE",
"125 183 OFFCURVE",
"120 9 CURVE SMOOTH",
"118 -46 OFFCURVE",
"28 -81 OFFCURVE",
"194 -29 CURVE SMOOTH"
);
}
);
width = 593;
}
);
note = uni16A9;
unicode = 16A9;
},
{
glyphname = uni16AA;
lastChange = "2021-12-30 14:01:37 +0000";
layers = (
{
hints = (
{
horizontal = 1;
place = "{562, 155}";
type = Stem;
},
{
place = "{110, 110}";
type = Stem;
}
);
layerId = "A3F1973E-A54C-4051-9E3B-DFD359A8ED51";
paths = (
{
closed = 1;
nodes = (
"71 -70 OFFCURVE",
"146 -44 OFFCURVE",
"171 -26 CURVE SMOOTH",
"209 -2 OFFCURVE",
"188 -1 OFFCURVE",
"171 30 CURVE SMOOTH",
"153 65 OFFCURVE",
"170 122 OFFCURVE",
"170 159 CURVE SMOOTH",
"170 207 OFFCURVE",
"168 262 OFFCURVE",
"175 311 CURVE SMOOTH",
"185 372 OFFCURVE",
"212 311 OFFCURVE",
"242 279 CURVE",
"261 253 OFFCURVE",
"305 187 OFFCURVE",
"337 177 CURVE SMOOTH",
"379 166 OFFCURVE",
"412 256 OFFCURVE",
"398 242 CURVE SMOOTH",
"358 200 OFFCURVE",
"269 388 OFFCURVE",
"233 420 CURVE SMOOTH",
"199 447 OFFCURVE",
"190 460 OFFCURVE",
"192 508 CURVE SMOOTH",
"192 585 OFFCURVE",
"186 660 OFFCURVE",
"189 736 CURVE",
"221 742 OFFCURVE",
"244 729 OFFCURVE",
"302 653 CURVE",
"316 637 OFFCURVE",
"337 589 OFFCURVE",
"357 583 CURVE SMOOTH",
"415 564 OFFCURVE",
"585 933 OFFCURVE",
"441 720 CURVE",
"415 694 OFFCURVE",
"385 668 OFFCURVE",
"351 698 CURVE SMOOTH",
"331 716 OFFCURVE",
"317 736 OFFCURVE",
"298 757 CURVE SMOOTH",
"256 806 OFFCURVE",
"244 887 OFFCURVE",
"157 855 CURVE SMOOTH",
"55 818 LINE",
"27 812 OFFCURVE",
"85 799 OFFCURVE",
"97 783 CURVE SMOOTH",
"111 767 OFFCURVE",
"111 746 OFFCURVE",
"111 721 CURVE SMOOTH",
"111 573 OFFCURVE",
"112 61 OFFCURVE",
"105 7 CURVE SMOOTH",
"103 -14 OFFCURVE",
"87 -33 OFFCURVE",
"85 -54 CURVE"
);
}
);
width = 545;
}
);
note = uni16AA;
unicode = 16AA;
},
{
glyphname = uni16AB;
lastChange = "2021-12-30 14:01:37 +0000";
layers = (
{
hints = (
{
horizontal = 1;
place = "{80, 76}";
type = Stem;
},
{
horizontal = 1;
place = "{562, 157}";
type = Stem;
},
{
place = "{113, 105}";
type = Stem;
},
{
place = "{86, 110}";
type = Stem;
}
);
layerId = "A3F1973E-A54C-4051-9E3B-DFD359A8ED51";
paths = (
{
closed = 1;
nodes = (
"73 -70 OFFCURVE",
"150 -46 OFFCURVE",
"173 -26 CURVE SMOOTH",
"200 -2 OFFCURVE",
"190 0 OFFCURVE",
"173 31 CURVE SMOOTH",
"155 66 OFFCURVE",
"171 122 OFFCURVE",
"171 159 CURVE SMOOTH",
"171 207 OFFCURVE",
"179 242 OFFCURVE",
"177 311 CURVE SMOOTH",
"174 405 OFFCURVE",
"171 384 OFFCURVE",
"223 343 CURVE",
"300 290 OFFCURVE",
"297 282 OFFCURVE",
"337 258 CURVE SMOOTH",
"376 234 OFFCURVE",
"441 294 OFFCURVE",
"402 297 CURVE",
"318 339 OFFCURVE",
"284 384 OFFCURVE",
"235 427 CURVE SMOOTH",
"201 457 OFFCURVE",
"183 476 OFFCURVE",
"186 548 CURVE SMOOTH",
"188 625 OFFCURVE",
"187 660 OFFCURVE",
"191 736 CURVE",
"223 742 OFFCURVE",
"246 729 OFFCURVE",
"304 653 CURVE",
"318 637 OFFCURVE",
"342 596 OFFCURVE",
"361 602 CURVE SMOOTH",
"436 622 OFFCURVE",
"432 626 OFFCURVE",
"395 651 CURVE",
"368 660 OFFCURVE",
"318 738 OFFCURVE",
"300 757 CURVE SMOOTH",
"258 806 OFFCURVE",
"246 887 OFFCURVE",
"159 855 CURVE SMOOTH",
"57 818 LINE",
"29 812 OFFCURVE",
"87 799 OFFCURVE",
"99 783 CURVE SMOOTH",
"113 767 OFFCURVE",
"113 746 OFFCURVE",
"113 721 CURVE SMOOTH",
"113 573 OFFCURVE",
"114 61 OFFCURVE",
"107 7 CURVE SMOOTH",
"105 -13 OFFCURVE",
"89 -33 OFFCURVE",
"87 -54 CURVE"
);
}
);
width = 537;
}
);
note = uni16AB;
unicode = 16AB;
},
{
glyphname = uni16B1;
lastChange = "2021-12-30 14:01:40 +0000";
layers = (
{
hints = (
{
horizontal = 1;
place = "{293, 95}";
type = Stem;
},
{
horizontal = 1;
place = "{609, 104}";
type = Stem;
},
{
place = "{163, 114}";
type = Stem;
},
{
place = "{423, 88}";
type = Stem;
},
{
horizontal = 1;
place = "{272, 83}";
type = Stem;
},
{
place = "{466, 97}";
type = Stem;
}
);
layerId = "A3F1973E-A54C-4051-9E3B-DFD359A8ED51";
paths = (
{
closed = 1;
nodes = (
"120 -71 OFFCURVE",
"206 -46 OFFCURVE",
"228 -32 CURVE",
"287 -5 LINE",
"335 32 OFFCURVE",
"262 15 OFFCURVE",
"251 27 CURVE SMOOTH",
"237 42 OFFCURVE",
"241 73 OFFCURVE",
"243 91 CURVE",
"241 311 LINE SMOOTH",
"241 338 OFFCURVE",
"231 440 OFFCURVE",
"259 440 CURVE",
"287 450 OFFCURVE",
"314 450 OFFCURVE",
"335 450 CURVE SMOOTH",
"380 450 OFFCURVE",
"395 468 OFFCURVE",
"437 459 CURVE SMOOTH",
"465 455 OFFCURVE",
"461 415 OFFCURVE",
"461 394 CURVE SMOOTH",
"461 360 OFFCURVE",
"467 329 OFFCURVE",
"467 294 CURVE SMOOTH",
"467 240 OFFCURVE",
"467 185 OFFCURVE",
"469 131 CURVE SMOOTH",
"469 97 OFFCURVE",
"449 13 OFFCURVE",
"508 26 CURVE SMOOTH",
"612 50 OFFCURVE",
"641 97 OFFCURVE",
"584 69 CURVE",
"557 69 OFFCURVE",
"543 73 OFFCURVE",
"534 107 CURVE SMOOTH",
"527 132 OFFCURVE",
"531 158 OFFCURVE",
"528 186 CURVE",
"525 281 OFFCURVE",
"528 376 OFFCURVE",
"521 469 CURVE SMOOTH",
"519 533 OFFCURVE",
"462 526 OFFCURVE",
"392 513 CURVE",
"444 581 OFFCURVE",
"521 717 OFFCURVE",
"439 812 CURVE",
"371 866 OFFCURVE",
"343 838 OFFCURVE",
"241 838 CURVE",
"204 848 OFFCURVE",
"185 848 OFFCURVE",
"157 838 CURVE",
"120 821 OFFCURVE",
"75 821 OFFCURVE",
"55 783 CURVE",
"47 756 OFFCURVE",
"83 802 OFFCURVE",
"141 772 CURVE",
"166 750 OFFCURVE",
"161 674 OFFCURVE",
"163 643 CURVE",
"157 643 OFFCURVE",
"166 59 OFFCURVE",
"164 67 CURVE",
"166 29 OFFCURVE",
"176 -15 OFFCURVE",
"148 -48 CURVE"
);
},
{
closed = 1;
nodes = (
"231 588 OFFCURVE",
"231 691 OFFCURVE",
"241 793 CURVE",
"241 802 OFFCURVE",
"314 783 OFFCURVE",
"335 783 CURVE",
"390 756 OFFCURVE",
"404 715 OFFCURVE",
"420 666 CURVE",
"428 618 OFFCURVE",
"422 586 OFFCURVE",
"405 571 CURVE SMOOTH",
"387 556 OFFCURVE",
"367 538 OFFCURVE",
"345 519 CURVE",
"320 504 OFFCURVE",
"267 486 OFFCURVE",
"239 486 CURVE"
);
}
);
width = 667;
}
);
note = uni16B1;
unicode = 16B1;
},
{
glyphname = uni16B3;
lastChange = "2021-12-30 14:01:37 +0000";
layers = (
{
hints = (
{
horizontal = 1;
place = "{-233, 942}";
type = Stem;
},
{
place = "{175, 95}";
type = Stem;
},
{
horizontal = 1;
place = "{-233, 113}";
type = Stem;
},
{
place = "{422, 189}";
type = Stem;
},
{
horizontal = 1;
place = "{-212, 99}";
type = Stem;
},
{
place = "{178, 100}";
type = Stem;
}
);
layerId = "A3F1973E-A54C-4051-9E3B-DFD359A8ED51";
paths = (
{
closed = 1;
nodes = (
"228 -50 OFFCURVE",
"228 -44 OFFCURVE",
"276 -28 CURVE SMOOTH",
"315 -15 OFFCURVE",
"343 16 OFFCURVE",
"310 16 CURVE SMOOTH",
"229 16 OFFCURVE",
"243 -14 OFFCURVE",
"236 308 CURVE SMOOTH",
"235 348 OFFCURVE",
"235 401 OFFCURVE",
"329 389 CURVE SMOOTH",
"376 383 OFFCURVE",
"419 340 OFFCURVE",
"420 261 CURVE SMOOTH",
"422 150 LINE SMOOTH",
"423 88 OFFCURVE",
"424 20 OFFCURVE",
"420 -4 CURVE SMOOTH",
"416 -35 OFFCURVE",
"408 -43 OFFCURVE",
"426 -43 CURVE SMOOTH",
"450 -43 OFFCURVE",
"466 -32 OFFCURVE",
"517 -19 CURVE SMOOTH",
"554 -10 OFFCURVE",
"607 50 OFFCURVE",
"557 27 CURVE",
"501 6 OFFCURVE",
"493 61 OFFCURVE",
"491 114 CURVE SMOOTH",
"482 291 OFFCURVE",
"503 328 OFFCURVE",
"458 404 CURVE SMOOTH",
"407 489 OFFCURVE",
"244 477 OFFCURVE",
"244 494 CURVE SMOOTH",
"245 623 LINE SMOOTH",
"247 729 OFFCURVE",
"245 740 OFFCURVE",
"249 779 CURVE SMOOTH",
"253 835 OFFCURVE",
"279 845 OFFCURVE",
"256 845 CURVE",
"206 822 OFFCURVE",
"184 819 OFFCURVE",
"142 795 CURVE SMOOTH",
"123 785 OFFCURVE",
"105 779 OFFCURVE",
"83 762 CURVE SMOOTH",
"56 740 LINE",
"32 714 OFFCURVE",
"107 731 OFFCURVE",
"145 693 CURVE SMOOTH",
"179 659 OFFCURVE",
"178 610 OFFCURVE",
"178 573 CURVE SMOOTH",
"178 431 OFFCURVE",
"177 431 OFFCURVE",
"176 362 CURVE SMOOTH",
"174 162 LINE SMOOTH",
"173 110 OFFCURVE",
"177 -11 OFFCURVE",
"150 -28 CURVE SMOOTH",
"84 -69 OFFCURVE",
"153 -64 OFFCURVE",
"189 -57 CURVE SMOOTH"
);
}
);
width = 629;
}
);
note = uni16B3;
unicode = 16B3;
},
{
glyphname = uni16B7;
lastChange = "2021-12-30 14:01:40 +0000";
layers = (
{
hints = (
{
horizontal = 1;
place = "{-193, 114}";
type = Stem;
},
{
horizontal = 1;
place = "{555, 101}";
type = Stem;
},
{
place = "{213, 121}";
type = Stem;
},
{
place = "{223, 113}";
type = Stem;
},
{
horizontal = 1;
place = "{567, 154}";
type = Stem;
}
);
layerId = "A3F1973E-A54C-4051-9E3B-DFD359A8ED51";
paths = (
{
closed = 1;
nodes = (
"-111 -50 OFFCURVE",
"-62 -39 OFFCURVE",
"-48 -33 CURVE",
"-17 -16 LINE SMOOTH",
"-14 -14 OFFCURVE",
"-1 3 OFFCURVE",
"-6 7 CURVE SMOOTH",
"-9 9 OFFCURVE",
"-13 8 OFFCURVE",
"-14 14 CURVE",
"41 78 LINE SMOOTH",
"102 150 OFFCURVE",
"159 229 OFFCURVE",
"221 300 CURVE",
"224 276 LINE SMOOTH",
"231 218 OFFCURVE",
"220 162 OFFCURVE",
"229 104 CURVE SMOOTH",
"232 85 OFFCURVE",
"224 56 OFFCURVE",
"221 32 CURVE SMOOTH",
"219 18 OFFCURVE",
"221 3 OFFCURVE",
"229 -9 CURVE SMOOTH",
"243 -33 OFFCURVE",
"274 -34 OFFCURVE",
"298 -28 CURVE SMOOTH",
"329 -19 OFFCURVE",
"353 -10 OFFCURVE",
"380 11 CURVE SMOOTH",
"391 20 OFFCURVE",
"418 41 OFFCURVE",
"387 44 CURVE SMOOTH",
"363 46 OFFCURVE",
"346 44 OFFCURVE",
"331 63 CURVE SMOOTH",
"316 84 OFFCURVE",
"316 106 OFFCURVE",
"315 131 CURVE SMOOTH",
"312 218 LINE SMOOTH",
"312 230 OFFCURVE",
"282 375 OFFCURVE",
"305 405 CURVE SMOOTH",
"351 467 LINE SMOOTH",
"393 524 OFFCURVE",
"434 583 OFFCURVE",
"482 637 CURVE SMOOTH",
"504 662 OFFCURVE",
"519 692 OFFCURVE",
"535 718 CURVE SMOOTH",
"537 722 OFFCURVE",
"577 780 OFFCURVE",
"566 780 CURVE SMOOTH",
"553 780 LINE SMOOTH",
"535 780 OFFCURVE",
"515 768 OFFCURVE",
"502 758 CURVE SMOOTH",
"487 748 OFFCURVE",
"458 737 OFFCURVE",
"455 718 CURVE",
"484 718 LINE",
"487 698 OFFCURVE",
"478 685 OFFCURVE",
"465 665 CURVE SMOOTH",
"439 623 OFFCURVE",
"401 591 OFFCURVE",
"372 550 CURVE SMOOTH",
"300 452 LINE",
"298 522 OFFCURVE",
"302 589 OFFCURVE",
"298 658 CURVE SMOOTH",
"296 706 OFFCURVE",
"295 751 OFFCURVE",
"298 798 CURVE SMOOTH",
"299 811 OFFCURVE",
"312 828 OFFCURVE",
"305 840 CURVE SMOOTH",
"299 849 OFFCURVE",
"282 838 OFFCURVE",
"272 835 CURVE SMOOTH",
"205 813 LINE SMOOTH",
"183 806 OFFCURVE",
"165 789 OFFCURVE",
"145 775 CURVE SMOOTH",
"109 747 LINE SMOOTH",
"73 717 OFFCURVE",
"179 734 OFFCURVE",
"185 732 CURVE SMOOTH",
"228 721 OFFCURVE",
"209 617 OFFCURVE",
"209 586 CURVE SMOOTH",
"209 508 OFFCURVE",
"219 431 OFFCURVE",
"221 352 CURVE",
"159 273 LINE SMOOTH",
"125 229 OFFCURVE",
"85 193 OFFCURVE",
"52 149 CURVE SMOOTH",
"22 110 OFFCURVE",
"-15 64 OFFCURVE",
"-50 32 CURVE SMOOTH",
"-61 23 OFFCURVE",
"-129 -13 OFFCURVE",
"-121 -33 CURVE"
);
}
);
width = 613;
}
);
note = uni16B7;
unicode = 16B7;
},
{
glyphname = uni16B9;
lastChange = "2021-12-30 14:01:37 +0000";
layers = (
{
hints = (
{
horizontal = 1;
place = "{621, 78}";
type = Stem;
},
{
place = "{104, 99}";
type = Stem;
},
{
place = "{338, 108}";
type = Stem;
},
{
place = "{111, 95}";
type = Stem;
}
);
layerId = "A3F1973E-A54C-4051-9E3B-DFD359A8ED51";
paths = (
{
closed = 1;
nodes = (
"139 -24 OFFCURVE",
"206 -44 OFFCURVE",
"174 8 CURVE",
"171 39 OFFCURVE",
"178 185 OFFCURVE",
"178 295 CURVE SMOOTH",
"178 317 OFFCURVE",
"223 337 OFFCURVE",
"279 406 CURVE SMOOTH",
"362 507 OFFCURVE",
"392 542 OFFCURVE",
"415 652 CURVE",
"419 728 OFFCURVE",
"430 777 OFFCURVE",
"408 809 CURVE SMOOTH",
"384 846 OFFCURVE",
"327 849 OFFCURVE",
"206 849 CURVE SMOOTH",
"148 849 OFFCURVE",
"124 864 OFFCURVE",
"77 839 CURVE SMOOTH",
"52 826 LINE",
"18 796 OFFCURVE",
"95 810 OFFCURVE",
"102 777 CURVE SMOOTH",
"108 748 OFFCURVE",
"111 649 OFFCURVE",
"111 638 CURVE SMOOTH",
"111 531 OFFCURVE",
"111 458 OFFCURVE",
"108 351 CURVE SMOOTH",
"102 81 LINE",
"99 51 OFFCURVE",
"101 16 OFFCURVE",
"79 -9 CURVE SMOOTH",
"67 -22 OFFCURVE",
"55 -21 OFFCURVE",
"67 -29 CURVE"
);
},
{
closed = 1;
nodes = (
"179 476 OFFCURVE",
"177 552 OFFCURVE",
"180 698 CURVE SMOOTH",
"180 721 OFFCURVE",
"180 788 OFFCURVE",
"275 796 CURVE",
"310 796 OFFCURVE",
"343 748 OFFCURVE",
"338 646 CURVE SMOOTH",
"333 544 OFFCURVE",
"313 490 OFFCURVE",
"177 326 CURVE"
);
}
);
width = 464;
}
);
note = uni16B9;
unicode = 16B9;
},
{
glyphname = uni16BB;
lastChange = "2021-12-30 14:01:40 +0000";
layers = (
{
hints = (
{
horizontal = 1;
place = "{-204, 119}";
type = Stem;
},
{
place = "{137, 128}";
type = Stem;
},
{
place = "{649, 130}";
type = Stem;
},
{
place = "{648, 127}";
type = Stem;
}
);
layerId = "A3F1973E-A54C-4051-9E3B-DFD359A8ED51";
paths = (
{
closed = 1;
nodes = (
"167 -43 OFFCURVE",
"189 -20 OFFCURVE",
"222 11 CURVE SMOOTH",
"240 28 OFFCURVE",
"308 74 OFFCURVE",
"262 74 CURVE SMOOTH",
"224 74 OFFCURVE",
"226 177 OFFCURVE",
"219 339 CURVE",
"221 381 OFFCURVE",
"308 322 OFFCURVE",
"344 303 CURVE SMOOTH",
"437 256 OFFCURVE",
"502 225 OFFCURVE",
"580 192 CURVE SMOOTH",
"640 166 OFFCURVE",
"650 163 OFFCURVE",
"649 132 CURVE SMOOTH",
"649 97 OFFCURVE",
"656 17 OFFCURVE",
"643 -25 CURVE SMOOTH",
"632 -58 OFFCURVE",
"699 -39 OFFCURVE",
"714 -36 CURVE SMOOTH",
"763 -27 OFFCURVE",
"810 27 OFFCURVE",
"754 29 CURVE",
"735 26 OFFCURVE",
"726 49 OFFCURVE",
"727 85 CURVE SMOOTH",
"729 172 LINE SMOOTH",
"731 293 OFFCURVE",
"732 416 OFFCURVE",
"733 535 CURVE SMOOTH",
"734 647 LINE SMOOTH",
"734 679 OFFCURVE",
"734 708 OFFCURVE",
"736 738 CURVE SMOOTH",
"739 802 LINE SMOOTH",
"740 822 OFFCURVE",
"752 847 OFFCURVE",
"723 855 CURVE SMOOTH",
"704 861 OFFCURVE",
"554 829 OFFCURVE",
"598 803 CURVE",
"610 794 OFFCURVE",
"622 794 OFFCURVE",
"634 762 CURVE SMOOTH",
"645 735 OFFCURVE",
"649 702 OFFCURVE",
"649 672 CURVE SMOOTH",
"649 565 LINE SMOOTH",
"649 532 OFFCURVE",
"655 462 OFFCURVE",
"638 467 CURVE SMOOTH",
"623 473 LINE SMOOTH",
"608 479 OFFCURVE",
"489 544 OFFCURVE",
"418 581 CURVE SMOOTH",
"308 638 LINE SMOOTH",
"284 650 OFFCURVE",
"234 669 OFFCURVE",
"225 695 CURVE SMOOTH",
"222 703 OFFCURVE",
"220 715 OFFCURVE",
"220 724 CURVE SMOOTH",
"219 768 LINE SMOOTH",
"218 793 OFFCURVE",
"230 819 OFFCURVE",
"233 840 CURVE SMOOTH",
"235 856 OFFCURVE",
"231 861 OFFCURVE",
"210 853 CURVE SMOOTH",
"180 843 OFFCURVE",
"156 822 OFFCURVE",
"125 811 CURVE SMOOTH",
"108 804 OFFCURVE",
"52 798 OFFCURVE",
"65 771 CURVE SMOOTH",
"78 745 OFFCURVE",
"118 762 OFFCURVE",
"134 737 CURVE SMOOTH",
"147 716 OFFCURVE",
"137 691 OFFCURVE",
"140 671 CURVE SMOOTH",
"146 639 OFFCURVE",
"137 607 OFFCURVE",
"137 574 CURVE SMOOTH",
"137 350 LINE SMOOTH",
"137 232 OFFCURVE",
"144 115 OFFCURVE",
"140 -1 CURVE SMOOTH",
"138 -56 OFFCURVE",
"144 -75 OFFCURVE",
"155 -59 CURVE SMOOTH"
);
},
{
closed = 1;
nodes = (
"647 229 OFFCURVE",
"536 275 OFFCURVE",
"509 288 CURVE SMOOTH",
"458 314 OFFCURVE",
"415 343 OFFCURVE",
"365 368 CURVE SMOOTH",
"288 409 LINE SMOOTH",
"269 419 OFFCURVE",
"224 423 OFFCURVE",
"220 469 CURVE",
"220 544 LINE SMOOTH",
"220 556 OFFCURVE",
"217 600 OFFCURVE",
"234 587 CURVE",
"344 520 OFFCURVE",
"443 460 OFFCURVE",
"598 385 CURVE SMOOTH",
"643 362 LINE SMOOTH",
"650 359 OFFCURVE",
"650 347 OFFCURVE",
"649 328 CURVE SMOOTH",
"647 277 LINE",
"647 255 LINE SMOOTH"
);
}
);
width = 843;
}
);
note = uni16BB;
unicode = 16BB;
},
{
glyphname = uni16BC;
lastChange = "2021-12-30 14:01:40 +0000";
layers = (
{
hints = (
{
horizontal = 1;
place = "{-200, 973}";
type = Stem;
},
{
place = "{331, 126}";
type = Stem;
},
{
place = "{336, 125}";
type = Stem;
},
{
place = "{336, 130}";
type = Stem;
}
);
layerId = "A3F1973E-A54C-4051-9E3B-DFD359A8ED51";
paths = (
{
closed = 1;
nodes = (
"420 -35 OFFCURVE",
"456 -26 OFFCURVE",
"429 4 CURVE SMOOTH",
"418 18 OFFCURVE",
"417 87 OFFCURVE",
"417 128 CURVE SMOOTH",
"417 200 OFFCURVE",
"417 200 OFFCURVE",
"415 310 CURVE",
"459 259 LINE SMOOTH",
"561 140 OFFCURVE",
"638 -11 OFFCURVE",
"659 50 CURVE SMOOTH",
"676 103 OFFCURVE",
"577 209 OFFCURVE",
"520 291 CURVE SMOOTH",
"418 437 OFFCURVE",
"404 430 OFFCURVE",
"435 476 CURVE SMOOTH",
"536 625 LINE SMOOTH",
"658 806 OFFCURVE",
"722 883 OFFCURVE",
"682 872 CURVE",
"585 772 OFFCURVE",
"504 617 OFFCURVE",
"420 491 CURVE",
"420 563 OFFCURVE",
"423 619 OFFCURVE",
"424 692 CURVE SMOOTH",
"428 801 LINE SMOOTH",
"431 906 OFFCURVE",
"454 919 OFFCURVE",
"354 855 CURVE SMOOTH",
"285 810 OFFCURVE",
"332 815 OFFCURVE",
"335 772 CURVE SMOOTH",
"337 746 OFFCURVE",
"338 665 OFFCURVE",
"337 625 CURVE SMOOTH",
"337 532 LINE",
"288 610 LINE SMOOTH",
"235 693 OFFCURVE",
"167 823 OFFCURVE",
"113 827 CURVE SMOOTH",
"58 832 OFFCURVE",
"20 865 OFFCURVE",
"126 712 CURVE SMOOTH",
"167 653 OFFCURVE",
"229 575 OFFCURVE",
"281 487 CURVE SMOOTH",
"340 387 OFFCURVE",
"331 438 OFFCURVE",
"284 343 CURVE SMOOTH",
"224 224 OFFCURVE",
"50 15 OFFCURVE",
"75 7 CURVE",
"126 32 OFFCURVE",
"255 213 OFFCURVE",
"284 277 CURVE SMOOTH",
"337 390 LINE",
"337 347 OFFCURVE",
"337 308 OFFCURVE",
"335 264 CURVE SMOOTH",
"331 78 LINE SMOOTH",
"331 19 OFFCURVE",
"338 -2 OFFCURVE",
"296 -21 CURVE SMOOTH",
"239 -47 OFFCURVE",
"314 -35 OFFCURVE",
"386 -35 CURVE SMOOTH"
);
}
);
width = 752;
}
);
note = J_two.liga;
unicode = 16BC;
},
{
glyphname = uni16BE;
lastChange = "2021-12-30 14:01:40 +0000";
layers = (
{
hints = (
{
horizontal = 1;
place = "{-204, 948}";
type = Stem;
},
{
place = "{419, 136}";
type = Stem;
},
{
place = "{421, 142}";
type = Stem;
}
);
layerId = "A3F1973E-A54C-4051-9E3B-DFD359A8ED51";
paths = (
{
closed = 1;
nodes = (
"429 -42 OFFCURVE",
"466 -38 OFFCURVE",
"514 -32 CURVE SMOOTH",
"561 -27 OFFCURVE",
"580 -9 OFFCURVE",
"574 21 CURVE",
"507 -2 OFFCURVE",
"504 64 OFFCURVE",
"505 118 CURVE SMOOTH",
"506 210 LINE SMOOTH",
"507 274 OFFCURVE",
"508 338 OFFCURVE",
"508 402 CURVE SMOOTH",
"508 413 LINE",
"532 399 OFFCURVE",
"556 388 OFFCURVE",
"578 369 CURVE SMOOTH",
"610 342 OFFCURVE",
"670 335 OFFCURVE",
"670 290 CURVE SMOOTH",
"670 279 OFFCURVE",
"657 280 OFFCURVE",
"668 269 CURVE SMOOTH",
"673 264 OFFCURVE",
"683 264 OFFCURVE",
"691 265 CURVE SMOOTH",
"705 266 OFFCURVE",
"719 274 OFFCURVE",
"735 280 CURVE SMOOTH",
"754 287 OFFCURVE",
"775 303 OFFCURVE",
"787 318 CURVE SMOOTH",
"792 323 OFFCURVE",
"810 342 OFFCURVE",
"806 350 CURVE SMOOTH",
"800 364 OFFCURVE",
"780 350 OFFCURVE",
"767 349 CURVE SMOOTH",
"723 347 OFFCURVE",
"686 370 OFFCURVE",
"650 394 CURVE SMOOTH",
"608 421 OFFCURVE",
"567 445 OFFCURVE",
"522 471 CURVE SMOOTH",
"508 479 LINE",
"511 540 OFFCURVE",
"517 602 OFFCURVE",
"515 666 CURVE SMOOTH",
"514 700 OFFCURVE",
"524 737 OFFCURVE",
"526 772 CURVE SMOOTH",
"528 804 OFFCURVE",
"540 866 OFFCURVE",
"498 851 CURVE SMOOTH",
"468 840 OFFCURVE",
"435 833 OFFCURVE",
"407 822 CURVE SMOOTH",
"386 813 OFFCURVE",
"342 808 OFFCURVE",
"328 791 CURVE",
"363 752 OFFCURVE",
"424 764 OFFCURVE",
"421 693 CURVE SMOOTH",
"419 640 OFFCURVE",
"419 584 OFFCURVE",
"421 528 CURVE",
"283 614 LINE SMOOTH",
"257 631 OFFCURVE",
"229 651 OFFCURVE",
"206 672 CURVE SMOOTH",
"198 679 OFFCURVE",
"192 693 OFFCURVE",
"182 699 CURVE SMOOTH",
"157 713 OFFCURVE",
"103 697 OFFCURVE",
"81 683 CURVE SMOOTH",
"73 677 OFFCURVE",
"60 662 OFFCURVE",
"67 651 CURVE SMOOTH",
"73 641 OFFCURVE",
"96 648 OFFCURVE",
"108 646 CURVE SMOOTH",
"141 641 OFFCURVE",
"173 613 OFFCURVE",
"204 594 CURVE SMOOTH",
"421 464 LINE",
"418 274 LINE SMOOTH",
"417 216 OFFCURVE",
"420 183 OFFCURVE",
"414 94 CURVE SMOOTH",
"412 73 OFFCURVE",
"407 43 OFFCURVE",
"403 21 CURVE SMOOTH",
"394 -31 OFFCURVE",
"350 -54 OFFCURVE",
"399 -46 CURVE SMOOTH"
);
}
);
width = 872;
}
);
note = uni16BE;
unicode = 16BE;
},
{
glyphname = uni16C1;
lastChange = "2021-12-30 14:01:41 +0000";
layers = (
{
hints = (
{
horizontal = 1;
place = "{544, 140}";
type = Stem;
},
{
place = "{133, 106}";
type = Stem;
}
);
layerId = "A3F1973E-A54C-4051-9E3B-DFD359A8ED51";
paths = (
{
closed = 1;
nodes = (
"114 -44 OFFCURVE",
"144 -36 OFFCURVE",
"202 -20 CURVE SMOOTH",
"271 -1 OFFCURVE",
"322 44 OFFCURVE",
"265 44 CURVE SMOOTH",
"205 44 OFFCURVE",
"221 107 OFFCURVE",
"221 179 CURVE SMOOTH",
"221 297 OFFCURVE",
"221 415 OFFCURVE",
"223 531 CURVE SMOOTH",
"227 643 LINE SMOOTH",
"227 684 OFFCURVE",
"221 727 OFFCURVE",
"231 769 CURVE SMOOTH",
"236 788 OFFCURVE",
"274 824 OFFCURVE",
"257 842 CURVE SMOOTH",
"233 866 OFFCURVE",
"152 842 OFFCURVE",
"90 807 CURVE",
"77 798 OFFCURVE",
"48 772 OFFCURVE",
"37 742 CURVE SMOOTH",
"26 704 OFFCURVE",
"67 754 OFFCURVE",
"90 758 CURVE SMOOTH",
"140 765 OFFCURVE",
"134 715 OFFCURVE",
"134 666 CURVE SMOOTH",
"134 117 LINE SMOOTH",
"134 90 OFFCURVE",
"134 61 OFFCURVE",
"125 33 CURVE SMOOTH",
"113 -6 LINE SMOOTH",
"106 -29 OFFCURVE",
"105 -42 OFFCURVE",
"109 -44 CURVE"
);
}
);
width = 325;
}
);
note = uni16C1;
unicode = 16C1;
},
{
glyphname = uni16C4;
lastChange = "2021-12-30 14:01:41 +0000";
layers = (
{
hints = (
{
horizontal = 1;
place = "{-221, 942}";
type = Stem;
},
{
place = "{242, 108}";
type = Stem;
},
{
place = "{460, 84}";
type = Stem;
},
{
place = "{251, 107}";
type = Stem;
}
);
layerId = "A3F1973E-A54C-4051-9E3B-DFD359A8ED51";
paths = (
{
closed = 1;
nodes = (
"177 -58 OFFCURVE",
"223 -38 OFFCURVE",
"290 -38 CURVE SMOOTH",
"394 -38 OFFCURVE",
"319 -28 OFFCURVE",
"319 4 CURVE SMOOTH",
"319 62 OFFCURVE",
"321 162 OFFCURVE",
"321 189 CURVE",
"351 229 OFFCURVE",
"464 365 OFFCURVE",
"475 377 CURVE",
"512 426 LINE",
"531 441 OFFCURVE",
"448 498 OFFCURVE",
"373 571 CURVE SMOOTH",
"334 609 LINE",
"334 784 LINE SMOOTH",
"334 924 OFFCURVE",
"277 845 OFFCURVE",
"223 811 CURVE SMOOTH",
"167 775 OFFCURVE",
"239 794 OFFCURVE",
"247 737 CURVE SMOOTH",
"253 695 OFFCURVE",
"251 640 OFFCURVE",
"251 600 CURVE",
"163 511 OFFCURVE",
"177 525 OFFCURVE",
"54 413 CURVE",
"19 394 OFFCURVE",
"168 264 OFFCURVE",
"243 188 CURVE",
"243 80 LINE SMOOTH",
"243 33 OFFCURVE",
"230 -10 OFFCURVE",
"197 -40 CURVE SMOOTH"
);
},
{
closed = 1;
nodes = (
"203 331 LINE SMOOTH",
"156 372 OFFCURVE",
"98 418 OFFCURVE",
"111 428 CURVE SMOOTH",
"178 481 OFFCURVE",
"193 508 OFFCURVE",
"251 550 CURVE",
"251 288 LINE"
);
},
{
closed = 1;
nodes = (
"326 444 OFFCURVE",
"326 516 OFFCURVE",
"329 521 CURVE",
"394 460 LINE SMOOTH",
"445 413 OFFCURVE",
"474 404 OFFCURVE",
"456 377 CURVE",
"326 246 LINE"
);
}
);
width = 563;
}
);
note = uni16C4;
unicode = 16C4;
},
{
glyphname = uni16C7;
lastChange = "2021-12-30 14:01:37 +0000";
layers = (
{
hints = (
{
horizontal = 1;
place = "{491, 198}";
type = Stem;
},
{
place = "{184, 107}";
type = Stem;
},
{
place = "{502, 117}";
type = Stem;
},
{
place = "{189, 118}";
type = Stem;
},
{
place = "{458, 106}";
type = Stem;
}
);
layerId = "A3F1973E-A54C-4051-9E3B-DFD359A8ED51";
paths = (
{
closed = 1;
nodes = (
"209 -40 OFFCURVE",
"237 -34 OFFCURVE",
"262 -26 CURVE SMOOTH",
"327 -8 OFFCURVE",
"290 4 OFFCURVE",
"273 28 CURVE SMOOTH",
"249 57 OFFCURVE",
"252 274 OFFCURVE",
"273 391 CURVE SMOOTH",
"280 439 OFFCURVE",
"322 466 OFFCURVE",
"358 487 CURVE SMOOTH",
"384 503 OFFCURVE",
"440 532 OFFCURVE",
"469 524 CURVE SMOOTH",
"551 503 OFFCURVE",
"461 402 OFFCURVE",
"531 451 CURVE SMOOTH",
"604 503 OFFCURVE",
"600 584 OFFCURVE",
"531 597 CURVE SMOOTH",
"485 604 OFFCURVE",
"417 576 OFFCURVE",
"346 517 CURVE SMOOTH",
"266 451 LINE",
"277 517 OFFCURVE",
"259 581 OFFCURVE",
"290 639 CURVE SMOOTH",
"310 682 OFFCURVE",
"340 744 OFFCURVE",
"396 733 CURVE",
"438 730 OFFCURVE",
"468 701 OFFCURVE",
"455 671 CURVE SMOOTH",
"445 645 OFFCURVE",
"486 671 OFFCURVE",
"507 694 CURVE SMOOTH",
"528 718 OFFCURVE",
"535 742 OFFCURVE",
"526 781 CURVE SMOOTH",
"507 862 OFFCURVE",
"416 809 OFFCURVE",
"353 755 CURVE",
"319 733 OFFCURVE",
"298 696 OFFCURVE",
"269 665 CURVE",
"277 698 OFFCURVE",
"269 744 OFFCURVE",
"273 776 CURVE",
"273 796 OFFCURVE",
"280 831 OFFCURVE",
"269 850 CURVE SMOOTH",
"259 868 OFFCURVE",
"253 860 OFFCURVE",
"233 852 CURVE SMOOTH",
"206 843 OFFCURVE",
"180 831 OFFCURVE",
"157 820 CURVE SMOOTH",
"117 804 OFFCURVE",
"80 811 OFFCURVE",
"60 792 CURVE SMOOTH",
"36 770 OFFCURVE",
"77 770 OFFCURVE",
"93 770 CURVE SMOOTH",
"127 772 OFFCURVE",
"167 776 OFFCURVE",
"183 736 CURVE SMOOTH",
"196 700 OFFCURVE",
"183 645 OFFCURVE",
"186 608 CURVE",
"189 479 LINE SMOOTH",
"191 357 OFFCURVE",
"178 244 OFFCURVE",
"183 116 CURVE SMOOTH",
"186 48 LINE",
"183 16 OFFCURVE",
"175 -1 OFFCURVE",
"151 -15 CURVE SMOOTH",
"83 -58 OFFCURVE",
"162 -47 OFFCURVE",
"183 -44 CURVE SMOOTH"
);
}
);
width = 637;
}
);
note = uni16C7;
unicode = 16C7;
},
{
glyphname = uni16C8;
lastChange = "2021-12-30 14:01:37 +0000";
layers = (
{
hints = (
{
horizontal = 1;
place = "{-26, 82}";
type = Stem;
},
{
horizontal = 1;
place = "{471, 112}";
type = Stem;
},
{
horizontal = 1;
place = "{683, 62}";
type = Stem;
},
{
place = "{109, 99}";
type = Stem;
},
{
place = "{389, 81}";
type = Stem;
},
{
place = "{378, 79}";
type = Stem;
}
);
layerId = "A3F1973E-A54C-4051-9E3B-DFD359A8ED51";
paths = (
{
closed = 1;
nodes = (
"357 -56 OFFCURVE",
"468 -50 OFFCURVE",
"453 -15 CURVE SMOOTH",
"433 27 OFFCURVE",
"446 151 OFFCURVE",
"446 194 CURVE SMOOTH",
"446 242 OFFCURVE",
"243 85 OFFCURVE",
"179 55 CURVE",
"179 151 OFFCURVE",
"179 742 OFFCURVE",
"195 795 CURVE",
"286 722 LINE SMOOTH",
"332 685 OFFCURVE",
"339 632 OFFCURVE",
"409 651 CURVE SMOOTH",
"454 663 OFFCURVE",
"395 890 OFFCURVE",
"478 855 CURVE",
"535 846 OFFCURVE",
"377 923 OFFCURVE",
"376 874 CURVE SMOOTH",
"373 775 OFFCURVE",
"388 710 OFFCURVE",
"364 735 CURVE SMOOTH",
"324 776 OFFCURVE",
"213 884 OFFCURVE",
"168 867 CURVE SMOOTH",
"65 828 LINE",
"6 784 OFFCURVE",
"108 811 OFFCURVE",
"108 656 CURVE SMOOTH",
"108 258 LINE",
"99 4 OFFCURVE",
"50 0 OFFCURVE",
"108 -26 CURVE SMOOTH",
"133 -37 OFFCURVE",
"136 0 OFFCURVE",
"183 30 CURVE SMOOTH",
"420 184 OFFCURVE",
"388 167 OFFCURVE",
"389 105 CURVE SMOOTH",
"390 48 OFFCURVE",
"391 -1 OFFCURVE",
"371 -33 CURVE SMOOTH"
);
}
);
width = 537;
}
);
note = uni16C8;
unicode = 16C8;
},
{
glyphname = uni16C9;
lastChange = "2021-12-30 14:01:40 +0000";
layers = (
{
hints = (
{
horizontal = 1;
place = "{-192, 940}";
type = Stem;
},
{
place = "{388, 125}";
type = Stem;
}
);
layerId = "A3F1973E-A54C-4051-9E3B-DFD359A8ED51";
paths = (
{
closed = 1;
nodes = (
"497 12 OFFCURVE",
"469 16 OFFCURVE",
"469 89 CURVE SMOOTH",
"469 402 LINE SMOOTH",
"470 453 OFFCURVE",
"693 688 OFFCURVE",
"702 698 CURVE SMOOTH",
"723 724 OFFCURVE",
"775 788 OFFCURVE",
"733 784 CURVE",
"665 752 OFFCURVE",
"464 466 OFFCURVE",
"469 522 CURVE",
"478 795 LINE SMOOTH",
"479 834 OFFCURVE",
"525 870 OFFCURVE",
"474 860 CURVE",
"397 808 OFFCURVE",
"351 808 OFFCURVE",
"328 767 CURVE",
"354 766 OFFCURVE",
"376 770 OFFCURVE",
"379 756 CURVE SMOOTH",
"397 696 OFFCURVE",
"388 631 OFFCURVE",
"388 533 CURVE SMOOTH",
"388 503 OFFCURVE",
"297 592 OFFCURVE",
"268 625 CURVE SMOOTH",
"188 717 LINE SMOOTH",
"169 739 OFFCURVE",
"147 778 OFFCURVE",
"115 778 CURVE",
"96 767 OFFCURVE",
"65 747 OFFCURVE",
"65 726 CURVE",
"55 706 OFFCURVE",
"65 726 OFFCURVE",
"127 665 CURVE",
"250 533 OFFCURVE",
"368 422 OFFCURVE",
"388 402 CURVE",
"388 29 LINE SMOOTH",
"388 -13 OFFCURVE",
"290 -64 OFFCURVE",
"429 -13 CURVE SMOOTH"
);
}
);
width = 811;
}
);
note = uni16C9;
unicode = 16C9;
},
{
glyphname = uni16CB;
lastChange = "2021-12-30 14:01:40 +0000";
layers = (
{
hints = (
{
horizontal = 1;
place = "{-242, 44}";
type = Stem;
},
{
horizontal = 1;
place = "{607, 108}";
type = Stem;
},
{
place = "{256, 113}";
type = Stem;
},
{
place = "{462, 117}";
type = Stem;
},
{
horizontal = 1;
place = "{-231, 45}";
type = Stem;
}
);
layerId = "A3F1973E-A54C-4051-9E3B-DFD359A8ED51";
paths = (
{
closed = 1;
nodes = (
"314 -83 OFFCURVE",
"416 -60 OFFCURVE",
"457 -59 CURVE SMOOTH",
"549 -60 OFFCURVE",
"621 -60 OFFCURVE",
"570 -50 CURVE",
"549 -41 OFFCURVE",
"537 -50 OFFCURVE",
"521 -34 CURVE SMOOTH",
"512 -24 OFFCURVE",
"516 -4 OFFCURVE",
"516 8 CURVE SMOOTH",
"518 30 OFFCURVE",
"520 51 OFFCURVE",
"520 72 CURVE SMOOTH",
"520 122 OFFCURVE",
"526 170 OFFCURVE",
"526 220 CURVE SMOOTH",
"526 328 OFFCURVE",
"537 434 OFFCURVE",
"544 544 CURVE SMOOTH",
"544 566 OFFCURVE",
"554 637 OFFCURVE",
"518 610 CURVE",
"486 580 OFFCURVE",
"452 559 OFFCURVE",
"414 535 CURVE",
"407 532 OFFCURVE",
"322 457 OFFCURVE",
"334 504 CURVE",
"332 557 OFFCURVE",
"334 606 OFFCURVE",
"344 668 CURVE",
"344 700 OFFCURVE",
"344 729 OFFCURVE",
"353 762 CURVE",
"356 783 OFFCURVE",
"384 826 OFFCURVE",
"372 846 CURVE",
"355 863 OFFCURVE",
"355 863 OFFCURVE",
"303 853 CURVE",
"262 853 OFFCURVE",
"210 853 OFFCURVE",
"171 852 CURVE SMOOTH",
"152 853 OFFCURVE",
"129 853 OFFCURVE",
"109 843 CURVE",
"85 821 OFFCURVE",
"57 807 OFFCURVE",
"53 789 CURVE SMOOTH",
"47 762 OFFCURVE",
"154 796 OFFCURVE",
"200 800 CURVE",
"228 800 OFFCURVE",
"244 803 OFFCURVE",
"254 779 CURVE",
"262 750 OFFCURVE",
"253 535 OFFCURVE",
"244 457 CURVE",
"244 436 OFFCURVE",
"228 430 OFFCURVE",
"256 424 CURVE SMOOTH",
"270 422 OFFCURVE",
"305 440 OFFCURVE",
"315 446 CURVE",
"370 470 OFFCURVE",
"410 515 OFFCURVE",
"464 537 CURVE",
"462 458 LINE SMOOTH",
"460 383 OFFCURVE",
"454 306 OFFCURVE",
"449 231 CURVE SMOOTH",
"446 151 OFFCURVE",
"446 71 OFFCURVE",
"434 -7 CURVE SMOOTH",
"430 -29 OFFCURVE",
"426 -46 OFFCURVE",
"404 -50 CURVE",
"394 -50 OFFCURVE",
"386 -60 OFFCURVE",
"373 -60 CURVE"
);
}
);
width = 639;
}
);
note = uni16CB;
unicode = 16CB;
},
{
glyphname = uni16CF;
lastChange = "2021-12-30 14:01:37 +0000";
layers = (
{
hints = (
{
horizontal = 1;
place = "{320, 108}";
type = Stem;
},
{
horizontal = 1;
place = "{559, 168}";
type = Stem;
},
{
place = "{58, 88}";
type = Stem;
},
{
place = "{320, 125}";
type = Stem;
},
{
horizontal = 1;
place = "{579, 139}";
type = Stem;
}
);
layerId = "A3F1973E-A54C-4051-9E3B-DFD359A8ED51";
paths = (
{
closed = 1;
nodes = (
"489 -44 OFFCURVE",
"499 -47 OFFCURVE",
"440 -22 CURVE SMOOTH",
"382 3 OFFCURVE",
"406 160 OFFCURVE",
"406 366 CURVE SMOOTH",
"406 598 LINE SMOOTH",
"406 627 OFFCURVE",
"408 690 OFFCURVE",
"412 716 CURVE",
"423 748 OFFCURVE",
"479 654 OFFCURVE",
"497 627 CURVE SMOOTH",
"552 547 OFFCURVE",
"563 448 OFFCURVE",
"628 496 CURVE SMOOTH",
"656 518 OFFCURVE",
"712 553 OFFCURVE",
"661 553 CURVE SMOOTH",
"619 553 OFFCURVE",
"609 578 OFFCURVE",
"588 611 CURVE SMOOTH",
"545 683 LINE SMOOTH",
"523 718 OFFCURVE",
"477 815 OFFCURVE",
"449 839 CURVE SMOOTH",
"423 861 OFFCURVE",
"423 841 OFFCURVE",
"376 841 CURVE SMOOTH",
"340 841 OFFCURVE",
"331 831 OFFCURVE",
"302 803 CURVE SMOOTH",
"235 738 OFFCURVE",
"215 695 OFFCURVE",
"108 569 CURVE SMOOTH",
"87 545 OFFCURVE",
"58 518 OFFCURVE",
"58 490 CURVE SMOOTH",
"58 462 OFFCURVE",
"95 425 OFFCURVE",
"105 480 CURVE SMOOTH",
"111 509 OFFCURVE",
"105 528 OFFCURVE",
"123 547 CURVE SMOOTH",
"199 631 OFFCURVE",
"293 766 OFFCURVE",
"311 739 CURVE SMOOTH",
"330 709 OFFCURVE",
"321 618 OFFCURVE",
"321 570 CURVE SMOOTH",
"321 267 LINE SMOOTH",
"321 -43 OFFCURVE",
"321 -21 OFFCURVE",
"275 -33 CURVE SMOOTH",
"186 -57 OFFCURVE",
"266 -48 OFFCURVE",
"349 -47 CURVE SMOOTH"
);
}
);
width = 740;
}
);
note = uni16CF;
unicode = 16CF;
},
{
glyphname = uni16D2;
lastChange = "2021-12-30 14:01:40 +0000";
layers = (
{
hints = (
{
horizontal = 1;
place = "{-300, 1002}";
type = Stem;
},
{
place = "{62, 92}";
type = Stem;
},
{
place = "{308, 88}";
type = Stem;
}
);
layerId = "A3F1973E-A54C-4051-9E3B-DFD359A8ED51";
paths = (
{
closed = 1;
nodes = (
"54 -116 OFFCURVE",
"84 -98 OFFCURVE",
"143 -54 CURVE SMOOTH",
"176 -30 OFFCURVE",
"400 118 OFFCURVE",
"371 149 CURVE SMOOTH",
"199 327 OFFCURVE",
"126 340 OFFCURVE",
"126 376 CURVE SMOOTH",
"125 419 OFFCURVE",
"190 460 OFFCURVE",
"236 503 CURVE SMOOTH",
"290 548 OFFCURVE",
"314 574 OFFCURVE",
"358 619 CURVE SMOOTH",
"379 639 OFFCURVE",
"389 640 OFFCURVE",
"369 663 CURVE SMOOTH",
"335 700 OFFCURVE",
"311 741 OFFCURVE",
"278 771 CURVE SMOOTH",
"196 846 OFFCURVE",
"177 886 OFFCURVE",
"143 853 CURVE SMOOTH",
"41 750 OFFCURVE",
"64 742 OFFCURVE",
"62 647 CURVE SMOOTH",
"62 368 LINE SMOOTH",
"60 299 OFFCURVE",
"58 181 OFFCURVE",
"62 129 CURVE SMOOTH",
"63 87 OFFCURVE",
"60 1 OFFCURVE",
"60 -41 CURVE SMOOTH",
"60 -83 OFFCURVE",
"60 -106 OFFCURVE",
"57 -111 CURVE SMOOTH"
);
},
{
closed = 1;
nodes = (
"148 -28 OFFCURVE",
"125 -62 OFFCURVE",
"133 7 CURVE",
"133 7 OFFCURVE",
"133 46 OFFCURVE",
"130 196 CURVE SMOOTH",
"129 254 OFFCURVE",
"129 281 OFFCURVE",
"179 231 CURVE SMOOTH",
"177 233 OFFCURVE",
"222 196 OFFCURVE",
"260 158 CURVE SMOOTH",
"317 102 OFFCURVE",
"317 102 OFFCURVE",
"294 80 CURVE SMOOTH",
"257 44 OFFCURVE",
"236 34 OFFCURVE",
"181 -5 CURVE SMOOTH"
);
},
{
closed = 1;
nodes = (
"126 438 OFFCURVE",
"130 470 OFFCURVE",
"133 527 CURVE SMOOTH",
"135 606 OFFCURVE",
"137 644 OFFCURVE",
"136 678 CURVE SMOOTH",
"136 705 OFFCURVE",
"129 782 OFFCURVE",
"154 767 CURVE",
"153 767 OFFCURVE",
"187 740 OFFCURVE",
"226 708 CURVE SMOOTH",
"264 678 OFFCURVE",
"316 629 OFFCURVE",
"317 627 CURVE SMOOTH",
"326 606 OFFCURVE",
"283 576 OFFCURVE",
"212 511 CURVE SMOOTH",
"145 450 OFFCURVE",
"114 423 OFFCURVE",
"120 431 CURVE SMOOTH"
);
}
);
width = 439;
}
);
note = uni16D2;
unicode = 16D2;
},
{
glyphname = uni16D6;
lastChange = "2021-12-30 14:01:41 +0000";
layers = (
{
hints = (
{
horizontal = 1;
place = "{-164, 79}";
type = Stem;
},
{
place = "{138, 120}";
type = Stem;
},
{
place = "{605, 135}";
type = Stem;
},
{
horizontal = 1;
place = "{-163, 111}";
type = Stem;
}
);
layerId = "A3F1973E-A54C-4051-9E3B-DFD359A8ED51";
paths = (
{
closed = 1;
nodes = (
"594 -24 OFFCURVE",
"645 10 OFFCURVE",
"673 15 CURVE SMOOTH",
"721 23 OFFCURVE",
"785 58 OFFCURVE",
"744 56 CURVE",
"700 44 OFFCURVE",
"698 133 OFFCURVE",
"698 163 CURVE SMOOTH",
"698 255 OFFCURVE",
"695 338 OFFCURVE",
"695 441 CURVE SMOOTH",
"693 682 LINE SMOOTH",
"693 704 OFFCURVE",
"691 740 OFFCURVE",
"695 761 CURVE SMOOTH",
"700 789 OFFCURVE",
"775 830 OFFCURVE",
"736 830 CURVE",
"709 834 OFFCURVE",
"624 838 OFFCURVE",
"611 815 CURVE SMOOTH",
"598 790 OFFCURVE",
"579 765 OFFCURVE",
"566 740 CURVE SMOOTH",
"478 586 LINE SMOOTH",
"462 561 OFFCURVE",
"437 534 OFFCURVE",
"421 504 CURVE",
"379 593 OFFCURVE",
"292 679 OFFCURVE",
"248 774 CURVE SMOOTH",
"230 809 LINE",
"225 815 OFFCURVE",
"223 824 OFFCURVE",
"214 834 CURVE",
"201 838 OFFCURVE",
"187 827 OFFCURVE",
"178 822 CURVE",
"151 811 LINE SMOOTH",
"123 799 OFFCURVE",
"98 789 OFFCURVE",
"76 773 CURVE",
"76 759 OFFCURVE",
"92 759 OFFCURVE",
"102 748 CURVE",
"162 695 OFFCURVE",
"137 566 OFFCURVE",
"137 495 CURVE SMOOTH",
"137 407 OFFCURVE",
"139 319 OFFCURVE",
"133 239 CURVE SMOOTH",
"126 182 OFFCURVE",
"164 58 OFFCURVE",
"94 23 CURVE",
"87 21 OFFCURVE",
"64 18 OFFCURVE",
"62 7 CURVE SMOOTH",
"55 -18 OFFCURVE",
"228 -13 OFFCURVE",
"248 1 CURVE",
"266 17 OFFCURVE",
"253 18 OFFCURVE",
"239 26 CURVE",
"205 61 OFFCURVE",
"208 100 OFFCURVE",
"208 141 CURVE SMOOTH",
"208 353 OFFCURVE",
"214 241 OFFCURVE",
"214 459 CURVE SMOOTH",
"214 493 OFFCURVE",
"214 639 OFFCURVE",
"212 657 CURVE",
"212 686 LINE",
"250 648 OFFCURVE",
"389 403 OFFCURVE",
"398 411 CURVE",
"418 444 LINE",
"504 582 LINE SMOOTH",
"521 607 OFFCURVE",
"578 686 OFFCURVE",
"604 745 CURVE",
"604 516 LINE SMOOTH",
"603 420 OFFCURVE",
"603 323 OFFCURVE",
"604 235 CURVE SMOOTH",
"603 97 LINE SMOOTH",
"603 67 OFFCURVE",
"603 54 OFFCURVE",
"584 30 CURVE",
"575 21 OFFCURVE",
"550 9 OFFCURVE",
"566 -3 CURVE SMOOTH"
);
}
);
width = 820;
}
);
note = uni16D6;
unicode = 16D6;
},
{
glyphname = uni16D7;
lastChange = "2021-12-30 14:01:37 +0000";
layers = (
{
hints = (
{
horizontal = 1;
place = "{-181, 101}";
type = Stem;
},
{
place = "{136, 129}";
type = Stem;
},
{
place = "{751, 133}";
type = Stem;
},
{
place = "{743, 140}";
type = Stem;
}
);
layerId = "A3F1973E-A54C-4051-9E3B-DFD359A8ED51";
paths = (
{
closed = 1;
nodes = (
"92 -34 OFFCURVE",
"125 -32 OFFCURVE",
"175 -24 CURVE SMOOTH",
"259 -10 OFFCURVE",
"339 18 OFFCURVE",
"262 18 CURVE",
"192 7 OFFCURVE",
"213 142 OFFCURVE",
"213 159 CURVE SMOOTH",
"213 168 OFFCURVE",
"218 180 OFFCURVE",
"226 190 CURVE SMOOTH",
"256 229 OFFCURVE",
"290 285 OFFCURVE",
"328 319 CURVE SMOOTH",
"437 418 LINE",
"494 363 OFFCURVE",
"543 308 OFFCURVE",
"603 242 CURVE SMOOTH",
"719 114 OFFCURVE",
"800 40 OFFCURVE",
"717 40 CURVE SMOOTH",
"687 40 OFFCURVE",
"752 -9 OFFCURVE",
"800 -28 CURVE SMOOTH",
"823 -37 OFFCURVE",
"904 -19 OFFCURVE",
"869 7 CURVE SMOOTH",
"848 24 OFFCURVE",
"832 49 OFFCURVE",
"832 86 CURVE SMOOTH",
"832 174 LINE SMOOTH",
"832 298 OFFCURVE",
"829 418 OFFCURVE",
"831 542 CURVE SMOOTH",
"832 656 LINE SMOOTH",
"833 687 OFFCURVE",
"830 717 OFFCURVE",
"832 748 CURVE SMOOTH",
"837 811 LINE SMOOTH",
"839 831 OFFCURVE",
"848 859 OFFCURVE",
"819 867 CURVE SMOOTH",
"781 878 OFFCURVE",
"621 779 OFFCURVE",
"694 801 CURVE",
"717 794 OFFCURVE",
"727 796 OFFCURVE",
"738 769 CURVE SMOOTH",
"741 762 OFFCURVE",
"737 771 OFFCURVE",
"717 750 CURVE SMOOTH",
"662 690 OFFCURVE",
"597 628 OFFCURVE",
"528 551 CURVE SMOOTH",
"513 534 OFFCURVE",
"499 516 OFFCURVE",
"483 501 CURVE",
"434 552 LINE SMOOTH",
"409 579 OFFCURVE",
"380 607 OFFCURVE",
"356 635 CURVE SMOOTH",
"278 726 LINE SMOOTH",
"261 746 OFFCURVE",
"246 791 OFFCURVE",
"224 812 CURVE",
"228 828 OFFCURVE",
"224 845 OFFCURVE",
"205 841 CURVE SMOOTH",
"121 826 OFFCURVE",
"57 812 OFFCURVE",
"71 779 CURVE SMOOTH",
"80 759 OFFCURVE",
"103 765 OFFCURVE",
"115 744 CURVE SMOOTH",
"143 690 OFFCURVE",
"137 616 OFFCURVE",
"137 561 CURVE SMOOTH",
"136 263 LINE SMOOTH",
"136 146 OFFCURVE",
"140 21 OFFCURVE",
"97 0 CURVE SMOOTH",
"69 -13 OFFCURVE",
"63 -22 OFFCURVE",
"77 -28 CURVE SMOOTH"
);
},
{
closed = 1;
nodes = (
"215 312 LINE",
"218 549 LINE SMOOTH",
"218 574 OFFCURVE",
"216 599 OFFCURVE",
"218 623 CURVE",
"259 593 LINE SMOOTH",
"319 549 OFFCURVE",
"363 491 OFFCURVE",
"413 441 CURVE",
"316 350 LINE SMOOTH",
"281 317 OFFCURVE",
"247 280 OFFCURVE",
"215 245 CURVE"
);
},
{
closed = 1;
nodes = (
"733 226 LINE SMOOTH",
"716 231 OFFCURVE",
"697 257 OFFCURVE",
"683 270 CURVE SMOOTH",
"611 337 OFFCURVE",
"571 409 OFFCURVE",
"505 479 CURVE",
"539 516 LINE SMOOTH",
"617 598 OFFCURVE",
"658 663 OFFCURVE",
"744 737 CURVE",
"746 718 OFFCURVE",
"744 698 OFFCURVE",
"744 679 CURVE SMOOTH",
"744 570 LINE SMOOTH",
"744 495 OFFCURVE",
"746 418 OFFCURVE",
"747 344 CURVE SMOOTH",
"749 221 LINE"
);
}
);
width = 947;
}
);
note = uni16D7;
unicode = 16D7;
},
{
glyphname = uni16DA;
lastChange = "2021-12-30 14:01:41 +0000";
layers = (
{
hints = (
{
horizontal = 1;
place = "{365, 116}";
type = Stem;
},
{
horizontal = 1;
place = "{584, 126}";
type = Stem;
},
{
place = "{197, 133}";
type = Stem;
},
{
place = "{491, 169}";
type = Stem;
}
);
layerId = "A3F1973E-A54C-4051-9E3B-DFD359A8ED51";
paths = (
{
closed = 1;
nodes = (
"23 -67 OFFCURVE",
"355 -26 OFFCURVE",
"317 9 CURVE",
"292 40 OFFCURVE",
"294 127 OFFCURVE",
"294 165 CURVE SMOOTH",
"294 289 OFFCURVE",
"292 385 OFFCURVE",
"286 502 CURVE SMOOTH",
"278 640 LINE SMOOTH",
"277 670 OFFCURVE",
"257 749 OFFCURVE",
"295 749 CURVE SMOOTH",
"361 749 OFFCURVE",
"418 724 OFFCURVE",
"487 603 CURVE SMOOTH",
"503 576 OFFCURVE",
"478 569 OFFCURVE",
"468 560 CURVE SMOOTH",
"423 518 OFFCURVE",
"470 525 OFFCURVE",
"532 554 CURVE SMOOTH",
"562 569 OFFCURVE",
"659 610 OFFCURVE",
"611 610 CURVE SMOOTH",
"542 610 OFFCURVE",
"588 613 OFFCURVE",
"471 764 CURVE SMOOTH",
"400 856 OFFCURVE",
"360 832 OFFCURVE",
"284 839 CURVE SMOOTH",
"191 846 OFFCURVE",
"142 840 OFFCURVE",
"126 836 CURVE SMOOTH",
"99 829 OFFCURVE",
"40 814 OFFCURVE",
"58 782 CURVE SMOOTH",
"69 763 OFFCURVE",
"95 760 OFFCURVE",
"122 757 CURVE SMOOTH",
"178 749 OFFCURVE",
"198 708 OFFCURVE",
"198 658 CURVE SMOOTH",
"198 100 LINE SMOOTH",
"198 73 OFFCURVE",
"202 5 OFFCURVE",
"153 -14 CURVE SMOOTH",
"113 -31 LINE SMOOTH"
);
}
);
width = 679;
}
);
note = uni16DA;
unicode = 16DA;
},
{
glyphname = uni16DE;
lastChange = "2021-12-30 14:01:40 +0000";
layers = (
{
hints = (
{
horizontal = 1;
place = "{-218, 112}";
type = Stem;
},
{
place = "{108, 125}";
type = Stem;
},
{
place = "{644, 125}";
type = Stem;
}
);
layerId = "A3F1973E-A54C-4051-9E3B-DFD359A8ED51";
paths = (
{
closed = 1;
nodes = (
"208 -7 OFFCURVE",
"181 -17 OFFCURVE",
"185 56 CURVE SMOOTH",
"189 110 OFFCURVE",
"188 147 OFFCURVE",
"188 199 CURVE",
"252 249 LINE SMOOTH",
"293 280 OFFCURVE",
"337 304 OFFCURVE",
"382 330 CURVE",
"484 273 LINE SMOOTH",
"533 246 OFFCURVE",
"563 237 OFFCURVE",
"600 220 CURVE SMOOTH",
"613 214 OFFCURVE",
"629 202 OFFCURVE",
"644 196 CURVE",
"644 116 LINE SMOOTH",
"644 56 OFFCURVE",
"664 -4 OFFCURVE",
"622 -42 CURVE SMOOTH",
"584 -81 OFFCURVE",
"707 -46 OFFCURVE",
"762 -2 CURVE SMOOTH",
"791 24 OFFCURVE",
"711 -13 OFFCURVE",
"719 35 CURVE",
"723 288 LINE SMOOTH",
"725 366 OFFCURVE",
"724 441 OFFCURVE",
"726 518 CURVE SMOOTH",
"728 629 LINE SMOOTH",
"732 847 OFFCURVE",
"768 853 OFFCURVE",
"751 854 CURVE SMOOTH",
"716 858 OFFCURVE",
"563 787 OFFCURVE",
"609 780 CURVE",
"639 767 OFFCURVE",
"649 777 OFFCURVE",
"647 690 CURVE SMOOTH",
"646 645 OFFCURVE",
"644 595 OFFCURVE",
"644 549 CURVE SMOOTH",
"644 527 LINE",
"617 507 OFFCURVE",
"588 487 OFFCURVE",
"559 467 CURVE SMOOTH",
"452 398 LINE",
"367 445 OFFCURVE",
"280 492 OFFCURVE",
"190 533 CURVE",
"190 697 OFFCURVE",
"197 676 OFFCURVE",
"193 746 CURVE SMOOTH",
"192 766 OFFCURVE",
"192 784 OFFCURVE",
"198 805 CURVE SMOOTH",
"204 820 OFFCURVE",
"218 834 OFFCURVE",
"216 850 CURVE SMOOTH",
"214 862 OFFCURVE",
"157 812 OFFCURVE",
"153 808 CURVE SMOOTH",
"136 791 OFFCURVE",
"82 771 OFFCURVE",
"77 750 CURVE",
"75 732 OFFCURVE",
"91 743 OFFCURVE",
"101 730 CURVE SMOOTH",
"115 712 OFFCURVE",
"108 665 OFFCURVE",
"108 645 CURVE SMOOTH",
"107 599 OFFCURVE",
"108 589 OFFCURVE",
"108 558 CURVE SMOOTH",
"108 484 OFFCURVE",
"107 410 OFFCURVE",
"108 336 CURVE SMOOTH",
"109 195 OFFCURVE",
"111 145 OFFCURVE",
"109 70 CURVE SMOOTH",
"108 26 OFFCURVE",
"54 16 OFFCURVE",
"64 0 CURVE SMOOTH",
"99 -54 OFFCURVE",
"121 -63 OFFCURVE",
"136 -53 CURVE SMOOTH"
);
},
{
closed = 1;
nodes = (
"188 297 LINE",
"190 428 LINE",
"249 401 OFFCURVE",
"305 372 OFFCURVE",
"360 342 CURVE",
"333 326 LINE SMOOTH",
"284 295 OFFCURVE",
"258 283 OFFCURVE",
"231 264 CURVE SMOOTH",
"188 234 LINE"
);
},
{
closed = 1;
nodes = (
"642 302 OFFCURVE",
"638 303 OFFCURVE",
"633 306 CURVE SMOOTH",
"478 387 LINE",
"516 418 OFFCURVE",
"545 433 OFFCURVE",
"594 466 CURVE SMOOTH",
"601 471 OFFCURVE",
"622 484 OFFCURVE",
"646 494 CURVE",
"646 437 OFFCURVE",
"644 384 OFFCURVE",
"644 328 CURVE SMOOTH",
"644 302 LINE"
);
}
);
width = 831;
}
);
note = uni16DE;
unicode = 16DE;
},
{
glyphname = uni16E0;
lastChange = "2021-12-30 14:01:41 +0000";
layers = (
{
hints = (
{
horizontal = 1;
place = "{247, 105}";
type = Stem;
},
{
place = "{56, 110}";
type = Stem;
},
{
place = "{346, 115}";
type = Stem;
},
{
place = "{623, 78}";
type = Stem;
}
);
layerId = "A3F1973E-A54C-4051-9E3B-DFD359A8ED51";
paths = (
{
closed = 1;
nodes = (
"445 -3 OFFCURVE",
"452 5 OFFCURVE",
"440 8 CURVE SMOOTH",
"429 10 OFFCURVE",
"422 36 OFFCURVE",
"421 83 CURVE SMOOTH",
"420 249 OFFCURVE",
"421 374 OFFCURVE",
"421 498 CURVE SMOOTH",
"421 670 LINE",
"429 655 OFFCURVE",
"530 524 OFFCURVE",
"562 490 CURVE",
"574 470 OFFCURVE",
"601 442 OFFCURVE",
"622 442 CURVE SMOOTH",
"641 442 OFFCURVE",
"659 453 OFFCURVE",
"660 490 CURVE SMOOTH",
"662 549 OFFCURVE",
"660 642 OFFCURVE",
"660 718 CURVE SMOOTH",
"660 793 LINE SMOOTH",
"660 804 OFFCURVE",
"667 841 OFFCURVE",
"649 830 CURVE",
"622 822 OFFCURVE",
"622 808 OFFCURVE",
"622 760 CURVE SMOOTH",
"622 508 LINE",
"560 605 OFFCURVE",
"574 583 OFFCURVE",
"530 645 CURVE SMOOTH",
"448 760 OFFCURVE",
"456 756 OFFCURVE",
"402 830 CURVE",
"394 849 OFFCURVE",
"404 847 OFFCURVE",
"380 849 CURVE SMOOTH",
"368 850 OFFCURVE",
"359 847 OFFCURVE",
"328 796 CURVE SMOOTH",
"301 751 OFFCURVE",
"276 708 OFFCURVE",
"250 662 CURVE SMOOTH",
"167 513 OFFCURVE",
"131 450 OFFCURVE",
"127 490 CURVE",
"119 755 LINE SMOOTH",
"117 839 OFFCURVE",
"152 857 OFFCURVE",
"102 833 CURVE SMOOTH",
"84 824 OFFCURVE",
"57 815 OFFCURVE",
"57 796 CURVE SMOOTH",
"57 478 OFFCURVE",
"64 418 OFFCURVE",
"77 417 CURVE",
"127 397 OFFCURVE",
"147 440 OFFCURVE",
"169 474 CURVE SMOOTH",
"202 524 OFFCURVE",
"240 573 OFFCURVE",
"334 720 CURVE",
"340 615 OFFCURVE",
"339 595 OFFCURVE",
"346 488 CURVE SMOOTH",
"350 414 OFFCURVE",
"346 374 OFFCURVE",
"346 300 CURVE SMOOTH",
"346 63 LINE SMOOTH",
"346 -65 OFFCURVE",
"290 -98 OFFCURVE",
"421 -18 CURVE SMOOTH"
);
}
);
width = 718;
}
);
note = uni16E0;
unicode = 16E0;
},
{
glyphname = uni16E3;
lastChange = "2021-12-30 14:01:41 +0000";
layers = (
{
layerId = "A3F1973E-A54C-4051-9E3B-DFD359A8ED51";
paths = (
{
closed = 1;
nodes = (
"148 -9 OFFCURVE",
"171 31 OFFCURVE",
"143 19 CURVE SMOOTH",
"122 11 OFFCURVE",
"131 125 OFFCURVE",
"131 227 CURVE SMOOTH",
"131 294 OFFCURVE",
"125 297 OFFCURVE",
"176 339 CURVE SMOOTH",
"245 397 OFFCURVE",
"307 446 OFFCURVE",
"307 417 CURVE SMOOTH",
"307 154 LINE SMOOTH",
"307 91 OFFCURVE",
"315 40 OFFCURVE",
"287 -9 CURVE",
"265 -30 OFFCURVE",
"297 -18 OFFCURVE",
"364 -18 CURVE SMOOTH",
"383 -18 OFFCURVE",
"413 -18 OFFCURVE",
"400 -8 CURVE",
"383 17 OFFCURVE",
"387 25 OFFCURVE",
"387 51 CURVE SMOOTH",
"387 262 LINE",
"383 309 OFFCURVE",
"383 337 OFFCURVE",
"383 387 CURVE SMOOTH",
"383 428 OFFCURVE",
"420 409 OFFCURVE",
"465 378 CURVE SMOOTH",
"553 319 OFFCURVE",
"559 311 OFFCURVE",
"563 287 CURVE SMOOTH",
"567 268 OFFCURVE",
"568 152 OFFCURVE",
"568 130 CURVE SMOOTH",
"568 40 OFFCURVE",
"585 40 OFFCURVE",
"545 -2 CURVE SMOOTH",
"512 -36 OFFCURVE",
"593 -18 OFFCURVE",
"622 -2 CURVE SMOOTH",
"639 7 OFFCURVE",
"630 69 OFFCURVE",
"630 107 CURVE SMOOTH",
"630 310 LINE SMOOTH",
"630 351 OFFCURVE",
"413 457 OFFCURVE",
"383 467 CURVE",
"383 754 LINE SMOOTH",
"383 784 OFFCURVE",
"383 822 OFFCURVE",
"374 854 CURVE SMOOTH",
"364 893 OFFCURVE",
"320 846 OFFCURVE",
"298 828 CURVE",
"265 794 OFFCURVE",
"255 784 OFFCURVE",
"267 776 CURVE",
"274 763 OFFCURVE",
"287 773 OFFCURVE",
"299 761 CURVE SMOOTH",
"311 749 OFFCURVE",
"307 743 OFFCURVE",
"311 727 CURVE",
"307 635 OFFCURVE",
"307 536 OFFCURVE",
"307 457 CURVE",
"249 428 OFFCURVE",
"233 409 OFFCURVE",
"176 370 CURVE SMOOTH",
"133 341 OFFCURVE",
"141 346 OFFCURVE",
"91 309 CURVE SMOOTH",
"70 294 OFFCURVE",
"70 288 OFFCURVE",
"70 259 CURVE SMOOTH",
"70 19 LINE SMOOTH",
"70 -9 OFFCURVE",
"21 -34 OFFCURVE",
"101 -18 CURVE SMOOTH"
);
}
);
width = 688;
}
);
note = uni16E3;
unicode = 16E3;
},
